<svg xmlns="http://www.w3.org/2000/svg" viewBox="0 0 154.23 154.23"><defs><style>.cls-1{fill:#d42028;}.cls-2{fill:#bf202b;}.cls-3{fill:#fff;}</style></defs><title>icon_clud</title><g id="Layer_2" data-name="Layer 2"><g id="Layer_4" data-name="Layer 4"><circle class="cls-1" cx="77.11" cy="77.11" r="77.11"/><path class="cls-2" d="M34.87,12.09A77.36,77.36,0,0,0,93,135.49c1.35.07,2.69.1,4,.1a77.09,77.09,0,0,0,42.6-12.8,77.28,77.28,0,0,1-62.2,31.44c-1.36,0-2.7,0-4-.1a77.45,77.45,0,0,1-38.56-142Z"/><path class="cls-3" d="M82.68,98.84c12.23,0,24.47,0,36.69-.38,4.71-.15,10.2.23,14.78-1.08,8.82-2.5,4.62-11.65-.31-15.72l-.5,3.92c3.29-2,6.18-2.79,6-7a15.09,15.09,0,0,0-3.11-8.26,16.34,16.34,0,0,0-17-6.31l2.43,4.18c8-6.68,5-19.32-4-23.43-11.57-5.29-22.85,2.86-28.43,12.71l4.66,1.27c2.46-19.3-15.9-34.59-34.43-30C39.89,33.56,32,55.48,40.25,72.88l2.16-3.76c-8.47-.38-17.8-.45-24.43,5.68-5,4.62-6.9,11.93-3.17,17.92,3.34,5.37,10,8,16,8.84,4.9.67,9.94,0,14.86-.23,5.83-.25,11.65-.32,17.48,0,3.22.17,3.21-4.84,0-5a219.08,219.08,0,0,0-22.34.26c-6,.3-11.84.58-17.28-2.51C17.56,90.7,15.88,84,21,78.83c5.55-5.58,14.21-5,21.44-4.71,2,.1,2.92-2.15,2.16-3.76-7-14.59,0-32.8,16.18-36.81a22.83,22.83,0,0,1,28.1,25.19C88.53,61.28,92.37,62,93.51,60c3.85-6.8,10.38-13,18.82-11.63,7.74,1.27,12.53,10.65,5.75,16.29-2,1.68.18,4.72,2.44,4.17,7.23-1.76,14.18,4.36,13.77,11.68l1.24-2.16-4.72,2.92c-1.26.77-1.79,2.86-.5,3.92,2.45,2,6.19,6.46,1.48,7.56a31.54,31.54,0,0,1-5.14.41c-5.59.31-11.19.42-16.79.51q-13.59.22-27.18.17c-3.22,0-3.22,5,0,5Z"/><polygon class="cls-3" points="81.14 74.54 75.12 84.97 87.16 84.97 81.14 74.54"/><rect class="cls-3" x="62.39" y="98.32" width="37.5" height="2.95" rx="1.41" ry="1.41" transform="translate(-18.65 180.93) rotate(-90)"/><polygon class="cls-3" points="64.84 121.79 70.86 111.36 58.82 111.36 64.84 121.79"/><rect class="cls-3" x="46.09" y="95.07" width="37.5" height="2.95" rx="1.41" ry="1.41" transform="translate(161.38 31.7) rotate(90)"/></g></g></svg>