<svg xmlns="http://www.w3.org/2000/svg" viewBox="0 0 154.23 154.23"><defs><style>.cls-1{fill:#d42028;}.cls-2{fill:#bf202b;}.cls-3,.cls-4{fill:none;stroke:#fff;stroke-miterlimit:10;}.cls-3{stroke-width:4px;}.cls-4{stroke-width:2px;}</style></defs><title>icon_app</title><g id="Layer_2" data-name="Layer 2"><g id="Layer_6" data-name="Layer 6"><circle class="cls-1" cx="77.11" cy="77.11" r="77.11"/><path class="cls-2" d="M34.87,12.09A77.36,77.36,0,0,0,93,135.49c1.35.07,2.69.1,4,.1a77.09,77.09,0,0,0,42.6-12.8,77.28,77.28,0,0,1-62.2,31.44c-1.36,0-2.7,0-4-.1a77.45,77.45,0,0,1-38.56-142Z"/><rect class="cls-3" x="23.04" y="36.61" width="108.15" height="77.6" rx="12" ry="12"/><line class="cls-3" x1="49.52" y1="37.94" x2="49.52" y2="114.21"/><line class="cls-4" x1="28.68" y1="48.53" x2="45.18" y2="48.53"/><line class="cls-4" x1="28.68" y1="54.2" x2="45.18" y2="54.2"/><line class="cls-4" x1="28.68" y1="59.88" x2="45.18" y2="59.88"/><line class="cls-4" x1="28.68" y1="65.56" x2="45.18" y2="65.56"/><line class="cls-4" x1="28.68" y1="71.24" x2="45.18" y2="71.24"/><line class="cls-4" x1="28.68" y1="76.92" x2="45.18" y2="76.92"/><line class="cls-4" x1="28.68" y1="82.6" x2="45.18" y2="82.6"/><line class="cls-4" x1="28.68" y1="88.28" x2="45.18" y2="88.28"/><line class="cls-4" x1="116.39" y1="47.53" x2="121.81" y2="42.11"/><line class="cls-4" x1="121.81" y1="47.53" x2="116.39" y2="42.11"/><line class="cls-3" x1="54.43" y1="55.78" x2="100.18" y2="55.78"/><line class="cls-3" x1="54.43" y1="68.42" x2="112.18" y2="68.42"/><line class="cls-3" x1="54.43" y1="81.06" x2="119.18" y2="81.06"/><line class="cls-3" x1="54.43" y1="93.7" x2="107.93" y2="93.7"/><line class="cls-3" x1="54.43" y1="106.35" x2="70.06" y2="106.35"/></g></g></svg>