<svg xmlns="http://www.w3.org/2000/svg" viewBox="0 0 154.23 154.23"><defs><style>.cls-1{fill:#d42028;}.cls-2{fill:#bf202b;}.cls-3,.cls-5,.cls-6{fill:none;stroke:#fff;stroke-miterlimit:10;}.cls-3{stroke-width:3px;}.cls-4{fill:#fff;}.cls-5{stroke-width:6px;}.cls-6{stroke-width:4px;}</style></defs><title>icon_chat</title><g id="Layer_2" data-name="Layer 2"><g id="Layer_2-2" data-name="Layer 2"><circle class="cls-1" cx="77.11" cy="77.11" r="77.11"/><path class="cls-2" d="M34.87,12.09A77.36,77.36,0,0,0,93,135.49c1.35.07,2.69.1,4,.1a77.09,77.09,0,0,0,42.6-12.8,77.28,77.28,0,0,1-62.2,31.44c-1.36,0-2.7,0-4-.1a77.45,77.45,0,0,1-38.56-142Z"/><line class="cls-3" x1="38.92" y1="53.35" x2="90.08" y2="53.35"/><line class="cls-3" x1="38.92" y1="65.92" x2="77.87" y2="65.92"/><line class="cls-3" x1="38.92" y1="78.49" x2="87.85" y2="78.49"/><path class="cls-4" d="M35.52,88.06C32.8,94.2,28,97.48,22.76,101.31c-1.93,1.41-1.38,4.62,1.26,4.66,11.37.17,23.36-3.94,29-14.39,1.53-2.83-2.79-5.36-4.32-2.53C43.89,98,33.64,101.12,24,101l1.26,4.66c6-4.34,11.48-8.09,14.56-15,1.29-2.92-3-5.46-4.32-2.52Z"/><path class="cls-5" d="M37.64,89.66A12.06,12.06,0,0,1,29.2,78.2V54.45a12,12,0,0,1,12-12H87.49a12,12,0,0,1,12,12V78.2a12,12,0,0,1-12,12H50.08"/><path class="cls-4" d="M112.62,106.59c3.78,5.55,9.13,8.87,14.6,12.58l.95-3.49c-9.84-.14-20.47-3-26.95-10.79-1.54-1.86-4.18.8-2.66,2.65,7.09,8.57,18.85,11.74,29.61,11.89a1.89,1.89,0,0,0,.94-3.5c-4.88-3.31-9.87-6.27-13.25-11.24-1.35-2-4.6-.1-3.24,1.9Z"/><path class="cls-6" d="M100.39,106.22H68.19a12,12,0,0,1-12-12v-4"/><path class="cls-6" d="M99.49,58.47h15a12,12,0,0,1,12,12V94.22a12,12,0,0,1-12,12"/></g></g></svg>