<svg xmlns="http://www.w3.org/2000/svg" viewBox="0 0 363.38 87.31"><defs><style>.cls-1{fill:#c2c1c0;}</style></defs><title>ICON_EBS_CONSULTING</title><g id="Layer_2" data-name="Layer 2"><g id="Layer_1-2" data-name="Layer 1"><path class="cls-1" d="M0,40.75c.32-2,.57-4,1-6A43.51,43.51,0,0,1,34.89.91C50.07-2,63.33,2,74.39,12.73a41.9,41.9,0,0,1,12.5,25.4,43.56,43.56,0,0,1-32.83,47.8c-2.35.57-4.8.76-7.2,1.13l-1.5.25H42c-.26-.06-.52-.14-.79-.18-2.48-.35-5-.54-7.45-1.07C17.6,82.59,4.06,68.71,1,52.49c-.38-2-.65-4-1-6ZM43.65,5.92A37.69,37.69,0,1,0,81.33,44,37.79,37.79,0,0,0,43.65,5.92Z"/><path class="cls-1" d="M147.19,29.85c3.54,1.67,4.29,4.58,3.76,7.54A7,7,0,0,1,144.43,43c-5.09.3-10.21.07-15.4.07V19.15h1.68c4,0,7.92,0,11.87,0a13.12,13.12,0,0,1,2.26.23,5.61,5.61,0,0,1,4.86,4.21C150.39,26.22,149.65,28,147.19,29.85Zm-10.63,3.21v4.23c1.8,0,3.56.12,5.28,0,1.31-.12,1.81-1,1.73-2.29a1.86,1.86,0,0,0-1.93-1.88C140,33,138.31,33.06,136.56,33.06Zm0-4.66c1.62,0,3.09.05,4.56,0a1.64,1.64,0,0,0,1.7-1.78c0-1.14-.8-1.56-1.72-1.62-1.49-.09-3,0-4.54,0Z"/><path class="cls-1" d="M125.93,19.22V25.3H113.6v2.92h11.11V34H113.55v2.89h12.69v6.2H106.09V19.22Z"/><path class="cls-1" d="M151.72,35.12a3,3,0,0,1,.55-.1H159a1.39,1.39,0,0,1,.18.33,3.74,3.74,0,0,0,5.34,2.77,1.88,1.88,0,0,0,1.41-1.74c.06-1-.56-1.38-1.31-1.62-1.93-.63-3.88-1.2-5.82-1.8-.53-.17-1.05-.36-1.58-.55-2.47-.94-4.34-2.42-4.53-5.29-.21-3.16,1-5.72,3.8-7.17a13.24,13.24,0,0,1,12-.11c2.69,1.23,3.84,3.57,3.92,6.59h-6.83A3.32,3.32,0,0,0,161,24.19c-.46.17-1.06.69-1.08,1.07a1.71,1.71,0,0,0,.8,1.39c1.67.64,3.4,1.09,5.11,1.62,1.21.39,2.45.72,3.62,1.21,5.84,2.45,4.67,9.77,1,12.15a14.62,14.62,0,0,1-9.29,2.09,11.33,11.33,0,0,1-6.74-2.47A7.6,7.6,0,0,1,151.72,35.12Z"/><path class="cls-1" d="M207.73,28.19c-2.18,0-4.37,0-6.56,0-.24,0-.57-.37-.67-.64-.85-2.08-1.82-2.87-3.64-2.89a3.89,3.89,0,0,0-3.94,2.9,10.39,10.39,0,0,0,.12,7.6,3.87,3.87,0,0,0,4.2,2.51,3.39,3.39,0,0,0,3.13-2.86,1.24,1.24,0,0,1,1.48-1.09c2,.06,4.06,0,6.07,0,.32,3.69-2.39,7.67-6.22,9.18-6.63,2.6-16.44-.15-16.88-11.1a14,14,0,0,1,1.3-6.87,10.92,10.92,0,0,1,9.15-6.27,13.44,13.44,0,0,1,7.25,1C205.73,21.09,208.08,24.92,207.73,28.19Z"/><path class="cls-1" d="M356.65,27.14V25.73h6.71V27c0,4.48-.09,8.95,0,13.43.15,6.15-2.91,8.59-8.53,8.84a13,13,0,0,1-6.42-1.12,5.72,5.72,0,0,1-3.32-4.79c2.13,0,4.2,0,6.26,0,.29,0,.62.4.85.69,1.35,1.71,3.22,1.51,3.95-.55a12.23,12.23,0,0,0,.48-3.42,7.08,7.08,0,0,1-4.37,2c-4.5.16-7.58-2.7-7.8-7.51a13.29,13.29,0,0,1,.68-4.81,7,7,0,0,1,8.61-4.37A14.2,14.2,0,0,1,356.65,27.14Zm-5.56,6.55a19.37,19.37,0,0,0,.52,2.31,2.52,2.52,0,0,0,2.66,1.79,2.33,2.33,0,0,0,2.29-2.06,8.52,8.52,0,0,0,.23-2.25c-.07-2-1-3.12-2.48-3.3C352.48,30,351.2,31.4,351.09,33.69Z"/><path class="cls-1" d="M248.9,43.14h-6.67V39.62c0-2.28,0-4.56-.07-6.84a1.91,1.91,0,0,0-1.57-2.1,2.35,2.35,0,0,0-2.74,1.41,6.12,6.12,0,0,0-.3,2c0,2.56,0,5.12,0,7.68v1.37h-6.74V25.71h6.42c0,.55.09,1.12.15,1.87a7.29,7.29,0,0,1,7.18-2.17,5.07,5.07,0,0,1,4.32,4.77C249,34.46,248.9,38.73,248.9,43.14Z"/><path class="cls-1" d="M331.18,43.15H324.5V25.72h6.38c0,.6.07,1.15.11,1.94a6.89,6.89,0,0,1,4.53-2.39c4.14-.58,7.12,2,7.13,6.16,0,3.48,0,7,0,10.43v1.26h-6.82V41.83c0-2.92,0-5.84,0-8.75,0-1.57-.6-2.3-1.76-2.43a2.4,2.4,0,0,0-2.74,2,7.12,7.12,0,0,0-.14,1.54C331.17,37.1,331.18,40.05,331.18,43.15Z"/><path class="cls-1" d="M282,25.7h6.61V43.13h-6.36l-.15-1.87a7.18,7.18,0,0,1-5.89,2.37,5.55,5.55,0,0,1-5.72-5.77c0-3.72,0-7.44,0-11.16,0-.31,0-.62.05-1h6.66V27c0,2.84,0,5.68,0,8.52,0,2.08.78,2.8,2.51,2.66a2.15,2.15,0,0,0,2-1.76,9,9,0,0,0,.26-2.25C282,31.37,282,28.58,282,25.7Z"/><path class="cls-1" d="M219,43.62c-4.39,0-7.52-1.93-8.85-5.45-1.47-3.91-.53-8.36,2.3-10.81,5.22-4.52,14.32-2,15.85,4.53C229.7,37.74,226.57,43.77,219,43.62Zm2.9-9.24a19.69,19.69,0,0,0-.4-2.36A2.34,2.34,0,0,0,219,30.17a2.22,2.22,0,0,0-2.42,1.89,17.75,17.75,0,0,0,0,4.83c.2,1.29,1.16,1.76,2.48,1.77a2.31,2.31,0,0,0,2.38-1.81A19.87,19.87,0,0,0,221.92,34.38Z"/><path class="cls-1" d="M268,30.88c-1.83,0-3.66,0-5.49,0a1.07,1.07,0,0,1-.66-.5,2.41,2.41,0,0,0-3.16-1.14,1.5,1.5,0,0,0-.85,1,1.32,1.32,0,0,0,.8,1c1.37.39,2.79.61,4.18,1a18,18,0,0,1,2.72.87,4.48,4.48,0,0,1,3,3.87A5.19,5.19,0,0,1,266.21,42a12.1,12.1,0,0,1-8.67,1.41,12.81,12.81,0,0,1-4.32-1.59,4.83,4.83,0,0,1-2.33-4.4h6.26c1,1.79,2.14,2.4,3.8,1.78.45-.17,1-.7,1.05-1.1a1.56,1.56,0,0,0-.95-1.15c-1.49-.44-3-.66-4.54-1.06a12.67,12.67,0,0,1-2.79-1,4.67,4.67,0,0,1-.6-7.89c2.31-1.73,5-1.92,7.77-1.72,2.17.16,4.29.54,5.89,2.24A4.26,4.26,0,0,1,268,30.88Z"/><path class="cls-1" d="M302.82,29.88c-.79,0-1.42,0-2.05,0s-1-.27-.95-1c0-1,0-2.06,0-3.22h3V20.44h6.73v5.17h3.55v4.21h-3.41c0,2.45-.07,4.79.06,7.11,0,.43.85,1,1.4,1.15a6.4,6.4,0,0,0,2,0v5.07a60.87,60.87,0,0,1-6.76-.06,3.72,3.72,0,0,1-3.43-4c-.1-2.63-.07-5.26-.09-7.9C302.81,30.85,302.82,30.43,302.82,29.88Z"/><path class="cls-1" d="M291.74,43.13V19.25h6.67V43.13Z"/><path class="cls-1" d="M321.29,25.73V43.15h-6.57V25.73Z"/><path class="cls-1" d="M120.78,58.59c0,4.65-2,7.8-5.59,8.83a7.87,7.87,0,0,1-10.28-6.94c-.31-3.19.14-6.2,2.68-8.45a7.7,7.7,0,0,1,8.3-1.33c3,1.13,4.35,3.59,4.81,6.64A9.88,9.88,0,0,1,120.78,58.59Zm-8.13,8.15a6.39,6.39,0,0,0,6.1-3.7,9.31,9.31,0,0,0,.77-5.95,6.84,6.84,0,0,0-5.66-5.88,6.45,6.45,0,0,0-7,3.57,9.15,9.15,0,0,0,0,8.31A6.22,6.22,0,0,0,112.65,66.74Z"/><path class="cls-1" d="M148.67,57.06c2.61-3,5.65-2.88,7.45.16A4.05,4.05,0,0,1,161,55.06a3.32,3.32,0,0,1,2.63,3c0,.27,0,.56,0,.84v8.23c-.85.41-.94,0-.94-.65q0-3.48,0-7c0-2.49-.87-3.69-2.72-3.74a3.54,3.54,0,0,0-3.78,3.74c-.07,2.24,0,4.48-.05,6.71,0,.36-.35.71-.53,1.06a3.08,3.08,0,0,1-.42-1c0-2.28,0-4.56,0-6.84s-.83-3.49-2.47-3.61a3.59,3.59,0,0,0-4,3.33c-.19,2.06-.12,4.14-.17,6.22a3.28,3.28,0,0,1,0,.83,7.92,7.92,0,0,1-.49,1.12,3.56,3.56,0,0,1-.48-1.11c0-3.28,0-6.56,0-9.84a3.48,3.48,0,0,1,.49-1.22c.16.41.33.83.48,1.25A2.76,2.76,0,0,1,148.67,57.06Z"/><path class="cls-1" d="M253.66,50.44c.16.31.45.62.46.94,0,1.88,0,3.75,0,5.71.15-.06.27-.07.32-.13a5.22,5.22,0,0,1,5.79-1.82,4.64,4.64,0,0,1,3.59,4.43,11.87,11.87,0,0,1-.46,4.82c-1.33,3.94-6.71,4.39-9.24.66a8.92,8.92,0,0,1,0,1.61,2.66,2.66,0,0,1-.51.82l-.33-.17V50.68Zm5,5.4a3.88,3.88,0,0,0-3.9,2.42,7.08,7.08,0,0,0,.42,6.54A3.91,3.91,0,0,0,259,66.73a3.49,3.49,0,0,0,3.24-2.26A10.1,10.1,0,0,0,263,60.9C263,57.87,261.17,55.84,258.61,55.84Z"/><path class="cls-1" d="M124.38,57.56c1.17-1.65,2.43-2.59,4.2-2.63a5.24,5.24,0,0,1,5.55,5,13.6,13.6,0,0,1,0,2.63c-.2,2.28-1.17,4.07-3.46,4.84s-4.48.14-6.31-2V67.7c0,1,0,2.08,0,3.11,0,.3-.32.58-.49.86-.17-.3-.46-.59-.47-.89q0-7.38,0-14.75c0-.28.32-.57.49-.85a3.83,3.83,0,0,1,.46.9A8.34,8.34,0,0,1,124.38,57.56Zm9,3.89a21.3,21.3,0,0,0-.67-2.93,4.19,4.19,0,0,0-7.89.19,8.4,8.4,0,0,0-.09,4.94,3.71,3.71,0,0,0,3.51,3.05,4,4,0,0,0,4.43-2.49A18.59,18.59,0,0,0,133.38,61.45Z"/><path class="cls-1" d="M317.81,63.32a4.61,4.61,0,0,1-2.09,3.5,5.33,5.33,0,0,1-8.22-3.42,11.46,11.46,0,0,1,.07-4.25,5.11,5.11,0,0,1,5.68-4.22c2.48.16,4.37,2.13,4.7,4.93a13.23,13.23,0,0,1,0,1.56h-9.54a4.64,4.64,0,0,0,3,5.2A4.23,4.23,0,0,0,316.67,64a4.59,4.59,0,0,1,.79-.93Zm-.9-2.79c-.26-3.32-2.15-5-4.93-4.67a4.27,4.27,0,0,0-3.46,4.67Z"/><path class="cls-1" d="M193,61.47h-9.59a4.64,4.64,0,0,0,3.1,5.16,4.23,4.23,0,0,0,5.21-2.69,2,2,0,0,1,.91-.82,4.24,4.24,0,0,1-3.51,4.36,5.12,5.12,0,0,1-5.92-2.28,7.87,7.87,0,0,1,.1-7.79,5,5,0,0,1,5.54-2.4,5.1,5.1,0,0,1,4,4.36A20.25,20.25,0,0,1,193,61.47Zm-1.13-.93a4.21,4.21,0,0,0-3.9-4.7,4.34,4.34,0,0,0-4.54,4.7Z"/><path class="cls-1" d="M179.58,59a3,3,0,0,1-.58-.82,4,4,0,0,0-6.29-1.53,1.8,1.8,0,0,0,.37,3,18.07,18.07,0,0,0,3,1c.73.21,1.48.34,2.19.59a3,3,0,0,1,2.06,2.92,3,3,0,0,1-2,2.95,6.93,6.93,0,0,1-4.81.19c-1.75-.55-2.69-1.9-2.6-4.14.28.25.72.45.82.76A4.4,4.4,0,0,0,178.43,66a2,2,0,0,0-.17-3.55,29.42,29.42,0,0,0-3.64-1.09,9.12,9.12,0,0,1-2.4-1,2.79,2.79,0,0,1,.14-4.66,5.92,5.92,0,0,1,5.95-.15A3.08,3.08,0,0,1,180,58.75Z"/><path class="cls-1" d="M328.85,59c-.19-.27-.49-.52-.56-.82A2.72,2.72,0,0,0,326,55.94c-1.43-.24-2.91-.3-4.05.84a1.83,1.83,0,0,0,.76,3.1c1.29.5,2.69.7,4,1.07s2.55.93,2.85,2.53A3,3,0,0,1,327.84,67a6.54,6.54,0,0,1-5.57,0,3.55,3.55,0,0,1-2.06-3.9c.29.26.73.46.84.77A4.38,4.38,0,0,0,327.72,66a2,2,0,0,0-.18-3.55A25.62,25.62,0,0,0,324,61.4a10.65,10.65,0,0,1-2.24-.8,2.84,2.84,0,0,1,.07-5,6,6,0,0,1,5.65-.08,3.19,3.19,0,0,1,1.77,3.21Z"/><path class="cls-1" d="M279,63.15c.22.23.56.42.66.7a4.4,4.4,0,0,0,6.55,2.3,2.07,2.07,0,0,0-.11-3.75,30.79,30.79,0,0,0-3.54-1,9,9,0,0,1-2.3-.93,2.84,2.84,0,0,1,.18-4.81,6.1,6.1,0,0,1,5.75-.11,3,3,0,0,1,1.71,2.58c0,.25-.27.53-.41.79-.2-.19-.54-.36-.57-.58a2.54,2.54,0,0,0-2.2-2.35c-1.44-.28-2.9-.34-4.07.76a1.88,1.88,0,0,0,.86,3.23c1.42.5,2.93.74,4.37,1.18,1.78.53,2.59,1.57,2.34,3.36a3.46,3.46,0,0,1-1.29,2.23,6,6,0,0,1-6.38.12A3.11,3.11,0,0,1,279,63.15Z"/><path class="cls-1" d="M332.06,63.13c.23.25.59.45.69.74a4.26,4.26,0,0,0,6.42,2.27,3.37,3.37,0,0,0,1.13-1.91,1.57,1.57,0,0,0-1.17-1.86c-1.11-.41-2.3-.63-3.43-1a9.07,9.07,0,0,1-2.33-.89,2.85,2.85,0,0,1,.27-5,6.27,6.27,0,0,1,5.45-.11,3.23,3.23,0,0,1,1.9,2.72c0,.22-.23.49-.36.74-.21-.17-.53-.31-.61-.53a3.81,3.81,0,0,0-5.77-2,2.43,2.43,0,0,0-1.05,1.8,2.51,2.51,0,0,0,1.32,1.74,30.12,30.12,0,0,0,4,1.08c2,.53,2.81,1.53,2.81,3.33a2.67,2.67,0,0,1-1.48,2.55,6.34,6.34,0,0,1-6.19,0,3.85,3.85,0,0,1-2-3.42Z"/><path class="cls-1" d="M212.82,61.55c0-4.81,3.28-7.57,7.19-6.39A5.37,5.37,0,0,1,223.82,60a9.64,9.64,0,0,1-.27,3.66,5.19,5.19,0,0,1-5.8,3.9,5.47,5.47,0,0,1-4.85-4.84C212.83,62.25,212.83,61.73,212.82,61.55Zm1-.35c0,.38,0,.7.05,1a5,5,0,0,0,3.59,4.45,4.26,4.26,0,0,0,4.79-2.34,6.35,6.35,0,0,0-.31-6.59,4.18,4.18,0,0,0-6.6-.63A5.8,5.8,0,0,0,213.78,61.2Z"/><path class="cls-1" d="M211.74,55.34q-.84,2.2-1.7,4.42c-1.22,3.15-2.41,6.32-3.68,9.46-.89,2.18-1.46,2.49-4.09,2.2.24-.22.44-.59.7-.63a3.36,3.36,0,0,0,2.57-4.74l-4-9.58c-.15-.36-.28-.73-.44-1.13.87-.43,1.18,0,1.44.68,1.3,3.22,2.61,6.42,3.92,9.63,0,0,.05.06.18.21.26-.63.51-1.19.73-1.77q1.52-4,3-8.05C210.58,55.42,210.82,54.91,211.74,55.34Z"/><path class="cls-1" d="M321.3,19.21v4.65h-6.56V19.21Z"/><path class="cls-1" d="M236,67.26c-.94,0-.94,0-1.06-1.9a5.14,5.14,0,0,1-4.76,2.26c-2-.15-3.39-1.11-3.57-3.06-.25-2.94-.18-5.9-.22-8.86,0-.17.3-.34.46-.52.17.25.48.49.49.75,0,2,0,4.07,0,6.11,0,.48,0,1,.06,1.44.07,1.42.57,2.63,2,3.07a4,4,0,0,0,4.12-.9A4.65,4.65,0,0,0,235,62.21c0-2,0-4,0-6a3,3,0,0,1,.45-1c.18.32.51.64.51,1C236,59.82,236,63.49,236,67.26Z"/><path class="cls-1" d="M295.26,55.18c1.57.1.48,1.45,1.09,2a4.74,4.74,0,0,1,4.51-2.26,3.68,3.68,0,0,1,3.9,3.7c.1,2.67.05,5.35,0,8,0,.27-.38.54-.58.8l-.35-.21c0-2.59,0-5.18,0-7.77,0-1.84-.69-3-2-3.44a4,4,0,0,0-4.12.85,5.29,5.29,0,0,0-1.51,4c0,1.88,0,3.76,0,5.64,0,.63-.11,1-.9.69Z"/><path class="cls-1" d="M276.06,67.28c-.93,0-.93,0-1.07-1.91a5.18,5.18,0,0,1-4.17,2.26c-2.75,0-4.29-1.38-4.37-4.13-.08-2.52,0-5,0-7.56,0-.25.3-.5.47-.76.16.25.47.5.48.75,0,2.24,0,4.48,0,6.72a6.48,6.48,0,0,0,.38,2.33c.92,2.2,4.44,2.48,6,.37A7,7,0,0,0,275,62c.19-2,0-4,.07-6,0-.26.3-.52.46-.78.18.25.5.49.5.73C276.07,59.67,276.06,63.42,276.06,67.28Z"/><path class="cls-1" d="M137.59,56.08a11.09,11.09,0,0,1-1.55,0c-.23,0-.43-.3-.64-.46.23-.14.44-.37.69-.41a10.24,10.24,0,0,1,1.5,0c0-1,0-1.94,0-2.88,0-.27.3-.53.46-.79.19.27.53.53.55.81.08.9,0,1.81,0,2.86.7,0,1.3,0,1.87,0,.23,0,.43.31.64.48-.2.13-.39.37-.6.39-.58.06-1.17,0-1.87,0,0,3.09,0,6.08,0,9.06,0,1,.77,1.28,1.68,1.33.26,0,.51.29.77.45-.27.15-.53.41-.8.42-1.77.1-2.74-.84-2.76-2.68,0-2.39,0-4.79,0-7.19Z"/><path class="cls-1" d="M239.13,55.27c.64,0,.64,0,1,2a5,5,0,0,1,3.75-2.14c.64-.06,1,.08.73.84-3.39.48-4.62,1.92-4.64,5.35,0,1.72,0,3.44,0,5.16,0,.32-.29.63-.45.95l-.38-.15Z"/><path class="cls-1" d="M291,67.23V61.51c0-1.84,0-3.67,0-5.51,0-.28.35-.55.54-.82.17.25.48.5.48.76,0,3.55,0,7.1,0,10.65C292,67.35,291.69,67.47,291,67.23Z"/><path class="cls-1" d="M144.46,61.26c0,1.76,0,3.52,0,5.28,0,.27-.35.54-.53.81-.15-.27-.42-.54-.42-.81q0-5.28,0-10.54c0-.28.27-.55.42-.82.18.27.52.54.53.81C144.48,57.75,144.46,59.51,144.46,61.26Z"/><path class="cls-1" d="M168,61.27c0,1.75,0,3.51,0,5.27,0,.27-.35.54-.53.81-.15-.27-.42-.54-.42-.81,0-3.52,0-7,0-10.55,0-.27.27-.54.42-.81.18.27.52.54.53.81C168,57.75,168,59.51,168,61.27Z"/><path class="cls-1" d="M292,51.89a3.25,3.25,0,0,1-.06.83.56.56,0,0,1-.44.29c-.16,0-.47-.12-.48-.21a15,15,0,0,1,0-2c0-.09.32-.26.46-.23a.7.7,0,0,1,.48.38,3.76,3.76,0,0,1,0,1Z"/><path class="cls-1" d="M168,51.79a2.23,2.23,0,0,1,0,.82c-.08.19-.37.28-.56.42a4.61,4.61,0,0,1-.37-1.31,3.69,3.69,0,0,1,.38-1.18c.19.14.48.25.55.43A2,2,0,0,1,168,51.79Z"/><path class="cls-1" d="M144.44,51.79a2.23,2.23,0,0,1,0,.82c-.08.19-.37.28-.56.42a4.61,4.61,0,0,1-.37-1.31,3.69,3.69,0,0,1,.38-1.18c.19.14.48.25.55.43A2,2,0,0,1,144.44,51.79Z"/><path class="cls-1" d="M65.71,50.15l-5.87-3.49a7.48,7.48,0,0,0,.12-1.5A4.14,4.14,0,0,0,56.09,41a37.62,37.62,0,0,0-6.19,0,3.73,3.73,0,0,0-1.71.78c-1.52,1-2,4.22.54,5,2.73.87,5.51,1.56,8.26,2.39a23.5,23.5,0,0,1,4.26,1.53c6.87,3.6,5.65,12.74.31,15.65a17.54,17.54,0,0,1-18-.2C40.46,64.4,39.14,61.4,39,57.92a1.07,1.07,0,0,1,.72-.75c2-.06,4,0,6,0,.08.38.15.68.2,1a5.22,5.22,0,0,0,4.15,4.56,9.93,9.93,0,0,0,6.69-.34,3.38,3.38,0,0,0,2.27-3,2.94,2.94,0,0,0-2-3.1c-2.46-.89-5-1.53-7.5-2.37a35.41,35.41,0,0,1-5.44-2.11,7.29,7.29,0,0,1-4-7c0-7.16,0-14.31,0-21.47V22.11c.5,0,.89-.06,1.28-.06,4.6,0,9.2-.09,13.79,0a21.8,21.8,0,0,1,5.74.93c2.75.85,4.11,3,4.39,5.83.34,3.35-.7,6-3.89,7.68,2.85,1.55,4.83,3.67,5.3,6.87S66.74,48.71,65.71,50.15ZM47.26,35c2.13,0,4.12,0,6.11,0a11.67,11.67,0,0,0,2.71-.3,3.25,3.25,0,0,0,2.41-3.44c0-1.7-.79-3-2.43-3.24-2.89-.36-5.82-.37-8.8-.53Z"/><path class="cls-1" d="M26.93,28v6.75H37.1V40.3H27V48h2.69c2.36,0,4.72,0,7.08,0,.33,0,.87.18,1,.41a12,12,0,0,0,4.26,5.49h-22V22.13H37.12V28Z"/></g></g></svg>