<svg xmlns="http://www.w3.org/2000/svg" viewBox="0 0 51.25 51.25"><defs><style>.cls-1{fill:#d41224;}.cls-2{fill:#fff;}</style></defs><title>icon_in</title><g id="Layer_2" data-name="Layer 2"><g id="Layer_2-2" data-name="Layer 2"><circle class="cls-1" cx="25.63" cy="25.63" r="25.63"/><path class="cls-2" d="M20,37.41h-5.5c-.12,0-.15,0-.15-.14,0-3.14,0-6.28,0-9.41,0-1.64,0-3.28,0-4.92V20.45H20Zm-.53-20.18a2.87,2.87,0,0,1-1.66.92,3.53,3.53,0,0,1-2.22-.23A2.66,2.66,0,0,1,14,15.33a2.75,2.75,0,0,1,2.31-2.75c.26-.05.53-.07.81-.11a3.49,3.49,0,0,1,1.78.5,2.68,2.68,0,0,1,1.26,2,2.76,2.76,0,0,1-.66,2.3m20.2,20.18H34V28a6,6,0,0,0-.28-2,2.27,2.27,0,0,0-.94-1.29,2.71,2.71,0,0,0-1.42-.34A2.77,2.77,0,0,0,28.88,26a3.28,3.28,0,0,0-.42,1.68v9.77H22.7v-17h5.74v2.34h0l.39-.55a5,5,0,0,1,3.23-2,6.77,6.77,0,0,1,4.27.57,5.48,5.48,0,0,1,2.51,2.65,8,8,0,0,1,.71,2.68c0,.55.09,1.12.09,1.68q0,4.73,0,9.46Z"/></g></g></svg>