<svg xmlns="http://www.w3.org/2000/svg" viewBox="0 0 152.79 152.79"><defs><style>.cls-1{fill:#d42028;}.cls-2{fill:#bf202b;}.cls-3{fill:#fff;}</style></defs><title>icon_vprašanja</title><g id="Layer_2" data-name="Layer 2"><g id="Layer_2-2" data-name="Layer 2"><circle class="cls-1" cx="76.4" cy="76.4" r="76.4"/><path class="cls-2" d="M34.54,12A76.65,76.65,0,0,0,92.17,134.23c1.33.07,2.66.1,4,.1a76.29,76.29,0,0,0,42.2-12.68,76.55,76.55,0,0,1-61.62,31.14c-1.35,0-2.67,0-4-.1A76.73,76.73,0,0,1,34.54,12Z"/><path class="cls-3" d="M72.69,128.83c-.59-.15-1.18-.29-1.76-.46a11.66,11.66,0,1,1,5.58.25,3.66,3.66,0,0,0-.55.21Z"/><path class="cls-3" d="M74.45,24c8.18.14,15.26,1.32,21.83,4.69,8.08,4.14,13.15,10.53,14.43,19.67a23.53,23.53,0,0,1-5.22,18.82c-3.5,4.32-7.91,7.58-12.39,10.78-1.3.93-2.58,1.9-3.89,2.83a15.63,15.63,0,0,0-5.91,7.87c-.36,1.06-.84,2.08-1.3,3.11a7.22,7.22,0,0,1-5.61,4.42c-3.42.62-6.61.28-9.15-2.42a9.89,9.89,0,0,1-2.61-7.3c.1-5.16,2.55-9.23,6.16-12.59,3.12-2.9,6.59-5.41,9.8-8.21a53.71,53.71,0,0,0,6.17-6.08c3.09-3.76,3.38-8.12,1.57-12.53S82.9,41,78.53,40.35a20.41,20.41,0,0,0-7.31.31c-4.2.93-6.86,3.72-8.73,7.41-1,1.94-1.86,4-2.93,5.84A9.89,9.89,0,0,1,45.07,57a8,8,0,0,1-3.25-7.23,20.4,20.4,0,0,1,4.35-12c5.95-7.77,14-11.92,23.56-13.36C71.58,24.14,73.45,24.05,74.45,24Z"/></g></g></svg>