<svg xmlns="http://www.w3.org/2000/svg" viewBox="0 0 154.23 154.23"><defs><style>.cls-1{fill:#d42028;}.cls-2{fill:#bf202b;}.cls-3{fill:#fff;}</style></defs><title>ANALitics</title><g id="Layer_2" data-name="Layer 2"><g id="Layer_2-2" data-name="Layer 2"><circle class="cls-1" cx="77.11" cy="77.11" r="77.11"/><path class="cls-2" d="M34.87,12.09A77.36,77.36,0,0,0,93,135.49c1.35.07,2.69.1,4,.1a77.09,77.09,0,0,0,42.6-12.8,77.28,77.28,0,0,1-62.2,31.44c-1.36,0-2.7,0-4-.1a77.45,77.45,0,0,1-38.56-142Z"/><path class="cls-3" d="M106.89,81.24q0-14.37,0-28.73c0-2.71,2-5,5-5.91a8.37,8.37,0,0,1,8.33,1.9A6.17,6.17,0,0,1,122,53.13q0,23.49,0,47c0,3.17,0,6.33,0,9.49,0,3.82-3.38,6.75-7.65,6.7s-7.47-2.92-7.47-6.7Q106.88,95.42,106.89,81.24Z"/><path class="cls-3" d="M53.62,89.77c0-6.74,0-13.48,0-20.22,0-3.11,2.78-5.71,6.36-6.14,3.74-.44,7.36,1.48,8.37,4.5A6.78,6.78,0,0,1,68.7,70q0,19.78,0,39.58c0,2.77-1.39,4.92-4.46,6.1a8.24,8.24,0,0,1-8-1,5.65,5.65,0,0,1-2.59-4.83C53.63,103.17,53.62,96.47,53.62,89.77Z"/><path class="cls-3" d="M42,96.73V109.6c0,3.76-3.22,6.63-7.48,6.69s-7.63-2.89-7.64-6.7q0-12.91,0-25.85c0-3.88,3.23-6.66,7.64-6.64S42,79.91,42,83.74Z"/><path class="cls-3" d="M95.3,96.68c0,4.33,0,8.66,0,13,0,3.75-3.14,6.53-7.38,6.62s-7.67-2.78-7.69-6.53q-.09-13.11,0-26.22c0-3.31,2.81-6,6.4-6.4,4-.43,7.48,1.49,8.46,4.71a6.52,6.52,0,0,1,.22,2C95.31,88.11,95.3,92.4,95.3,96.68Z"/><path class="cls-3" d="M34.47,60.61c.56.09,1.1,0,1.41.25,1.44,1.06,2.51.25,3.71-.49C44.72,57.18,49.87,54,55,50.9a2,2,0,0,0,1.18-1.8,4.81,4.81,0,0,1,5-4.77c2.73,0,4.67,2.05,4.91,5a2,2,0,0,0,.78,1.37c5.67,3.53,11.38,7,17.08,10.5a2.07,2.07,0,0,0,.25.15A19.37,19.37,0,0,0,89.65,60q10-13.83,20-27.68a2.49,2.49,0,0,0,0-1.85,5,5,0,0,1,2.82-6.15,4.93,4.93,0,0,1,6.32,2.34A4.84,4.84,0,0,1,117,33.07a14.77,14.77,0,0,1-3,.77,2.8,2.8,0,0,0-1.42.66q-10,13.72-20,27.54a2.22,2.22,0,0,0-.22,1.68,5,5,0,0,1-1.23,5.47,4.67,4.67,0,0,1-5.23,1,4.94,4.94,0,0,1-3.16-4.47,2.44,2.44,0,0,0-.92-1.58c-5.54-3.47-11.13-6.85-16.69-10.29a2.41,2.41,0,0,0-2-.12,11.35,11.35,0,0,1-4.15,0,2.22,2.22,0,0,0-1.87.11c-5.6,3.47-11.23,6.88-16.81,10.37a2.34,2.34,0,0,0-.91,1.59,5,5,0,1,1-6.59-4.82A10.87,10.87,0,0,1,34.47,60.61Z"/></g></g></svg>