<svg xmlns="http://www.w3.org/2000/svg" viewBox="0 0 154.23 154.23"><defs><style>.cls-1{fill:#d42028;}.cls-2{fill:#bf202b;}.cls-3{fill:#fff;}</style></defs><title>icon_presentation</title><g id="Layer_2" data-name="Layer 2"><g id="Layer_2-2" data-name="Layer 2"><circle class="cls-1" cx="77.11" cy="77.11" r="77.11"/><path class="cls-2" d="M34.87,12.09A77.36,77.36,0,0,0,93,135.49c1.35.07,2.69.1,4,.1a77.09,77.09,0,0,0,42.6-12.8,77.28,77.28,0,0,1-62.2,31.44c-1.36,0-2.7,0-4-.1a77.45,77.45,0,0,1-38.56-142Z"/><path class="cls-3" d="M124.94,37.5V39a3.36,3.36,0,0,1-3.75,2.25c-.73-.07-1.46,0-2.18,0V92c2.21.09,4.7-.61,5.93,2.09v1.68A3.59,3.59,0,0,1,121.17,98c-7.81-.05-15.63,0-23.44,0h-10c.19.47.34.83.5,1.19Q93,109.9,97.72,120.58a3,3,0,0,1-3,4.33,3.09,3.09,0,0,1-2.61-2.11c-3.55-8-7.12-16-10.65-24-.29-.65-.6-1-1.38-.65v23.58a3,3,0,1,1-6,0V98.09c-.7-.19-1.07,0-1.36.62-1.58,3.65-3.21,7.27-4.82,10.9-2,4.46-4,8.92-6,13.36a3,3,0,0,1-5.15.83,3.13,3.13,0,0,1-.24-3.5q4.73-10.55,9.4-21.11c.16-.36.31-.72.5-1.18h-.86c-10.86,0-21.72,0-32.59,0a3.57,3.57,0,0,1-3.76-2.26V94.1c1.23-2.7,3.72-2,5.93-2.09V41.23c-.77,0-1.48,0-2.18,0A3.34,3.34,0,0,1,29.29,39V37.5c.68-1.7,1.93-2.27,3.74-2.27,13.35.05,26.69,0,40,0h1.06c0-.82,0-1.53,0-2.24a3.34,3.34,0,0,1,2.26-3.74h1.49A3.35,3.35,0,0,1,80.11,33c-.07.73,0,1.46,0,2.24h1.25c13.31,0,26.62,0,39.94,0A3.48,3.48,0,0,1,124.94,37.5ZM41.27,92h71.66V41.29H41.27Z"/><path class="cls-3" d="M71.15,66.37,59.36,78.17c-1.28,1.28-2.55,2.56-3.84,3.83a3,3,0,1,1-4.26-4.21L68.82,60.23a3,3,0,0,1,4.67,0l7.59,7.59c.15.16.31.29.51.48.27-.25.52-.47.76-.71q8.16-8.15,16.3-16.31a3,3,0,0,1,3.29-1,3,3,0,0,1,1.32,4.84c-.17.19-.35.36-.52.53L84.11,74.34c-1.76,1.76-3.28,1.75-5.06,0C76.44,71.7,73.83,69.07,71.15,66.37Z"/></g></g></svg>