<svg xmlns="http://www.w3.org/2000/svg" viewBox="0 0 154.23 154.23"><defs><style>.cls-1{fill:#d42028;}.cls-2{fill:#bf202b;}.cls-3{fill:#fff;}</style></defs><title>icon_realtime</title><g id="Layer_2" data-name="Layer 2"><g id="Layer_2-2" data-name="Layer 2"><circle class="cls-1" cx="77.11" cy="77.11" r="77.11"/><path class="cls-2" d="M34.87,12.09A77.36,77.36,0,0,0,93,135.49c1.35.07,2.69.1,4,.1a77.09,77.09,0,0,0,42.6-12.8,77.28,77.28,0,0,1-62.2,31.44c-1.36,0-2.7,0-4-.1a77.45,77.45,0,0,1-38.56-142Z"/><path class="cls-3" d="M26.27,73.58c.29-2,.52-4,.89-6A51.29,51.29,0,0,1,41.82,39.9,50.79,50.79,0,0,1,70.31,25.37a52.52,52.52,0,0,1,57.37,33.19c1.11,2.87,1.82,5.89,2.77,9h6.31a4.09,4.09,0,0,1,1.31.13,2.4,2.4,0,0,1,.92,4c-1.66,2-3.35,4-5,6-2.15,2.58-4.29,5.17-6.45,7.74-1.38,1.64-2.88,1.62-4.27,0-3.76-4.51-7.5-9-11.27-13.52a2.57,2.57,0,0,1-.64-2.93,2.51,2.51,0,0,1,2.64-1.4c2.13,0,4.26,0,6.46,0a41,41,0,0,0-5.63-13.49A42.52,42.52,0,0,0,94.2,37.2,42.79,42.79,0,0,0,45.66,49.88a41.56,41.56,0,0,0-9.41,21.47,41.61,41.61,0,0,0,7,29.76c6.16,9.09,14.64,15.21,25.39,17.6,17.1,3.79,31.51-1.16,43.06-14.29a66.47,66.47,0,0,0,4.29-6,4.75,4.75,0,0,1,7.75-.37,4.69,4.69,0,0,1,.3,5.48,52.27,52.27,0,0,1-19.56,19.27,50.31,50.31,0,0,1-18.83,6.33c-14.44,1.79-27.55-1.66-39.06-10.59a51.38,51.38,0,0,1-19.26-31c-.39-1.9-.55-3.86-.83-5.79-.05-.36-.14-.71-.21-1.06Z"/><path class="cls-3" d="M72.47,59.91c0-4,0-8,0-11.94a4.07,4.07,0,0,1,6.19-3.55A3.7,3.7,0,0,1,80.6,47.6c.05,2.56,0,5.12.05,7.67,0,5.5,0,11,0,16.49a2.15,2.15,0,0,0,.58,1.36,7.59,7.59,0,0,1,2.26,3.95,2.06,2.06,0,0,0,.89,1.18c4.35,2.56,8.73,5.06,13.09,7.59a4.08,4.08,0,0,1-3.07,7.56,8.82,8.82,0,0,1-1.27-.63c-4.29-2.47-8.57-5-12.88-7.4a1.92,1.92,0,0,0-1.37-.17,7.12,7.12,0,0,1-8.4-3,7,7,0,0,1,1.32-9,1.79,1.79,0,0,0,.66-1.53C72.45,67.74,72.47,63.83,72.47,59.91Zm1.09,18.58a3,3,0,0,0,3,3,3,3,0,1,0-3-3Z"/></g></g></svg>