<svg xmlns="http://www.w3.org/2000/svg" viewBox="0 0 154.23 154.23"><defs><style>.cls-1{fill:#d42028;}.cls-2{fill:#bf202b;}.cls-3,.cls-5{fill:none;stroke:#fff;stroke-miterlimit:10;}.cls-3{stroke-width:4px;}.cls-4{fill:#fff;}.cls-5{stroke-width:2px;}</style></defs><title>icon_planer</title><g id="Layer_2" data-name="Layer 2"><g id="Layer_5" data-name="Layer 5"><circle class="cls-1" cx="77.11" cy="77.11" r="77.11"/><path class="cls-2" d="M34.87,12.09A77.36,77.36,0,0,0,93,135.49c1.35.07,2.69.1,4,.1a77.09,77.09,0,0,0,42.6-12.8,77.28,77.28,0,0,1-62.2,31.44c-1.36,0-2.7,0-4-.1a77.45,77.45,0,0,1-38.56-142Z"/><rect class="cls-3" x="32.86" y="39.67" width="88.5" height="80.5" rx="12" ry="12"/><rect class="cls-4" x="32.86" y="40.84" width="88.5" height="18.33" rx="9.16" ry="9.16"/><rect class="cls-4" x="43.43" y="28.92" width="6.75" height="13.5" rx="3.37" ry="3.37"/><rect class="cls-4" x="62.39" y="28.92" width="6.75" height="13.5" rx="3.37" ry="3.37"/><rect class="cls-4" x="100.31" y="28.92" width="6.75" height="13.5" rx="3.37" ry="3.37"/><rect class="cls-4" x="81.35" y="28.92" width="6.75" height="13.5" rx="3.37" ry="3.37"/><rect class="cls-5" x="44.31" y="64.99" width="12.12" height="12.13"/><rect class="cls-5" x="61.85" y="64.99" width="12.12" height="12.13"/><rect class="cls-5" x="79.39" y="64.99" width="12.12" height="12.13"/><rect class="cls-5" x="96.93" y="64.99" width="12.12" height="12.13"/><rect class="cls-5" x="44.31" y="81.35" width="12.12" height="12.13"/><rect class="cls-5" x="61.85" y="81.35" width="12.12" height="12.13"/><rect class="cls-5" x="79.39" y="81.35" width="12.12" height="12.13"/><rect class="cls-5" x="96.93" y="81.35" width="12.12" height="12.13"/><rect class="cls-5" x="44.31" y="97.72" width="12.12" height="12.13"/><rect class="cls-5" x="61.62" y="97.72" width="12.12" height="12.13"/><rect class="cls-5" x="78.93" y="97.72" width="12.12" height="12.13"/><rect class="cls-5" x="96.25" y="97.72" width="12.12" height="12.13"/></g></g></svg>