<svg xmlns="http://www.w3.org/2000/svg" viewBox="0 0 154.23 154.23"><defs><style>.cls-1{fill:#d42028;}.cls-2{fill:#bf202b;}.cls-3{fill:#fff;}</style></defs><title>icon_podatki</title><g id="Layer_2" data-name="Layer 2"><g id="Layer_2-2" data-name="Layer 2"><circle class="cls-1" cx="77.11" cy="77.11" r="77.11"/><path class="cls-2" d="M34.87,12.09A77.36,77.36,0,0,0,93,135.49c1.35.07,2.69.1,4,.1a77.09,77.09,0,0,0,42.6-12.8,77.28,77.28,0,0,1-62.2,31.44c-1.36,0-2.7,0-4-.1a77.45,77.45,0,0,1-38.56-142Z"/><path class="cls-3" d="M36.42,76.35q0-16.24,0-32.49a7.08,7.08,0,0,1,3-5.77c3.21-2.55,7-3.83,10.9-4.85a106.07,106.07,0,0,1,28.12-3.05,101.54,101.54,0,0,1,26.37,3.23A27.86,27.86,0,0,1,115,38.06a7.52,7.52,0,0,1,3.08,6.29q-.08,32.12,0,64.23a7.55,7.55,0,0,1-3.08,6.29c-3.19,2.52-7,3.81-10.81,4.81-11,2.85-22.27,3.41-33.6,2.9a99.92,99.92,0,0,1-17.66-2.24c-4.33-1-8.59-2.22-12.38-4.68A8.34,8.34,0,0,1,36.37,108C36.51,97.44,36.42,86.9,36.42,76.35Zm4.44-4.46v1.27c0,4.41.06,8.82,0,13.23a3.27,3.27,0,0,0,1.69,3.23,38.31,38.31,0,0,0,5.78,2.77c8.22,2.84,16.78,3.57,25.39,3.84a119.69,119.69,0,0,0,18.15-.78,63.47,63.47,0,0,0,15-3.31,36.6,36.6,0,0,0,5.16-2.59,3.15,3.15,0,0,0,1.59-3.06c-.08-4.41,0-8.82,0-13.23V72c-1.85.81-3.54,1.67-5.31,2.3-8.32,3-17,3.93-25.75,4.28a121.74,121.74,0,0,1-22.65-1,61.09,61.09,0,0,1-15.85-4.06C43,73,42,72.46,40.86,71.89Zm0,22c0,5.26,0,10.38,0,15.5a2.15,2.15,0,0,0,.75,1.47,18.4,18.4,0,0,0,3.57,2.33c6.35,2.87,13.15,3.9,20,4.56a132.25,132.25,0,0,0,20.2.27,85,85,0,0,0,18.43-2.85,25.64,25.64,0,0,0,8.22-3.58,3.42,3.42,0,0,0,1.56-3.09c-.08-3.19,0-6.38,0-9.57V94c-1.76.77-3.39,1.58-5.08,2.22a71.14,71.14,0,0,1-18.12,3.83,126.39,126.39,0,0,1-27.36-.14C55.41,99.05,47.89,97.76,40.87,93.92Zm0-44.14c0,5.31,0,10.4,0,15.5a2.15,2.15,0,0,0,.71,1.48,18.47,18.47,0,0,0,3.46,2.31c6.27,2.87,13,4.05,19.78,4.54,6,.43,12,.53,18.05.45a80.72,80.72,0,0,0,21.11-3,25.06,25.06,0,0,0,7.93-3.46,3.17,3.17,0,0,0,1.68-2.7c0-4.73,0-9.47,0-14.2,0-.26,0-.52-.08-.81-1.19.57-2.25,1.15-3.37,1.61-8,3.32-16.44,4.31-25,4.89A123.83,123.83,0,0,1,67,56.24a95.9,95.9,0,0,1-15.27-2.3A38.63,38.63,0,0,1,40.87,49.78Zm36.35,2.58c4.58-.29,9.16-.48,13.72-.9a64.13,64.13,0,0,0,15.31-3.15,17,17,0,0,0,6.58-3.5c1-1,1-1.76,0-2.78a4.28,4.28,0,0,0-1-.83,52.71,52.71,0,0,0-6-2.81,76.32,76.32,0,0,0-20.78-3.53c-10.77-.55-21.49-.24-32,2.23-3.66.85-7.29,1.89-10.43,4.08-2.3,1.59-2.3,2.83-.05,4.44a24.11,24.11,0,0,0,7.52,3.31C59,51.48,68.05,52.13,77.22,52.36Z"/><path class="cls-3" d="M104.78,84.19a3.23,3.23,0,0,1-3.23,3.29,3.31,3.31,0,0,1-3.41-3.26,3.38,3.38,0,0,1,3.32-3.39A3.33,3.33,0,0,1,104.78,84.19Z"/><path class="cls-3" d="M104.79,106.27a3.37,3.37,0,0,1-3.28,3.3,3.43,3.43,0,0,1-3.37-3.34,3.29,3.29,0,0,1,3.36-3.31A3.24,3.24,0,0,1,104.79,106.27Z"/><path class="cls-3" d="M104.78,62.15a3.29,3.29,0,0,1-3.34,3.32,3.33,3.33,0,0,1,0-6.65A3.27,3.27,0,0,1,104.78,62.15Z"/></g></g></svg>