<svg xmlns="http://www.w3.org/2000/svg" viewBox="0 0 51.25 51.25"><defs><style>.cls-1{fill:#d41224;}.cls-2{fill:#fff;}</style></defs><title>icon_fb</title><g id="Layer_2" data-name="Layer 2"><g id="Layer_2-2" data-name="Layer 2"><circle class="cls-1" cx="25.63" cy="25.63" r="25.63"/><path class="cls-2" d="M26.87,37.18V26h4.77c.22,0,.29,0,.28-.28,0-1.5,0-3,0-4.51,0-.08,0-.16,0-.28h-5c0-.79,0-1.54,0-2.28a1.08,1.08,0,0,1,1.2-1.09H31.9v-5h-4a5,5,0,0,0-3,.94,6.46,6.46,0,0,0-2.7,4.42,25.55,25.55,0,0,0-.1,2.77v.31H18.46a1.54,1.54,0,0,0,0,.19c0,1.54,0,3.08,0,4.62,0,.21.09.24.26.24h3.46V37.42H26.9a2,2,0,0,1,0-.24"/></g></g></svg>