<svg xmlns="http://www.w3.org/2000/svg" viewBox="0 0 299.46 154.37"><defs><style>.cls-1{fill:#d32027;}.cls-2{fill:#fff;}</style></defs><title>mobilnost</title><g id="Layer_2" data-name="Layer 2"><g id="Layer_2-2" data-name="Layer 2"><rect class="cls-1" y="35.39" width="63.41" height="114.02" rx="12" ry="12"/><rect class="cls-1" x="87.44" width="212.02" height="154.37" rx="12" ry="12"/><path class="cls-2" d="M44.56,55.22A18.88,18.88,0,1,0,48,73.76l-17.8-6.24Z"/><path class="cls-2" d="M47.52,54.68,33.21,67,51,73.22A18.86,18.86,0,0,0,47.52,54.68Z"/><path class="cls-2" d="M171.53,51.14a40,40,0,1,0,7.39,39.28L141.21,77.2Z"/><path class="cls-2" d="M177.81,50,147.49,76.05,185.2,89.27A40,40,0,0,0,177.81,50Z"/><rect class="cls-2" x="208.5" y="89.9" width="8.12" height="27.28"/><rect class="cls-2" x="224.46" y="64.12" width="8.12" height="53.07"/><rect class="cls-2" x="240.41" y="58.69" width="8.12" height="58.5"/><rect class="cls-2" x="256.63" y="53.68" width="8.12" height="63.51"/><rect class="cls-2" x="272.87" y="37.19" width="8.12" height="80"/><rect class="cls-2" x="9.71" y="121.27" width="4.93" height="16.56"/><rect class="cls-2" x="19.39" y="105.62" width="4.93" height="32.21"/><rect class="cls-2" x="29.08" y="102.32" width="4.93" height="35.51"/><rect class="cls-2" x="38.92" y="99.28" width="4.93" height="38.55"/><rect class="cls-2" x="48.78" y="89.27" width="4.93" height="48.56"/></g></g></svg>