<?xml version="1.0" encoding="utf-8"?>
<!-- Generator: Adobe Illustrator 22.1.0, SVG Export Plug-In . SVG Version: 6.00 Build 0)  -->
<svg version="1.1" id="Layer_1" xmlns="http://www.w3.org/2000/svg" xmlns:xlink="http://www.w3.org/1999/xlink" x="0px" y="0px"
	 viewBox="0 0 227.1 227.1" style="enable-background:new 0 0 227.1 227.1;" xml:space="preserve">
<style type="text/css">
	.st0{fill:#D32027;}
</style>
<title>povezovanje</title>
<g id="Layer_2_1_">
	<g id="Layer_2-2">
		<path class="st0" d="M76.6,191c-9,0.1-17.8-3.1-24.6-9c-6.8-5.9-12.5-12.6-14.6-21.6c-3.3-13.6-0.3-25.8,9.5-35.9
			c8.9-9.2,18-18.1,27.1-27.1c7.4-7.6,17.8-11.7,28.4-11c9.2,0.4,17.9,4.2,24.3,10.7c2.3,2.2,4.5,4.6,6.6,7.2
			c2.7,3.2,2.4,8-0.8,10.8c-0.2,0.1-0.3,0.3-0.5,0.4c-3.5,2.7-8.1,1.8-11.1-1.8c-4-4.8-8.2-9.2-14.6-10.8c-7.9-2-15-0.5-20.8,5.2
			c-9.4,9.1-18.6,18.4-27.8,27.8c-8,8.3-8.1,21.4-0.2,29.8c3.3,3.5,6.6,7,11.4,8.6c8.6,2.8,16.4,1.3,23-5
			c5.7-5.5,11.2-11.1,16.8-16.7c3-3.1,7.9-3.1,11-0.2c1.1,1,1.8,2.4,2.2,3.8c0.7,2.6-0.1,5.3-2,7.1c-6,6.1-11.9,12.2-18.1,18
			C94.9,187.6,85.9,191.1,76.6,191z"/>
		<path class="st0" d="M151.4,36.1c9.7,0.2,19,4.1,25.9,10.9c5.6,5.3,10.2,11.2,12.2,18.7c3.6,13.5,1.1,25.8-8.5,36
			c-9.3,9.9-18.9,19.5-28.7,28.8c-15,14.2-38,13.5-52.5-1.1c-2.1-2-4-4.2-5.9-6.5c-2.8-3.2-2.4-8.1,0.8-10.8
			c0.1-0.1,0.3-0.2,0.4-0.3c3.5-2.7,8-1.9,11.1,1.5c2.7,3,5.4,6.1,8.7,8.3c8.6,5.7,20,4.6,27.2-2.8c9-9,18-18,27-27
			c8.5-8.5,8.6-22.3,0.1-30.8c-3.5-3.6-7.1-7-12.1-8.4c-8.2-2.2-15.6-0.5-21.7,5.4c-5.7,5.5-11.2,11.2-16.8,16.7
			c-2.9,3.1-7.8,3.3-10.9,0.4c-0.4-0.4-0.8-0.8-1.1-1.3c-2.2-2.8-2-6.7,0.3-9.3c6.9-7,13.7-14.1,21-20.5
			C134.3,38.3,142.3,36.1,151.4,36.1z"/>
	</g>
</g>
</svg>
