<svg xmlns="http://www.w3.org/2000/svg" viewBox="0 0 1280.17 1151.12"><defs><style>.cls-1{fill:#3c3c3b;}.cls-2{fill:#86869f;}.cls-3{fill:#9090a2;}.cls-4{fill:#8b8aa0;}.cls-5{fill:#fff;}</style></defs><title>space_spodaj_funkcije</title><g id="Layer_2" data-name="Layer 2"><g id="Layer_2-2" data-name="Layer 2"><path class="cls-1" d="M1280.17,1151.12V485.8c-28.81,25.27-57.61,50-107.6,47.43-57.3-3-125.64-42.42-162.84-19.05-15.62,9.81-13.87,26.21-20.19,39.74-14,30-69.82,44.53-123.27,41.74s-105.12-19.14-154.38-35.75c-35.87-12.1-73.11-24.86-112-26.91C496.2,527.54,435.58,597.33,335,604.48,223.79,612.37,86.39,543,2,583c-.67.31-1.32.65-2,1v567.12Z"/><path class="cls-1" d="M75.32,815.29h0m.07,0h0m0,0h0m0,0h0m0,0h0m0,0h0m0,0h0m0,0h0"/><path class="cls-2" d="M23,919.67a1.88,1.88,0,1,0,2.36-1.21A1.87,1.87,0,0,0,23,919.67"/><path class="cls-3" d="M17.09,762.14a1.88,1.88,0,1,0,2.36-1.2,1.87,1.87,0,0,0-2.36,1.2"/><path class="cls-4" d="M55.64,804.34A1.88,1.88,0,1,0,58,803.13a1.87,1.87,0,0,0-2.36,1.21"/><path class="cls-3" d="M189.49,693.72a1.87,1.87,0,1,0,3.56,1.15,1.87,1.87,0,0,0-3.56-1.15"/><path class="cls-3" d="M24.33,608.67a1.88,1.88,0,0,0,3.57,1.15,1.88,1.88,0,0,0-3.57-1.15"/><path class="cls-5" d="M22.07,1066.43,21,1065.29l-.06-.12-.3-1.55a.25.25,0,0,0-.41-.13l-1.14,1.08-.12.06-1.55.3a.25.25,0,0,0-.13.41l1.08,1.14.06.12.3,1.55a.25.25,0,0,0,.41.13l1.14-1.08.12-.06,1.55-.3a.25.25,0,0,0,.13-.41Z"/><path class="cls-5" d="M132,916.69l-1.08-1.14-.06-.13-.3-1.54a.24.24,0,0,0-.41-.13L129,914.83l-.12.06-1.55.29a.25.25,0,0,0-.13.42l1.08,1.14.06.12.3,1.55a.25.25,0,0,0,.41.13l1.14-1.08.12-.07,1.55-.29a.25.25,0,0,0,.13-.41Z"/><path class="cls-5" d="M20.46,692.49l-1.08-1.14-.07-.12L19,689.68a.25.25,0,0,0-.41-.13l-1.14,1.08-.12.06-1.55.3a.24.24,0,0,0-.13.41l1.08,1.15.06.12.3,1.54a.24.24,0,0,0,.41.13l1.14-1.08.12-.06,1.55-.3a.25.25,0,0,0,.13-.41Z"/><path class="cls-2" d="M76.89,1097.21a1.88,1.88,0,1,0,3.57,1.15,1.88,1.88,0,0,0-3.57-1.15"/><path class="cls-5" d="M160.55,583.84l-1.08-1.14-.07-.13-.29-1.54a.24.24,0,0,0-.41-.13L157.56,582l-.13.06-1.54.29a.25.25,0,0,0-.13.42l1.07,1.14.07.12.29,1.54a.26.26,0,0,0,.42.14l1.14-1.08.12-.07,1.54-.29a.25.25,0,0,0,.14-.41Z"/><path class="cls-5" d="M137.71,576.46l-1.07-1.14-.07-.12-.29-1.54a.25.25,0,0,0-.41-.14l-1.15,1.08-.12.06-1.54.3a.25.25,0,0,0-.14.41l1.08,1.14.07.12.29,1.55a.24.24,0,0,0,.41.13l1.15-1.08.12-.06,1.54-.29a.25.25,0,0,0,.13-.42Z"/><path class="cls-5" d="M460.45,678.33l-1.08-1.14-.06-.12-.3-1.55a.25.25,0,0,0-.41-.13l-1.14,1.08-.12.06-1.54.3a.25.25,0,0,0-.14.41l1.08,1.14.06.12.3,1.55a.25.25,0,0,0,.41.13l1.14-1.08.13-.06,1.54-.3a.24.24,0,0,0,.13-.41Z"/><path class="cls-5" d="M290.12,396.19,289,395l-.06-.12-.3-1.54a.24.24,0,0,0-.41-.13l-1.14,1.07-.12.07-1.54.29a.25.25,0,0,0-.14.41l1.08,1.15.06.12.3,1.54a.24.24,0,0,0,.41.13l1.14-1.07.13-.07,1.54-.29a.24.24,0,0,0,.13-.41Z"/><path class="cls-5" d="M269.85,694l-1.08-1.14-.07-.13-.29-1.54A.24.24,0,0,0,268,691l-1.14,1.08-.13.06-1.54.29a.25.25,0,0,0-.13.42l1.08,1.14.06.12.29,1.54a.25.25,0,0,0,.42.14l1.14-1.08.12-.07,1.54-.29a.25.25,0,0,0,.14-.41Z"/><path class="cls-5" d="M368.16,541.84l-1.08-1.14-.06-.12-.29-1.55a.25.25,0,0,0-.42-.13L365.17,540l-.12.06-1.54.3a.25.25,0,0,0-.14.41l1.08,1.14.07.12.29,1.55a.25.25,0,0,0,.41.13l1.14-1.08.13-.06,1.54-.3a.24.24,0,0,0,.13-.41Z"/><path class="cls-5" d="M532.1,463,531,461.9l-.06-.13-.3-1.54a.24.24,0,0,0-.41-.13l-1.14,1.08-.12.06-1.54.29a.25.25,0,0,0-.14.42l1.08,1.14.06.12.3,1.54a.25.25,0,0,0,.41.14l1.14-1.08.13-.07,1.54-.29a.24.24,0,0,0,.13-.41Z"/><path class="cls-5" d="M570.4,528.59l-1.08-1.14-.06-.13-.3-1.54a.24.24,0,0,0-.41-.13l-1.14,1.08-.12.06-1.55.29a.26.26,0,0,0-.13.42l1.08,1.14.06.12.3,1.55a.25.25,0,0,0,.41.13l1.14-1.08.12-.06,1.55-.3a.25.25,0,0,0,.13-.41Z"/><path class="cls-5" d="M458.84,304.39l-1.08-1.14-.06-.12-.3-1.55a.25.25,0,0,0-.41-.13l-1.14,1.08-.12.06-1.55.3a.24.24,0,0,0-.13.41l1.08,1.15.06.12.3,1.54a.24.24,0,0,0,.41.13l1.14-1.08.12-.06,1.55-.3a.25.25,0,0,0,.13-.41Z"/><path class="cls-5" d="M595.86,349.76l-1.08-1.14-.07-.13-.29-1.54a.25.25,0,0,0-.41-.13l-1.14,1.07-.13.07-1.54.3a.24.24,0,0,0-.13.41l1.08,1.14.06.13.29,1.54a.25.25,0,0,0,.42.13l1.14-1.08.12-.07,1.54-.29a.25.25,0,0,0,.14-.41Z"/><path class="cls-5" d="M440.75,896.05l-1.08-1.14-.06-.12-.29-1.55a.25.25,0,0,0-.42-.13l-1.14,1.08-.12.06-1.54.3a.25.25,0,0,0-.14.41L437,896.1l.07.12.29,1.54a.25.25,0,0,0,.41.14l1.14-1.08.13-.06,1.54-.3a.24.24,0,0,0,.13-.41Z"/><path class="cls-5" d="M232,566.22l-1.08-1.14-.07-.12-.29-1.55a.24.24,0,0,0-.41-.13L229,564.36l-.13.06-1.54.3a.24.24,0,0,0-.13.41l1.07,1.14.07.12.29,1.54a.25.25,0,0,0,.42.14l1.14-1.08.12-.06,1.54-.3a.25.25,0,0,0,.14-.41Z"/><path class="cls-5" d="M297,670.55l-1.08-1.14-.06-.12-.3-1.54a.25.25,0,0,0-.41-.14L294,668.69l-.12.07-1.55.29a.25.25,0,0,0-.13.41l1.08,1.14.06.13.3,1.54a.24.24,0,0,0,.41.13l1.14-1.08.13-.06,1.54-.29a.25.25,0,0,0,.13-.42Z"/><path class="cls-5" d="M274.14,663.18,273.06,662l-.06-.12-.3-1.55a.24.24,0,0,0-.41-.13l-1.14,1.08-.12.06-1.55.3a.24.24,0,0,0-.13.41l1.08,1.14.06.12.3,1.55a.25.25,0,0,0,.41.13l1.14-1.08.12-.06,1.55-.3a.25.25,0,0,0,.13-.41Z"/><path class="cls-5" d="M596.88,765.05l-1.08-1.14-.07-.13-.29-1.54a.24.24,0,0,0-.41-.13l-1.14,1.08-.13.06-1.54.29a.25.25,0,0,0-.13.42l1.08,1.14.06.12.29,1.55a.25.25,0,0,0,.42.13l1.14-1.08.12-.06,1.54-.3a.25.25,0,0,0,.14-.41Z"/><path class="cls-5" d="M426.55,482.9l-1.08-1.14-.07-.12-.29-1.54a.25.25,0,0,0-.41-.14L423.56,481l-.13.07-1.54.29a.24.24,0,0,0-.13.41l1.08,1.14.06.13.29,1.54a.25.25,0,0,0,.42.13l1.14-1.08.12-.06,1.54-.29a.25.25,0,0,0,.14-.42Z"/><path class="cls-5" d="M406.27,780.69l-1.08-1.14-.06-.13-.29-1.54a.25.25,0,0,0-.42-.13l-1.14,1.07-.12.07-1.54.29a.25.25,0,0,0-.14.42l1.08,1.14.06.12.3,1.54a.25.25,0,0,0,.41.14l1.14-1.08.13-.07,1.54-.29a.24.24,0,0,0,.13-.41Z"/><path class="cls-5" d="M504.59,628.56l-1.08-1.14-.06-.13-.3-1.54a.24.24,0,0,0-.41-.13l-1.14,1.08-.13.06-1.54.29a.25.25,0,0,0-.13.42l1.08,1.14.06.12.29,1.54a.25.25,0,0,0,.42.14l1.14-1.08.12-.06,1.54-.3a.25.25,0,0,0,.14-.41Z"/><path class="cls-5" d="M668.53,549.76l-1.08-1.14-.07-.13-.29-1.54a.24.24,0,0,0-.41-.13l-1.14,1.07-.13.07-1.54.29a.24.24,0,0,0-.13.41l1.07,1.14.07.13.29,1.54a.26.26,0,0,0,.42.14l1.14-1.08.12-.07,1.54-.29a.25.25,0,0,0,.14-.41Z"/><path class="cls-5" d="M706.82,615.31l-1.07-1.14-.07-.13-.29-1.54a.24.24,0,0,0-.41-.13l-1.14,1.08-.13.06-1.54.29a.26.26,0,0,0-.14.42l1.08,1.14.07.12.29,1.54a.25.25,0,0,0,.42.14l1.14-1.08.12-.07,1.54-.29a.24.24,0,0,0,.13-.41Z"/><path class="cls-5" d="M595.27,391.11,594.18,390l-.06-.12-.29-1.55a.24.24,0,0,0-.41-.13l-1.15,1.08-.12.06-1.54.29a.25.25,0,0,0-.13.42l1.07,1.14.07.12.29,1.54a.25.25,0,0,0,.42.14l1.13-1.08.13-.06,1.54-.3a.25.25,0,0,0,.14-.41Z"/><path class="cls-5" d="M732.28,436.48l-1.08-1.14-.06-.13-.3-1.54a.24.24,0,0,0-.41-.13l-1.14,1.07-.12.07-1.55.29a.25.25,0,0,0-.13.42l1.08,1.13.06.13.3,1.54a.25.25,0,0,0,.41.14l1.14-1.08.13-.07,1.54-.29a.25.25,0,0,0,.13-.41Z"/><path class="cls-5" d="M577.18,982.77l-1.08-1.14-.06-.13-.3-1.54a.24.24,0,0,0-.41-.13l-1.14,1.08-.13.06-1.54.29a.25.25,0,0,0-.13.42l1.08,1.14.06.12.29,1.54a.26.26,0,0,0,.42.14l1.14-1.08.12-.07,1.54-.29a.25.25,0,0,0,.14-.41Z"/><path class="cls-5" d="M368.4,652.94l-1.08-1.14-.06-.13-.3-1.54a.24.24,0,0,0-.41-.13l-1.14,1.08-.12.06-1.55.29a.25.25,0,0,0-.13.42l1.08,1.14.06.12.3,1.54a.25.25,0,0,0,.41.14l1.14-1.08.12-.07,1.55-.29a.25.25,0,0,0,.13-.41Z"/><polygon class="cls-5" points="228.01 536.57 231.14 545.2 239.77 542.07 236.64 533.44 228.01 536.57 228.01 536.57"/><path class="cls-5" d="M735.35,282.45l-1.08-1.14-.06-.12-.3-1.54a.25.25,0,0,0-.41-.14l-1.14,1.08-.12.07-1.54.29a.25.25,0,0,0-.14.41l1.08,1.14.06.13.3,1.54a.24.24,0,0,0,.41.13l1.14-1.08.13-.06,1.54-.29a.25.25,0,0,0,.13-.42Z"/><path class="cls-5" d="M712.52,275.08l-1.08-1.14-.06-.12-.3-1.55a.25.25,0,0,0-.41-.13l-1.14,1.08-.12.06-1.55.3a.25.25,0,0,0-.13.41l1.08,1.14.06.12.3,1.55a.25.25,0,0,0,.41.13l1.14-1.08.12-.06,1.55-.3a.25.25,0,0,0,.13-.41Z"/><path class="cls-5" d="M1035.26,377l-1.08-1.14-.07-.13-.29-1.54a.24.24,0,0,0-.41-.13l-1.14,1.08-.13.06-1.54.29a.25.25,0,0,0-.13.42l1.08,1.14.06.12.29,1.55a.25.25,0,0,0,.42.13l1.14-1.08.12-.06,1.54-.3a.25.25,0,0,0,.14-.41Z"/><path class="cls-5" d="M864.93,94.8l-1.08-1.14-.07-.12L863.49,92a.25.25,0,0,0-.41-.14l-1.14,1.08-.13.07-1.54.29a.24.24,0,0,0-.13.41l1.08,1.14.06.13.29,1.54a.25.25,0,0,0,.42.13l1.14-1.08.12-.06,1.54-.29a.25.25,0,0,0,.14-.42Z"/><path class="cls-5" d="M844.65,392.59l-1.08-1.14-.06-.13-.29-1.54a.25.25,0,0,0-.42-.13l-1.14,1.07-.12.07-1.54.29a.25.25,0,0,0-.14.42l1.08,1.14.06.12.3,1.54a.25.25,0,0,0,.41.14l1.14-1.08.13-.07,1.54-.29a.24.24,0,0,0,.13-.41Z"/><path class="cls-5" d="M943,240.46l-1.08-1.14-.06-.13-.3-1.54a.24.24,0,0,0-.41-.13L940,238.6l-.12.06-1.55.29a.25.25,0,0,0-.13.42l1.08,1.14.06.12.29,1.54a.25.25,0,0,0,.42.14l1.14-1.08.12-.06,1.54-.3a.25.25,0,0,0,.14-.41Z"/><path class="cls-5" d="M1106.91,161.66l-1.08-1.14-.07-.13-.29-1.54a.24.24,0,0,0-.41-.13l-1.14,1.07-.13.07-1.54.29a.24.24,0,0,0-.13.41l1.08,1.14.06.13.29,1.54a.26.26,0,0,0,.42.14l1.14-1.08.12-.07,1.54-.29a.25.25,0,0,0,.14-.41Z"/><path class="cls-5" d="M1145.21,227.21l-1.08-1.14-.07-.13-.29-1.54a.24.24,0,0,0-.41-.13l-1.14,1.08-.13.06-1.54.29a.25.25,0,0,0-.13.42l1.08,1.14.06.12.29,1.54a.25.25,0,0,0,.42.14l1.14-1.08.12-.07,1.54-.29a.25.25,0,0,0,.14-.41Z"/><path class="cls-5" d="M1033.65,3l-1.08-1.14-.07-.12L1032.21.2a.24.24,0,0,0-.41-.13l-1.15,1.08-.12.06L1029,1.5a.25.25,0,0,0-.13.42l1.07,1.14.07.12.29,1.54a.25.25,0,0,0,.42.14l1.13-1.08.13-.06,1.54-.3a.25.25,0,0,0,.14-.41Z"/><path class="cls-5" d="M1170.66,48.38l-1.08-1.14-.06-.13-.29-1.54a.25.25,0,0,0-.42-.13l-1.14,1.07-.12.07-1.55.29a.25.25,0,0,0-.13.42l1.08,1.13.06.13.3,1.54a.25.25,0,0,0,.41.14l1.14-1.08.13-.07,1.54-.29a.25.25,0,0,0,.13-.41Z"/><path class="cls-5" d="M1015.56,594.67l-1.08-1.14-.06-.13-.3-1.54a.24.24,0,0,0-.41-.13l-1.14,1.08-.13.06-1.54.29a.25.25,0,0,0-.13.42l1.08,1.14.06.12.29,1.54a.26.26,0,0,0,.42.14l1.14-1.08.12-.07,1.55-.29a.25.25,0,0,0,.13-.41Z"/><path class="cls-5" d="M806.78,264.84l-1.08-1.14-.06-.13-.29-1.54a.25.25,0,0,0-.42-.13L803.79,263l-.12.06-1.55.29a.25.25,0,0,0-.13.42l1.08,1.14.06.12.3,1.54a.25.25,0,0,0,.41.14l1.14-1.08.12-.07,1.55-.29a.24.24,0,0,0,.13-.41Z"/><polygon class="cls-5" points="666.39 148.47 669.52 157.1 678.15 153.97 675.02 145.34 666.39 148.47 666.39 148.47"/></g></g></svg>