<?xml version="1.0" encoding="utf-8"?>
<!-- Generator: Adobe Illustrator 22.1.0, SVG Export Plug-In . SVG Version: 6.00 Build 0)  -->
<svg version="1.1" id="Layer_1" xmlns="http://www.w3.org/2000/svg" xmlns:xlink="http://www.w3.org/1999/xlink" x="0px" y="0px"
	 viewBox="0 0 1280.2 670.7" style="enable-background:new 0 0 1280.2 670.7;" xml:space="preserve">
<style type="text/css">
	.st0{fill:#3C3C3B;}
	.st1{fill:#86869F;}
	.st2{fill:#9090A2;}
	.st3{fill:#8B8AA0;}
	.st4{fill:#FFFFFF;}
</style>
<title>space_spodaj_funkcije</title>
<g id="Layer_2_1_">
	<g id="Layer_2-2">
		<path class="st0" d="M1280.2,910.9V245.6c-28.8,25.3-57.6,50-107.6,47.4c-57.3-3-125.6-42.4-162.8-19
			c-15.6,9.8-13.9,26.2-20.2,39.7c-14,30-69.8,44.5-123.3,41.7s-105.1-19.1-154.4-35.8c-35.9-12.1-73.1-24.9-112-26.9
			c-103.7-5.5-164.3,64.3-264.9,71.5c-111.2,7.9-248.6-61.5-333-21.5c-0.7,0.3-1.3,0.7-2,1v567.1H1280.2z"/>
		<path class="st0" d="M75.3,575.1L75.3,575.1 M75.4,575.1L75.4,575.1 M75.4,575.1L75.4,575.1 M75.4,575.1L75.4,575.1 M75.4,575.1
			L75.4,575.1 M75.4,575.1L75.4,575.1 M75.4,575.1L75.4,575.1 M75.4,575.1L75.4,575.1"/>
		<path class="st1" d="M23,679.5c-0.3,1,0.2,2,1.2,2.4s2-0.2,2.4-1.2c0.3-1-0.2-2-1.2-2.4c0,0,0,0,0,0
			C24.4,677.9,23.3,678.5,23,679.5C23,679.5,23,679.5,23,679.5"/>
		<path class="st2" d="M17.1,521.9c-0.3,1,0.2,2,1.2,2.4s2-0.2,2.4-1.2c0.3-1-0.2-2-1.2-2.4c0,0,0,0,0,0
			C18.5,520.4,17.4,521,17.1,521.9C17.1,521.9,17.1,521.9,17.1,521.9"/>
		<path class="st3" d="M55.6,564.1c-0.3,1,0.2,2,1.2,2.4s2-0.2,2.4-1.2c0.3-1-0.2-2-1.2-2.4c0,0,0,0,0,0
			C57,562.6,56,563.1,55.6,564.1C55.6,564.1,55.6,564.1,55.6,564.1"/>
		<path class="st2" d="M189.5,453.5c-0.3,1,0.2,2,1.2,2.4c1,0.3,2-0.2,2.4-1.2s-0.2-2-1.2-2.4C190.9,452,189.8,452.5,189.5,453.5
			L189.5,453.5"/>
		<path class="st2" d="M24.3,368.5c-0.2,1,0.4,2,1.4,2.3c0.9,0.2,1.8-0.3,2.2-1.1c0.2-1-0.4-2-1.4-2.3
			C25.6,367.1,24.7,367.6,24.3,368.5"/>
		<path class="st4" d="M22.1,826.2l-1.1-1.1l-0.1-0.1l-0.3-1.6c0-0.1-0.2-0.2-0.3-0.2c0,0-0.1,0-0.1,0.1l-1.1,1.1l-0.1,0.1l-1.5,0.3
			c-0.1,0-0.2,0.2-0.2,0.3c0,0,0,0.1,0.1,0.1l1.1,1.1l0.1,0.1l0.3,1.6c0,0.1,0.2,0.2,0.3,0.2c0,0,0.1,0,0.1-0.1l1.1-1.1l0.1-0.1
			l1.5-0.3c0.1,0,0.2-0.2,0.2-0.3C22.1,826.3,22.1,826.3,22.1,826.2L22.1,826.2z"/>
		<path class="st4" d="M132,676.5l-1.1-1.1l-0.1-0.1l-0.3-1.5c0-0.1-0.1-0.2-0.3-0.2c-0.1,0-0.1,0-0.1,0.1l-1.1,1.1l-0.1,0.1
			l-1.6,0.3c-0.1,0-0.2,0.2-0.2,0.3c0,0,0,0.1,0.1,0.1l1.1,1.1l0.1,0.1l0.3,1.5c0,0.1,0.2,0.2,0.3,0.2c0,0,0.1,0,0.1-0.1l1.1-1.1
			l0.1-0.1l1.6-0.3c0.1,0,0.2-0.2,0.2-0.3C132,676.6,132,676.5,132,676.5L132,676.5z"/>
		<path class="st4" d="M20.5,452.3l-1.1-1.1l-0.1-0.1l-0.3-1.5c0-0.1-0.2-0.2-0.3-0.2c0,0-0.1,0-0.1,0.1l-1.1,1.1l-0.1,0.1l-1.6,0.3
			c-0.1,0-0.2,0.1-0.2,0.3c0,0.1,0,0.1,0.1,0.1l1.1,1.2l0.1,0.1l0.3,1.5c0,0.1,0.1,0.2,0.3,0.2c0.1,0,0.1,0,0.1-0.1l1.1-1.1l0.1-0.1
			l1.5-0.3c0.1,0,0.2-0.2,0.2-0.3C20.5,452.4,20.5,452.3,20.5,452.3L20.5,452.3z"/>
		<path class="st1" d="M76.9,857c-0.4,1,0.1,2.1,1,2.4s2.1-0.1,2.4-1c0-0.1,0.1-0.2,0.1-0.3c0.2-1-0.4-2-1.4-2.3
			C78.2,855.7,77.2,856.1,76.9,857"/>
		<path class="st4" d="M160.6,343.6l-1.1-1.1l-0.1-0.1l-0.3-1.5c0-0.1-0.1-0.2-0.3-0.2c-0.1,0-0.1,0-0.1,0.1l-1.1,1.1l-0.1,0.1
			l-1.5,0.3c-0.1,0-0.2,0.2-0.2,0.3c0,0,0,0.1,0.1,0.1l1.1,1.1l0.1,0.1l0.3,1.5c0,0.1,0.2,0.2,0.3,0.2c0,0,0.1,0,0.1-0.1l1.1-1.1
			l0.1-0.1l1.5-0.3c0.1,0,0.2-0.2,0.2-0.3C160.6,343.7,160.6,343.7,160.6,343.6L160.6,343.6z"/>
		<path class="st4" d="M137.7,336.3l-1.1-1.1l-0.1-0.1l-0.3-1.5c0-0.1-0.2-0.2-0.3-0.2c0,0-0.1,0-0.1,0.1l-1.1,1.1l-0.1,0.1
			l-1.5,0.3c-0.1,0-0.2,0.2-0.2,0.3c0,0,0,0.1,0.1,0.1l1.1,1.1l0.1,0.1l0.3,1.5c0,0.1,0.1,0.2,0.3,0.2c0.1,0,0.1,0,0.1-0.1l1.1-1.1
			l0.1-0.1l1.5-0.3c0.1,0,0.2-0.2,0.2-0.3C137.8,336.3,137.7,336.3,137.7,336.3z"/>
		<path class="st4" d="M460.5,438.1l-1.1-1.1l-0.1-0.1l-0.3-1.5c0-0.1-0.2-0.2-0.3-0.2c0,0-0.1,0-0.1,0.1l-1.1,1.1l-0.1,0.1
			l-1.5,0.3c-0.1,0-0.2,0.2-0.2,0.3c0,0,0,0.1,0.1,0.1l1.1,1.1l0.1,0.1l0.3,1.5c0,0.1,0.2,0.2,0.3,0.2c0,0,0.1,0,0.1-0.1l1.1-1.1
			l0.1-0.1l1.5-0.3c0.1,0,0.2-0.1,0.2-0.3C460.5,438.2,460.5,438.2,460.5,438.1z"/>
		<path class="st4" d="M290.1,156l-1.1-1.2l-0.1-0.1l-0.3-1.5c0-0.1-0.1-0.2-0.3-0.2c-0.1,0-0.1,0-0.1,0.1l-1.1,1.1l-0.1,0.1
			l-1.5,0.3c-0.1,0-0.2,0.2-0.2,0.3c0,0,0,0.1,0.1,0.1l1.1,1.1l0.1,0.1l0.3,1.5c0,0.1,0.1,0.2,0.3,0.2c0.1,0,0.1,0,0.1-0.1l1.1-1.1
			l0.1-0.1l1.5-0.3C290.1,156.3,290.2,156.2,290.1,156C290.1,156,290.1,156,290.1,156L290.1,156z"/>
		<path class="st4" d="M269.9,453.8l-1.1-1.1l-0.1-0.1l-0.3-1.5c0-0.1-0.1-0.2-0.2-0.3c-0.1,0-0.1,0-0.2,0.1l-1.1,1.1l-0.1,0.1
			l-1.5,0.3c-0.1,0-0.2,0.2-0.2,0.3c0,0,0,0.1,0.1,0.1l1.1,1.1l0.1,0.1l0.3,1.5c0,0.1,0.2,0.2,0.3,0.2c0.1,0,0.1,0,0.1-0.1l1.1-1.1
			l0.1-0.1l1.5-0.3C269.8,454.1,269.9,454,269.9,453.8C269.9,453.8,269.9,453.8,269.9,453.8L269.9,453.8z"/>
		<path class="st4" d="M368.2,301.6l-1.1-1.1l-0.1-0.1l-0.3-1.5c0-0.1-0.2-0.2-0.3-0.2c0,0-0.1,0-0.1,0.1l-1.1,1.1l-0.1,0.1
			l-1.5,0.3c-0.1,0-0.2,0.2-0.2,0.3c0,0,0,0.1,0.1,0.1l1.1,1.1l0.1,0.1l0.3,1.5c0,0.1,0.2,0.2,0.3,0.2c0,0,0.1,0,0.1-0.1l1.1-1.1
			l0.1-0.1l1.5-0.3c0.1,0,0.2-0.1,0.2-0.3C368.2,301.7,368.2,301.7,368.2,301.6L368.2,301.6z"/>
		<path class="st4" d="M532.1,222.8l-1.1-1.1l-0.1-0.1l-0.3-1.5c0-0.1-0.1-0.2-0.3-0.2c-0.1,0-0.1,0-0.1,0.1l-1.1,1.1L529,221
			l-1.5,0.3c-0.1,0-0.2,0.2-0.2,0.3c0,0.1,0,0.1,0.1,0.1l1.1,1.1l0.1,0.1l0.3,1.5c0,0.1,0.2,0.2,0.3,0.2c0,0,0.1,0,0.1-0.1l1.1-1.1
			l0.1-0.1l1.5-0.3c0.1,0,0.2-0.1,0.2-0.3C532.1,222.9,532.1,222.9,532.1,222.8L532.1,222.8z"/>
		<path class="st4" d="M570.4,288.4l-1.1-1.1l-0.1-0.1l-0.3-1.5c0-0.1-0.1-0.2-0.3-0.2c-0.1,0-0.1,0-0.1,0.1l-1.1,1.1l-0.1,0.1
			l-1.5,0.3c-0.1,0-0.2,0.2-0.2,0.3c0,0,0,0.1,0.1,0.1l1.1,1.1l0.1,0.1l0.3,1.5c0,0.1,0.2,0.2,0.3,0.2c0,0,0.1,0,0.1-0.1l1.1-1.1
			l0.1-0.1l1.5-0.3c0.1,0,0.2-0.2,0.2-0.3C570.4,288.5,570.4,288.4,570.4,288.4z"/>
		<path class="st4" d="M458.8,64.2l-1.1-1.1l-0.1-0.1l-0.3-1.5c0-0.1-0.2-0.2-0.3-0.2c0,0-0.1,0-0.1,0.1l-1.1,1.1l-0.1,0.1l-1.5,0.3
			c-0.1,0-0.2,0.1-0.2,0.3c0,0.1,0,0.1,0.1,0.1l1.1,1.1l0.1,0.1l0.3,1.5c0,0.1,0.1,0.2,0.3,0.2c0.1,0,0.1,0,0.1-0.1L457,65l0.1-0.1
			l1.5-0.3c0.1,0,0.2-0.2,0.2-0.3C458.9,64.3,458.9,64.2,458.8,64.2z"/>
		<path class="st4" d="M595.9,109.6l-1.1-1.1l-0.1-0.1l-0.3-1.5c0-0.1-0.2-0.2-0.3-0.2c0,0-0.1,0-0.1,0.1l-1.1,1.1l-0.1,0.1
			l-1.5,0.3c-0.1,0-0.2,0.1-0.2,0.3c0,0.1,0,0.1,0.1,0.1l1.1,1.1l0.1,0.1l0.3,1.5c0,0.1,0.2,0.2,0.3,0.2c0,0,0.1,0,0.1-0.1l1.1-1.1
			l0.1-0.1l1.5-0.3c0.1,0,0.2-0.2,0.2-0.3C595.9,109.6,595.9,109.6,595.9,109.6z"/>
		<path class="st4" d="M440.8,655.8l-1.1-1.1l-0.1-0.1l-0.3-1.5c0-0.1-0.2-0.2-0.3-0.2c0,0-0.1,0-0.1,0.1l-1.1,1.1l-0.1,0.1
			l-1.5,0.3c-0.1,0-0.2,0.2-0.2,0.3c0,0,0,0.1,0.1,0.1l1,1.1l0.1,0.1l0.3,1.5c0,0.1,0.2,0.2,0.3,0.2c0,0,0.1,0,0.1-0.1l1.1-1.1
			l0.1-0.1l1.5-0.3c0.1,0,0.2-0.1,0.2-0.3C440.8,655.9,440.7,655.9,440.8,655.8L440.8,655.8z"/>
		<path class="st4" d="M232,326l-1.1-1.1l-0.1-0.1l-0.3-1.5c0-0.1-0.1-0.2-0.3-0.2c-0.1,0-0.1,0-0.1,0.1l-1.1,1.1l-0.1,0.1l-1.5,0.3
			c-0.1,0-0.2,0.1-0.2,0.3c0,0.1,0,0.1,0.1,0.1l1.1,1.1l0.1,0.1l0.3,1.5c0,0.1,0.2,0.2,0.3,0.2c0.1,0,0.1,0,0.1-0.1l1.1-1.1l0.1-0.1
			l1.5-0.3c0.1,0,0.2-0.2,0.2-0.3C232,326.1,232,326.1,232,326L232,326z"/>
		<path class="st4" d="M297,430.3l-1.1-1.1l-0.1-0.1l-0.3-1.5c0-0.1-0.2-0.2-0.3-0.2c0,0-0.1,0-0.1,0.1l-1.2,1.1l-0.1,0.1l-1.5,0.3
			c-0.1,0-0.2,0.2-0.2,0.3c0,0,0,0.1,0.1,0.1l1.1,1.1l0.1,0.1l0.3,1.5c0,0.1,0.1,0.2,0.3,0.2c0.1,0,0.1,0,0.1-0.1l1.1-1.1l0.1-0.1
			l1.5-0.3c0.1,0,0.2-0.2,0.2-0.3C297,430.4,297,430.4,297,430.3L297,430.3z"/>
		<path class="st4" d="M274.1,423l-1.1-1.2l-0.1-0.1l-0.3-1.5c0-0.1-0.1-0.2-0.3-0.2c-0.1,0-0.1,0-0.1,0.1l-1.1,1.1l-0.1,0.1
			l-1.5,0.3c-0.1,0-0.2,0.1-0.2,0.3c0,0.1,0,0.1,0.1,0.1l1.1,1.1l0.1,0.1l0.3,1.5c0,0.1,0.2,0.2,0.3,0.2c0,0,0.1,0,0.1-0.1l1.1-1.1
			l0.1-0.1l1.5-0.3C274.1,423.3,274.2,423.2,274.1,423C274.2,423,274.2,423,274.1,423L274.1,423z"/>
		<path class="st4" d="M596.9,524.8l-1.1-1.1l-0.1-0.1l-0.3-1.5c0-0.1-0.1-0.2-0.3-0.2c-0.1,0-0.1,0-0.1,0.1l-1.1,1.1l-0.1,0.1
			l-1.5,0.3c-0.1,0-0.2,0.2-0.2,0.3c0,0,0,0.1,0.1,0.1l1.1,1.1l0.1,0.1l0.3,1.5c0,0.1,0.2,0.2,0.3,0.2c0,0,0.1,0,0.1-0.1l1.1-1.1
			l0.1-0.1l1.5-0.3c0.1,0,0.2-0.2,0.2-0.3C596.9,524.9,596.9,524.9,596.9,524.8z"/>
		<path class="st4" d="M426.5,242.7l-1.1-1.1l-0.1-0.1l-0.3-1.5c0-0.1-0.2-0.2-0.3-0.2c0,0-0.1,0-0.1,0.1l-1.1,1l-0.1,0.1l-1.5,0.3
			c-0.1,0-0.2,0.1-0.2,0.3c0,0.1,0,0.1,0.1,0.1l1.1,1.1l0.1,0.1l0.3,1.5c0,0.1,0.2,0.2,0.3,0.2c0,0,0.1,0,0.1-0.1l1.1-1.1l0.1-0.1
			l1.5-0.3C426.5,243.1,426.6,242.9,426.5,242.7C426.6,242.7,426.6,242.7,426.5,242.7L426.5,242.7z"/>
		<path class="st4" d="M406.3,540.5l-1.1-1.1l-0.1-0.1l-0.3-1.5c0-0.1-0.2-0.2-0.3-0.2c0,0-0.1,0-0.1,0.1l-1.1,1.1l-0.1,0.1
			l-1.5,0.3c-0.1,0-0.2,0.2-0.2,0.3c0,0.1,0,0.1,0.1,0.1l1.1,1.1l0.1,0.1l0.3,1.5c0,0.1,0.2,0.2,0.3,0.2c0,0,0.1,0,0.1-0.1l1.1-1.1
			l0.1-0.1l1.5-0.3c0.1,0,0.2-0.1,0.2-0.3C406.3,540.6,406.3,540.5,406.3,540.5L406.3,540.5z"/>
		<path class="st4" d="M504.6,388.4l-1.1-1.1l-0.1-0.1l-0.3-1.5c0-0.1-0.1-0.2-0.3-0.2c-0.1,0-0.1,0-0.1,0.1l-1.1,1.1l-0.1,0.1
			l-1.5,0.3c-0.1,0-0.2,0.2-0.2,0.3c0,0,0,0.1,0.1,0.1l1.1,1.1l0.1,0.1l0.3,1.5c0,0.1,0.2,0.2,0.3,0.2c0.1,0,0.1,0,0.1-0.1l1.1-1.1
			l0.1-0.1l1.5-0.3c0.1,0,0.2-0.2,0.2-0.3C504.6,388.4,504.6,388.4,504.6,388.4L504.6,388.4z"/>
		<path class="st4" d="M668.5,309.6l-1.1-1.1l-0.1-0.1l-0.3-1.5c0-0.1-0.1-0.2-0.3-0.2c-0.1,0-0.1,0-0.1,0.1l-1.1,1.1l-0.1,0.1
			l-1.5,0.3c-0.1,0-0.2,0.1-0.2,0.3c0,0.1,0,0.1,0.1,0.1l1.1,1.1l0.1,0.1l0.3,1.5c0,0.1,0.2,0.2,0.3,0.2c0,0,0.1,0,0.1-0.1l1.1-1.1
			l0.1-0.1l1.5-0.3c0.1,0,0.2-0.2,0.2-0.3C668.6,309.6,668.6,309.6,668.5,309.6z"/>
		<path class="st4" d="M706.8,375.1l-1.1-1.1l-0.1-0.1l-0.3-1.5c0-0.1-0.1-0.2-0.3-0.2c-0.1,0-0.1,0-0.1,0.1l-1.1,1.1l-0.1,0.1
			l-1.5,0.3c-0.1,0-0.2,0.2-0.2,0.3c0,0,0,0.1,0.1,0.1l1.1,1.1l0.1,0.1l0.3,1.5c0,0.1,0.2,0.2,0.3,0.2c0.1,0,0.1,0,0.1-0.1l1.1-1.1
			l0.1-0.1l1.5-0.3c0.1,0,0.2-0.1,0.2-0.3C706.9,375.2,706.9,375.1,706.8,375.1z"/>
		<path class="st4" d="M595.3,150.9l-1.1-1.1l-0.1-0.1l-0.3-1.5c0-0.1-0.1-0.2-0.3-0.2c-0.1,0-0.1,0-0.1,0.1l-1.2,1.1l-0.1,0.1
			l-1.5,0.3c-0.1,0-0.2,0.2-0.2,0.3c0,0,0,0.1,0.1,0.1l1.1,1.1l0.1,0.1l0.3,1.5c0,0.1,0.2,0.2,0.3,0.2c0.1,0,0.1,0,0.1-0.1l1.1-1.1
			l0.1-0.1l1.5-0.3c0.1,0,0.2-0.2,0.2-0.3C595.3,151,595.3,151,595.3,150.9L595.3,150.9z"/>
		<path class="st4" d="M732.3,196.3l-1.1-1.1l-0.1-0.1l-0.3-1.5c0-0.1-0.1-0.2-0.3-0.2c-0.1,0-0.1,0-0.1,0.1l-1.1,1.1l-0.1,0.1
			l-1.5,0.3c-0.1,0-0.2,0.2-0.2,0.3c0,0,0,0.1,0.1,0.1l1.1,1.1l0.1,0.1l0.3,1.5c0,0.1,0.2,0.2,0.3,0.2c0,0,0.1,0,0.1-0.1l1.1-1.1
			l0.1-0.1l1.5-0.3c0.1,0,0.2-0.2,0.2-0.3C732.3,196.3,732.3,196.3,732.3,196.3L732.3,196.3z"/>
		<path class="st4" d="M577.2,742.6l-1.1-1.1l-0.1-0.1l-0.3-1.5c0-0.1-0.1-0.2-0.3-0.2c-0.1,0-0.1,0-0.1,0.1l-1.1,1.1l-0.1,0.1
			l-1.5,0.3c-0.1,0-0.2,0.2-0.2,0.3c0,0,0,0.1,0.1,0.1l1.1,1.1l0.1,0.1l0.3,1.5c0,0.1,0.2,0.2,0.3,0.2c0,0,0.1,0,0.1-0.1l1.1-1.1
			l0.1-0.1l1.5-0.3c0.1,0,0.2-0.2,0.2-0.3C577.2,742.6,577.2,742.6,577.2,742.6z"/>
		<path class="st4" d="M368.4,412.7l-1.1-1.1l-0.1-0.1l-0.3-1.5c0-0.1-0.1-0.2-0.3-0.2c-0.1,0-0.1,0-0.1,0.1l-1.1,1.1l-0.1,0.1
			l-1.5,0.3c-0.1,0-0.2,0.2-0.2,0.3c0,0,0,0.1,0.1,0.1l1.1,1.1l0.1,0.1l0.3,1.5c0,0.1,0.2,0.2,0.3,0.2c0,0,0.1,0,0.1-0.1l1.1-1.1
			l0.1-0.1l1.5-0.3c0.1,0,0.2-0.2,0.2-0.3C368.4,412.8,368.4,412.8,368.4,412.7z"/>
		<polygon class="st4" points="228,296.4 231.1,305 239.8,301.9 236.6,293.2 228,296.4 		"/>
		<path class="st4" d="M735.3,42.2l-1.1-1.1l-0.1-0.1l-0.3-1.5c0-0.1-0.2-0.2-0.3-0.2c0,0-0.1,0-0.1,0.1l-1.1,1.1l-0.1,0.1l-1.5,0.3
			c-0.1,0-0.2,0.2-0.2,0.3c0,0,0,0.1,0.1,0.1l1.1,1.1l0.1,0.1L732,44c0,0.1,0.1,0.2,0.3,0.2c0.1,0,0.1,0,0.1-0.1l1.1-1.1l0.1-0.1
			l1.5-0.3c0.1,0,0.2-0.2,0.2-0.3C735.4,42.3,735.4,42.3,735.3,42.2z"/>
		<path class="st4" d="M712.5,34.9l-1.1-1.1l-0.1-0.1l-0.3-1.5c0-0.1-0.2-0.2-0.3-0.2c0,0-0.1,0-0.1,0.1l-1.1,1.1l-0.1,0.1l-1.5,0.3
			c-0.1,0-0.2,0.2-0.2,0.3c0,0,0,0.1,0.1,0.1l1.1,1.1l0.1,0.1l0.3,1.5c0,0.1,0.2,0.2,0.3,0.2c0,0,0.1,0,0.1-0.1l1.1-1.1l0.1-0.1
			l1.5-0.3c0.1,0,0.2-0.2,0.2-0.3C712.6,34.9,712.5,34.9,712.5,34.9z"/>
		<path class="st4" d="M1035.3,136.8l-1.1-1.1l-0.1-0.1l-0.3-1.5c0-0.1-0.1-0.2-0.3-0.2c-0.1,0-0.1,0-0.1,0.1l-1.1,1.1l-0.1,0.1
			l-1.5,0.3c-0.1,0-0.2,0.2-0.2,0.3c0,0,0,0.1,0.1,0.1l1.1,1.1l0.1,0.1l0.3,1.5c0,0.1,0.2,0.2,0.3,0.2c0,0,0.1,0,0.1-0.1l1.1-1.1
			l0.1-0.1l1.5-0.3c0.1,0,0.2-0.2,0.2-0.3C1035.3,136.9,1035.3,136.8,1035.3,136.8L1035.3,136.8z"/>
		<path class="st4" d="M864.9-145.4l-1.1-1.1l-0.1-0.1l-0.3-1.5c0-0.1-0.2-0.2-0.3-0.2c0,0-0.1,0-0.1,0.1l-1.1,1.1l-0.1,0.1
			l-1.5,0.3c-0.1,0-0.2,0.1-0.2,0.3c0,0.1,0,0.1,0.1,0.1l1.1,1.1l0.1,0.1l0.3,1.5c0,0.1,0.2,0.2,0.3,0.2c0,0,0.1,0,0.1-0.1l1.1-1.1
			l0.1-0.1l1.5-0.3c0.1,0,0.2-0.2,0.2-0.3C865-145.3,865-145.4,864.9-145.4z"/>
		<path class="st4" d="M844.7,152.4l-1.1-1.1l-0.1-0.1l-0.3-1.5c0-0.1-0.2-0.2-0.3-0.2c0,0-0.1,0-0.1,0.1l-1.1,1.1l-0.1,0.1
			l-1.5,0.3c-0.1,0-0.2,0.2-0.2,0.3c0,0.1,0,0.1,0.1,0.1l1.1,1.1l0.1,0.1l0.3,1.5c0,0.1,0.2,0.2,0.3,0.2c0,0,0.1,0,0.1-0.1l1.1-1.1
			l0.1-0.1l1.5-0.3c0.1,0,0.2-0.1,0.2-0.3C844.7,152.5,844.7,152.4,844.7,152.4L844.7,152.4z"/>
		<path class="st4" d="M943,0.3l-1.1-1.1L941.9-1l-0.3-1.5c0-0.1-0.1-0.2-0.3-0.2c-0.1,0-0.1,0-0.1,0.1L940-1.6l-0.1,0.1l-1.5,0.3
			c-0.1,0-0.2,0.2-0.2,0.3c0,0,0,0.1,0.1,0.1l1.1,1.1l0.1,0.1l0.3,1.5c0,0.1,0.2,0.2,0.3,0.2c0.1,0,0.1,0,0.1-0.1l1.1-1.1l0.1-0.1
			l1.5-0.3c0.1,0,0.2-0.2,0.2-0.3C943,0.3,943,0.3,943,0.3L943,0.3z"/>
		<path class="st4" d="M1106.9-78.5l-1.1-1.1l-0.1-0.1l-0.3-1.5c0-0.1-0.1-0.2-0.3-0.2c-0.1,0-0.1,0-0.1,0.1l-1.1,1.1l-0.1,0.1
			l-1.5,0.3c-0.1,0-0.2,0.1-0.2,0.3c0,0.1,0,0.1,0.1,0.1l1.1,1.1l0.1,0.1l0.3,1.5c0,0.1,0.2,0.2,0.3,0.2c0,0,0.1,0,0.1-0.1l1.1-1.1
			l0.1-0.1l1.5-0.3c0.1,0,0.2-0.2,0.2-0.3C1107-78.5,1106.9-78.5,1106.9-78.5L1106.9-78.5z"/>
		<path class="st4" d="M1145.2-13l-1.1-1.1l-0.1-0.1l-0.3-1.5c0-0.1-0.1-0.2-0.3-0.2c-0.1,0-0.1,0-0.1,0.1l-1.1,1.1l-0.1,0.1
			l-1.5,0.3c-0.1,0-0.2,0.2-0.2,0.3c0,0,0,0.1,0.1,0.1l1.1,1.1l0.1,0.1l0.3,1.5c0,0.1,0.2,0.2,0.3,0.2c0.1,0,0.1,0,0.1-0.1l1.1-1.1
			l0.1-0.1l1.5-0.3c0.1,0,0.2-0.2,0.2-0.3C1145.3-12.9,1145.2-13,1145.2-13L1145.2-13z"/>
		<path class="st4" d="M1033.7-237.2l-1.1-1.1l-0.1-0.1l-0.3-1.5c0-0.1-0.1-0.2-0.3-0.2c-0.1,0-0.1,0-0.1,0.1l-1.2,1.1l-0.1,0.1
			l-1.5,0.3c-0.1,0-0.2,0.2-0.2,0.3c0,0,0,0.1,0.1,0.1l1.1,1.1l0.1,0.1l0.3,1.5c0,0.1,0.2,0.2,0.3,0.2c0.1,0,0.1,0,0.1-0.1l1.1-1.1
			l0.1-0.1l1.5-0.3c0.1,0,0.2-0.2,0.2-0.3C1033.7-237.1,1033.7-237.2,1033.7-237.2L1033.7-237.2z"/>
		<path class="st4" d="M1170.7-191.8l-1.1-1.1l-0.1-0.1l-0.3-1.5c0-0.1-0.2-0.2-0.3-0.2c0,0-0.1,0-0.1,0.1l-1.1,1.1l-0.1,0.1
			l-1.6,0.3c-0.1,0-0.2,0.2-0.2,0.3c0,0,0,0.1,0.1,0.1l1.1,1.1l0.1,0.1l0.3,1.5c0,0.1,0.2,0.2,0.3,0.2c0,0,0.1,0,0.1-0.1l1.1-1.1
			l0.1-0.1l1.5-0.3c0.1,0,0.2-0.2,0.2-0.3C1170.7-191.8,1170.7-191.8,1170.7-191.8z"/>
		<path class="st4" d="M1015.6,354.5l-1.1-1.1l-0.1-0.1l-0.3-1.5c0-0.1-0.1-0.2-0.3-0.2c-0.1,0-0.1,0-0.1,0.1l-1.1,1.1l-0.1,0.1
			l-1.5,0.3c-0.1,0-0.2,0.2-0.2,0.3c0,0,0,0.1,0.1,0.1l1.1,1.1l0.1,0.1l0.3,1.5c0,0.1,0.2,0.2,0.3,0.2c0,0,0.1,0,0.1-0.1l1.1-1.1
			l0.1-0.1l1.5-0.3c0.1,0,0.2-0.2,0.2-0.3C1015.6,354.5,1015.6,354.5,1015.6,354.5z"/>
		<path class="st4" d="M806.8,24.6l-1.1-1.1l-0.1-0.1l-0.3-1.5c0-0.1-0.2-0.2-0.3-0.2c0,0-0.1,0-0.1,0.1l-1.1,1.1l-0.1,0.1l-1.5,0.3
			c-0.1,0-0.2,0.2-0.2,0.3c0,0,0,0.1,0.1,0.1l1.1,1.1l0.1,0.1l0.3,1.5c0,0.1,0.2,0.2,0.3,0.2c0,0,0.1,0,0.1-0.1l1.1-1.1l0.1-0.1
			l1.5-0.3c0.1,0,0.2-0.1,0.2-0.3C806.8,24.7,806.8,24.7,806.8,24.6L806.8,24.6z"/>
		<polygon class="st4" points="666.4,-91.7 669.5,-83.1 678.2,-86.2 675,-94.9 666.4,-91.7 		"/>
	</g>
</g>
</svg>
