<svg xmlns="http://www.w3.org/2000/svg" viewBox="0 0 1278.39 331.64"><defs><style>.cls-1{fill:#f2f2f2;}</style></defs><title>space_cloud</title><g id="Layer_2" data-name="Layer 2"><g id="Layer_2-2" data-name="Layer 2"><path class="cls-1" d="M1092.35,90.79c-74.2,53.3-201.74-15.8-301.71,2.48C700.15,109.82,649,195.71,555.09,197.89c-35.25.82-69.51-10.91-102.51-22C407.27,160.69,359.8,146,311.4,147.14s-98,22.53-109.18,58.51c-5,16.21-2.62,35.08-16.23,47.74-32.4,30.15-96.1-10-148-8.71a87.23,87.23,0,0,0-38,9.43v77.53H1278.39V0c-38.33,2.57-82.43.05-113,15.71C1131.33,33.16,1122.22,69.34,1092.35,90.79Z"/></g></g></svg>