<svg xmlns="http://www.w3.org/2000/svg" viewBox="0 0 1284.01 606.93"><defs><style>.cls-1,.cls-2{fill:#3c3c3b;}.cls-1{stroke:#3c3c3b;stroke-miterlimit:10;}</style></defs><title>bottom_2</title><g id="Layer_2" data-name="Layer 2"><g id="Layer_2-2" data-name="Layer 2"><rect class="cls-1" x="0.5" y="0.5" width="163.01" height="605.93"/><rect class="cls-1" x="165.8" y="0.5" width="157.07" height="605.93"/><rect class="cls-2" x="163.51" y="0.5" width="2.29" height="605.93"/><rect class="cls-1" x="326.06" y="0.5" width="157.77" height="605.93"/><rect class="cls-2" x="322.88" y="0.5" width="3.19" height="605.93"/><rect class="cls-1" x="485.43" y="0.5" width="156.81" height="605.93"/><rect class="cls-2" x="483.84" y="0.5" width="1.59" height="605.93"/><rect class="cls-1" x="646.39" y="0.5" width="157.77" height="605.93"/><rect class="cls-2" x="642.24" y="0.5" width="4.15" height="605.93"/><rect class="cls-1" x="804.79" y="0.5" width="156.81" height="605.93"/><rect class="cls-2" x="804.16" y="0.5" width="0.63" height="605.93"/><rect class="cls-1" x="966.71" y="0.5" width="154.25" height="605.93"/><rect class="cls-2" x="961.6" y="0.5" width="5.11" height="605.93"/><rect class="cls-1" x="1124.15" y="0.5" width="159.36" height="605.93"/><rect class="cls-2" x="1120.96" y="0.5" width="3.19" height="605.93"/></g></g></svg>