<svg xmlns="http://www.w3.org/2000/svg" viewBox="0 0 1254.84 286.2"><defs><style>.cls-1{fill:#3c3c3b;}</style></defs><title>1_1</title><g id="Layer_2" data-name="Layer 2"><g id="Layer_2-2" data-name="Layer 2"><polygon class="cls-1" points="1115.48 208.53 1112.29 208.53 1099.48 208.53 1099.48 150.53 958.04 150.53 952.92 150.53 948.04 150.53 948.04 40.61 785.49 40.61 785.49 124.62 637.71 124.62 635.71 124.62 635.71 78 473.16 78 473.16 150.53 321.39 150.53 321.39 103.5 163.01 103.5 163.01 0 0 0 0 286.2 161.13 286.2 163.01 286.2 317.39 286.2 318.2 286.2 321.39 286.2 474.76 286.2 475.16 286.2 476.76 286.2 630.71 286.2 631.56 286.2 633.56 286.2 637.71 286.2 786.12 286.2 788.49 286.2 795.49 286.2 796.12 286.2 942.04 286.2 942.92 286.2 952.92 286.2 958.04 286.2 1095.48 286.2 1096.29 286.2 1112.29 286.2 1115.48 286.2 1254.84 286.2 1254.84 208.53 1115.48 208.53"/></g></g></svg>