<svg xmlns="http://www.w3.org/2000/svg" viewBox="0 0 1281.57 520.64"><defs><style>.cls-1{fill:#3c3c3b;}.cls-2{fill:#86869f;}.cls-3{fill:#9090a2;}.cls-4{fill:#8b8aa0;}.cls-5{fill:#fff;}</style></defs><title>SPACE_F2_1</title><g id="Layer_2" data-name="Layer 2"><g id="Layer_2-2" data-name="Layer 2"><path class="cls-1" d="M1.4,60.28l.34-.06.13-.06L3,59.07a.25.25,0,0,1,.41.14l.29,1.55.07.12L4.86,62a.25.25,0,0,1-.13.42l-1.55.3-.12.06L1.92,63.86a.24.24,0,0,1-.42-.13l-.1-.55V520.64H1281.57V0H1.4Zm575.22,72.79,1.54-.3.13-.06,1.14-1.08a.25.25,0,0,1,.41.14l.29,1.54.07.12,1.08,1.14a.26.26,0,0,1-.14.42l-1.54.29-.13.06-1.14,1.08a.24.24,0,0,1-.41-.13l-.29-1.54-.07-.13-1.07-1.14A.24.24,0,0,1,576.62,133.07Zm-19.7,217.72,1.54-.3.13-.06,1.14-1.08a.25.25,0,0,1,.41.13l.3,1.55.06.12,1.08,1.14a.25.25,0,0,1-.14.41l-1.54.3-.12.06-1.14,1.08a.26.26,0,0,1-.42-.13l-.29-1.54-.06-.13-1.08-1.14A.24.24,0,0,1,556.92,350.79ZM440.19,46.35l1.55-.29.12-.07L443,44.91a.25.25,0,0,1,.41.14l.3,1.54.06.12,1.08,1.14a.25.25,0,0,1-.13.42l-1.55.29-.12.07-1.14,1.07a.24.24,0,0,1-.41-.13L441.2,48l-.06-.13-1.08-1.14A.25.25,0,0,1,440.19,46.35ZM420.5,264.07l1.54-.29.12-.07,1.14-1.08a.25.25,0,0,1,.42.14l.29,1.54.06.12,1.08,1.14a.25.25,0,0,1-.13.42l-1.54.29-.13.06-1.14,1.08a.24.24,0,0,1-.41-.13l-.29-1.54-.07-.13-1.08-1.14A.25.25,0,0,1,420.5,264.07ZM386,148.71l1.54-.3.12-.06,1.14-1.08a.24.24,0,0,1,.41.13l.3,1.55.06.12,1.08,1.14a.24.24,0,0,1-.13.41l-1.55.3-.12.06-1.14,1.08a.25.25,0,0,1-.41-.13l-.3-1.55-.06-.12-1.08-1.14A.25.25,0,0,1,386,148.71ZM348.14,21l1.55-.3.12-.06L351,19.52a.25.25,0,0,1,.41.13l.3,1.55.06.12,1.08,1.14a.26.26,0,0,1-.13.42l-1.55.29-.12.06-1.14,1.08a.24.24,0,0,1-.41-.13l-.3-1.55-.06-.12L348,21.37A.24.24,0,0,1,348.14,21ZM276.71,38.57l1.55-.29.12-.06,1.14-1.08a.24.24,0,0,1,.41.13l.3,1.54.06.13,1.08,1.14a.24.24,0,0,1-.13.41l-1.55.3-.12.06-1.14,1.08a.25.25,0,0,1-.41-.14l-.3-1.54-.06-.12L276.58,39A.26.26,0,0,1,276.71,38.57ZM253.88,31.2l1.54-.29.13-.07,1.14-1.08a.25.25,0,0,1,.41.14l.3,1.54.06.12,1.08,1.14a.25.25,0,0,1-.14.42l-1.54.29-.12.06-1.14,1.08a.24.24,0,0,1-.41-.13l-.3-1.54-.06-.13-1.08-1.14A.24.24,0,0,1,253.88,31.2ZM249.59,62l1.54-.3.13-.06,1.14-1.08a.25.25,0,0,1,.41.14l.29,1.54.07.12,1.08,1.14a.25.25,0,0,1-.14.42l-1.54.29-.12.06-1.14,1.08a.25.25,0,0,1-.42-.13l-.29-1.54-.06-.13-1.08-1.14A.24.24,0,0,1,249.59,62Zm-75.71,1.26a1.88,1.88,0,1,1,1.21,2.36A1.87,1.87,0,0,1,173.88,63.25ZM111.76,284.71l1.55-.29.12-.07,1.14-1.08a.25.25,0,0,1,.41.14l.3,1.54.06.12,1.08,1.14a.25.25,0,0,1-.14.42l-1.54.29-.12.06-1.14,1.08a.24.24,0,0,1-.41-.13l-.3-1.54-.06-.13-1.08-1.14A.24.24,0,0,1,111.76,284.71Zm-50.47,182a1.88,1.88,0,1,1,1.21,2.37A1.87,1.87,0,0,1,61.29,466.73ZM59.92,184.85h0Zm0,0h0Zm0,0h0Zm0,0h0Zm0,0h0Zm0,0h0Zm0,0h0ZM40,173.86a1.88,1.88,0,1,1,1.21,2.36A1.88,1.88,0,0,1,40,173.86ZM7.42,289.19a1.88,1.88,0,1,1,1.21,2.36A1.87,1.87,0,0,1,7.42,289.19Zm-2,145.62L6.47,436a.25.25,0,0,1-.13.42l-1.55.29-.12.07L3.53,437.8a.24.24,0,0,1-.41-.13l-.3-1.54L2.76,436l-1.08-1.14a.25.25,0,0,1,.13-.41l1.55-.29.12-.07L4.62,433a.25.25,0,0,1,.41.14l.3,1.54Zm-.33-302a1.88,1.88,0,1,1-3.57-1.15,1.88,1.88,0,1,1,3.57,1.15Z"/><path class="cls-2" d="M8.63,291.55a1.87,1.87,0,1,0-1.21-2.36A1.88,1.88,0,0,0,8.63,291.55Z"/><path class="cls-3" d="M3.85,130.46A1.88,1.88,0,1,0,2.7,134a1.88,1.88,0,0,0,1.15-3.57Z"/><path class="cls-4" d="M41.25,176.22A1.88,1.88,0,1,0,40,173.86,1.87,1.87,0,0,0,41.25,176.22Z"/><path class="cls-3" d="M175.09,65.61a1.88,1.88,0,1,0-1.21-2.36A1.88,1.88,0,0,0,175.09,65.61Z"/><path class="cls-5" d="M4.62,433l-1.14,1.08-.12.07-1.55.29a.25.25,0,0,0-.13.41L2.76,436l.06.13.3,1.54a.24.24,0,0,0,.41.13l1.14-1.07.12-.07,1.55-.29a.25.25,0,0,0,.13-.42l-1.08-1.14-.06-.12L5,433.15A.25.25,0,0,0,4.62,433Z"/><path class="cls-5" d="M112.71,286.26l.06.13.3,1.54a.24.24,0,0,0,.41.13l1.14-1.08.12-.06,1.54-.29a.25.25,0,0,0,.14-.42l-1.08-1.14-.06-.12-.3-1.54a.25.25,0,0,0-.41-.14l-1.14,1.08-.12.07-1.55.29a.24.24,0,0,0-.13.41Z"/><path class="cls-5" d="M.2,60.51a.24.24,0,0,0-.13.41l1.08,1.15.06.12.19,1v-2.9Z"/><path class="cls-5" d="M1.92,63.86l1.14-1.07.12-.06,1.55-.3A.25.25,0,0,0,4.86,62L3.78,60.88l-.07-.12-.29-1.55A.25.25,0,0,0,3,59.07L1.87,60.16l-.13.06-.34.06v2.9l.1.55A.24.24,0,0,0,1.92,63.86Z"/><path class="cls-2" d="M62.5,469.1a1.88,1.88,0,1,0-1.21-2.37A1.89,1.89,0,0,0,62.5,469.1Z"/><path class="cls-5" d="M441.14,47.9l.06.13.3,1.54a.24.24,0,0,0,.41.13l1.14-1.07.12-.07,1.55-.29a.25.25,0,0,0,.13-.42l-1.08-1.14-.06-.12-.3-1.54a.25.25,0,0,0-.41-.14L441.86,46l-.12.07-1.55.29a.25.25,0,0,0-.13.41Z"/><path class="cls-5" d="M250.54,63.54l.06.13.29,1.54a.25.25,0,0,0,.42.13l1.14-1.08.12-.06,1.54-.29a.25.25,0,0,0,.14-.42l-1.08-1.14-.07-.12-.29-1.54a.25.25,0,0,0-.41-.14l-1.14,1.08-.13.06-1.54.3a.24.24,0,0,0-.13.41Z"/><path class="cls-5" d="M421.44,265.62l.07.13.29,1.54a.24.24,0,0,0,.41.13l1.14-1.08.13-.06L425,266a.25.25,0,0,0,.13-.42l-1.08-1.14-.06-.12-.29-1.54a.25.25,0,0,0-.42-.14l-1.14,1.08-.12.07-1.54.29a.25.25,0,0,0-.14.41Z"/><path class="cls-5" d="M277.66,40.13l.06.12.3,1.54a.25.25,0,0,0,.41.14l1.14-1.08.12-.06,1.55-.3a.24.24,0,0,0,.13-.41l-1.08-1.14-.06-.13-.3-1.54a.24.24,0,0,0-.41-.13l-1.14,1.08-.12.06-1.55.29a.26.26,0,0,0-.13.42Z"/><path class="cls-5" d="M254.83,32.75l.06.13.3,1.54a.24.24,0,0,0,.41.13l1.14-1.08.12-.06,1.54-.29a.25.25,0,0,0,.14-.42l-1.08-1.14-.06-.12-.3-1.54a.25.25,0,0,0-.41-.14l-1.14,1.08-.13.07-1.54.29a.24.24,0,0,0-.13.41Z"/><path class="cls-5" d="M577.56,134.62l.07.13.29,1.54a.24.24,0,0,0,.41.13l1.14-1.08.13-.06,1.54-.29a.26.26,0,0,0,.14-.42l-1.08-1.14-.07-.12-.29-1.54a.25.25,0,0,0-.41-.14l-1.14,1.08-.13.06-1.54.3a.24.24,0,0,0-.13.41Z"/><path class="cls-5" d="M387,150.26l.06.12.3,1.55a.25.25,0,0,0,.41.13l1.14-1.08.12-.06,1.55-.3a.24.24,0,0,0,.13-.41l-1.08-1.14-.06-.12-.3-1.55a.24.24,0,0,0-.41-.13l-1.14,1.08-.12.06-1.54.3a.25.25,0,0,0-.14.41Z"/><path class="cls-5" d="M557.87,352.34l.06.13.29,1.54a.26.26,0,0,0,.42.13l1.14-1.08.12-.06,1.54-.3a.25.25,0,0,0,.14-.41l-1.08-1.14-.06-.12-.3-1.55a.25.25,0,0,0-.41-.13l-1.14,1.08-.13.06-1.54.3a.24.24,0,0,0-.13.41Z"/><path class="cls-5" d="M349.09,22.51l.06.12.3,1.55a.24.24,0,0,0,.41.13L351,23.23l.12-.06,1.55-.29a.26.26,0,0,0,.13-.42l-1.08-1.14-.06-.12-.3-1.55a.25.25,0,0,0-.41-.13l-1.14,1.08-.12.06-1.55.3a.24.24,0,0,0-.13.41Z"/></g></g></svg>