<svg xmlns="http://www.w3.org/2000/svg" viewBox="0 0 607.92 607.92"><defs><style>.cls-1{fill:#d41224;}.cls-2{fill:#bf172a;}</style></defs><title>big_red</title><g id="Layer_2" data-name="Layer 2"><g id="Layer_2-2" data-name="Layer 2"><path class="cls-1" d="M0,304C0,466.52,127.59,599.3,288.12,607.53c5.26.27,10.51.39,15.84.39,167.88,0,304-136.08,304-304A304,304,0,0,0,304,0C136.08,0,0,136.08,0,304Z"/><path class="cls-2" d="M395.12,366.79a34.9,34.9,0,1,0,34.9-34.9,34.9,34.9,0,0,0-34.9,34.9Z"/><path class="cls-2" d="M291.94,65.59a17.46,17.46,0,1,0,17.44-17.47,17.44,17.44,0,0,0-17.44,17.47Z"/><path class="cls-2" d="M136.81,50.21a302.19,302.19,0,0,0-59.9,180.62C76.91,393.4,204.52,526.17,365,534.4c5.27.28,10.52.4,15.83.4A302.54,302.54,0,0,0,548,484.6C492.64,559.3,404.09,607.92,304,607.92c-5.32,0-10.58-.12-15.84-.39C127.59,599.3,0,466.52,0,304,0,197.86,54.43,104.58,136.81,50.21Z"/></g></g></svg>