<svg xmlns="http://www.w3.org/2000/svg" viewBox="0 0 307.1 310.13"><defs><style>.cls-1{fill:#f6f7f9;}.cls-2{fill:#e2e2e2;}</style></defs><title>small_gray</title><g id="Layer_2" data-name="Layer 2"><g id="Layer_2-2" data-name="Layer 2"><circle class="cls-1" cx="153.55" cy="153.55" r="153.55"/><path class="cls-2" d="M68.14,26.7a155.63,155.63,0,0,0-29.83,91.79c0,82.62,63.56,150.09,143.51,154.28,2.62.14,5.24.2,7.88.2A148.51,148.51,0,0,0,273,247.45c-27.59,38-71.69,62.68-121.56,62.68-2.65,0-5.27-.06-7.9-.2C63.55,305.75,0,238.27,0,155.66a155.08,155.08,0,0,1,68.14-129Z"/><circle class="cls-2" cx="145.11" cy="18.27" r="3.96"/><circle class="cls-2" cx="179.09" cy="229.78" r="14.3"/><circle class="cls-2" cx="79.38" cy="127.54" r="7.92"/></g></g></svg>