<svg xmlns="http://www.w3.org/2000/svg" viewBox="0 0 102.99 104.01"><defs><style>.cls-1{fill:#f6f7f9;}.cls-2{fill:#e2e2e2;}</style></defs><title>contact_moon</title><g id="Layer_2" data-name="Layer 2"><g id="Layer_2-2" data-name="Layer 2"><circle class="cls-1" cx="51.5" cy="51.5" r="51.5"/><path class="cls-2" d="M22.85,9a52.27,52.27,0,0,0-10,30.79c0,27.71,21.31,50.34,48.13,51.74.88,0,1.76.07,2.64.07A49.76,49.76,0,0,0,91.54,83a50.33,50.33,0,0,1-40.77,21c-.88,0-1.76,0-2.64-.07C21.31,102.54,0,79.91,0,52.2A52,52,0,0,1,22.85,9Z"/><circle class="cls-2" cx="48.67" cy="6.13" r="1.33"/><circle class="cls-2" cx="60.06" cy="77.06" r="4.8"/><circle class="cls-2" cx="26.62" cy="42.78" r="2.65"/></g></g></svg>