<svg xmlns="http://www.w3.org/2000/svg" viewBox="0 0 293.53 149.22"><defs><style>.cls-1{fill:#d41224;}.cls-2{fill:#bf172a;}.cls-3{fill:#ee7c8c;}</style></defs><title>contact_saturn</title><g id="Layer_2" data-name="Layer 2"><g id="Layer_2-2" data-name="Layer 2"><path class="cls-1" d="M167,2.75a74.59,74.59,0,1,1-91.9,51.82A74.69,74.69,0,0,1,167,2.75Z"/><path class="cls-2" d="M149.75.13a74.47,74.47,0,0,0,16.42,146.46A74.53,74.53,0,1,1,149.75.13Z"/><path class="cls-3" d="M.36,38.51c-1.59,5.76,2.17,12.18,9.92,19,12.65,11.05,36,23,64,33.89a647.62,647.62,0,0,0,63.26,21c21.18,5.91,42.69,10.89,62.71,14.38,48.75,8.63,88.63,8.77,92.9-6.6,5.08-18.29-41.83-40.13-71.9-52.09a61.33,61.33,0,0,1,.29,8.27c49.93,20.24,65.91,36,64.32,41.78-1.89,6.71-29.37,10.42-79.82,2a645.19,645.19,0,0,1-66.46-15,650.39,650.39,0,0,1-66.8-22.34C26.77,64.11,5.83,47.12,7.69,40.53c1.55-5.65,22.76-10.85,74.47-2.76a53.73,53.73,0,0,1,4.52-7C55.57,25.73,5.37,20.57.36,38.51Z"/></g></g></svg>