<?xml version="1.0" encoding="utf-8"?>
<!-- Generator: Adobe Illustrator 22.1.0, SVG Export Plug-In . SVG Version: 6.00 Build 0)  -->
<svg version="1.1" id="Layer_1" xmlns="http://www.w3.org/2000/svg" xmlns:xlink="http://www.w3.org/1999/xlink" x="0px" y="0px"
	 viewBox="0 0 1283 1097" style="enable-background:new 0 0 1283 1097;" xml:space="preserve">
<style type="text/css">
	.st0{fill:#F2F2F2;}
	.st1{fill:#3C3C3B;}
</style>
<title>bg_spodaj</title>
<rect class="st0" width="1283" height="627"/>
<g id="Layer_2_1_">
	<g id="Layer_2-2">
		<polygon class="st1" points="1123.7,608.5 1123.7,550.5 966.2,550.5 966.2,440.6 803.7,440.6 803.7,524.6 645.9,524.6 645.9,478 
			483.3,478 483.3,550.5 325.6,550.5 325.6,503.5 165.3,503.5 165.3,400 0,400 0,1292.1 163,1292.1 165.3,1292.1 322.4,1292.1 
			325.6,1292.1 483.3,1292.1 484.9,1292.1 641.7,1292.1 645.9,1292.1 803.7,1292.1 804.3,1292.1 961.1,1292.1 966.2,1292.1 
			1120.5,1292.1 1123.7,1292.1 1283,1292.1 1283,608.5 		"/>
	</g>
</g>
</svg>
