<svg xmlns="http://www.w3.org/2000/svg" viewBox="0 0 468.69 402.16"><defs><style>.cls-1{fill:#bf172a;}.cls-2{fill:#d41224;}</style></defs><title>graf_rdec</title><g id="Layer_2" data-name="Layer 2"><g id="Layer_2-2" data-name="Layer 2"><path class="cls-1" d="M356.63,89.33a189.27,189.27,0,0,0-81-56.22C176.86-2.39,68,48.93,32.49,147.73S48.3,355.41,147.1,390.91,354.78,375.1,390.28,276.29L211.57,212.08Z"/><path class="cls-1" d="M426.19,83,278.72,202.79l177.41,67.75A190,190,0,0,0,426.19,83Z"/><path class="cls-2" d="M334.43,66.34A189.23,189.23,0,0,0,253,10.75C154-24,45.48,28.19,10.75,127.27S28.19,334.81,127.27,369.54,334.81,352.11,369.54,253L190.33,190.21Z"/><path class="cls-2" d="M409.26,53.4,265.16,177.27l179.21,62.82A190,190,0,0,0,409.26,53.4Z"/></g></g></svg>