<svg xmlns="http://www.w3.org/2000/svg" viewBox="0 0 550.96 510.87"><defs><style>.cls-1{fill:#e2e2e2;}.cls-2{fill:#e81e25;}.cls-3{fill:#d41224;}.cls-4{fill:none;stroke:#e2e2e2;stroke-miterlimit:10;stroke-width:6px;}</style></defs><title>powerbi</title><g id="Layer_2" data-name="Layer 2"><g id="Layer_2-2" data-name="Layer 2"><path class="cls-1" d="M257.31,129.38A43.08,43.08,0,0,1,302.86,104a43.06,43.06,0,0,1,36.81,40.77c4.51,1.61,8.92,2.71,12.9,4.68a38.49,38.49,0,0,1,21.06,37.8,39.13,39.13,0,0,1-30.41,34.57,43,43,0,0,1-9,1q-62.82.09-125.62,0c-16.85,0-30.38-11.29-33.45-27.89-3.35-18.05,9.9-36.3,28.06-38.65a36.91,36.91,0,0,1,5.25-.32,1.78,1.78,0,0,0,2-1.51c4.28-13,13-21.5,26.2-25.27A36.36,36.36,0,0,1,255.8,129Zm14.29,86.67q31,0,62,0a42.63,42.63,0,0,0,6.39-.45c14.07-2.16,25.86-14.72,26.92-28.58,1.37-17.94-10.65-32.73-28.49-35a6,6,0,0,1-5.46-6,48,48,0,0,0-.4-5.09,36.16,36.16,0,0,0-69.29-8c-1.42,3.56-3.36,4.48-7,3.29A28.77,28.77,0,0,0,241.66,135c-13.38,2.6-21.84,10.57-25.35,23.75-.81,3-2.52,4.23-5.63,4a31.85,31.85,0,0,0-5.26,0A26.71,26.71,0,0,0,208.14,216C229.29,216.09,250.45,216.05,271.6,216.05Z"/><ellipse class="cls-1" cx="38.72" cy="9.45" rx="38.72" ry="9.45"/><path class="cls-1" d="M38.72,22.83C17.34,22.83,0,18.6,0,13.39v24.8c0,5.21,17.34,9.44,38.72,9.44s38.73-4.23,38.73-9.44V13.39C77.45,18.6,60.11,22.83,38.72,22.83Z"/><path class="cls-1" d="M0,13.28v.11s0-.07,0-.11Z"/><path class="cls-1" d="M77.44,13.28s0,.07,0,.11v-.11Z"/><path class="cls-1" d="M38.72,51.62C17.34,51.62,0,47.39,0,42.17V67c0,5.22,17.34,9.45,38.72,9.45S77.45,72.19,77.45,67V42.17C77.45,47.39,60.11,51.62,38.72,51.62Z"/><path class="cls-1" d="M0,42.07v.1s0-.07,0-.1Z"/><path class="cls-1" d="M77.44,42.07s0,.07,0,.1v-.1Z"/><path class="cls-1" d="M38.72,79.5C17.34,79.5,0,75.27,0,70.05v24.8c0,5.21,17.34,9.44,38.72,9.44s38.73-4.23,38.73-9.44V70.05C77.45,75.27,60.11,79.5,38.72,79.5Z"/><path class="cls-1" d="M0,69.94v.11s0-.07,0-.11Z"/><path class="cls-1" d="M77.44,69.94s0,.08,0,.11v-.11Z"/><path class="cls-1" d="M515.27.57a.92.92,0,0,0,.22.18c3.61,1.18,5.58,3.94,5.86,8.39H523c1.53,0,3.05.06,4.58,0,.81,0,1.19.22,1.4,1.16.3,1.34.73,2.63,1.12,4H541a19,19,0,0,1,3.92.18c3.61.8,6.07,4.37,6.07,8.67q0,21.2,0,42.37,0,17.93,0,35.85c0,4.46-2.33,7.81-6,8.69a6.2,6.2,0,0,1-1.36.12q-29.54,0-59.06,0c-4.13,0-7.33-3.7-7.33-8.52q0-39.37,0-78.75c0-5,3.18-8.6,7.44-8.61,4.43,0,8.85,0,13.37,0,.34-1.32.71-2.62,1-3.95.19-.89.52-1.25,1.37-1.21,2.06.09,4.14,0,6.25,0A9,9,0,0,1,510.07,2,18.44,18.44,0,0,1,512.71.57ZM497.11,17.7H484.94c-3,0-4.8,2.09-4.8,5.57V101c0,3.8,1.72,5.79,5,5.79h57.52c3.49,0,5.31-2.1,5.31-6.17V23.31c0-3.63-1.71-5.6-4.83-5.61H531.85c-.25,0-.51,0-.82.05l2,6.42H494.94ZM514,14.27c2.36,0,4.38-2.28,4.42-5.06S516.38,4,514,4s-4.38,2.35-4.4,5.1S511.65,14.25,514,14.27Z"/><path class="cls-1" d="M494.78,83.08l-3.34-2.89,17.64-15.13,7.69,6.68L526.93,63h-2.16V58.87h10.77v9.21h-4.78V66.19l-13.4,11.52c-2.85-2.46-5.5-4.73-8.15-7Z"/><path class="cls-1" d="M535.54,91.13v3.53H491.45V91.13Z"/><path class="cls-1" d="M517.59,31.72v3.34H491.44V31.72Z"/><path class="cls-1" d="M517.59,39.36V42.7H491.44V39.36Z"/><path class="cls-1" d="M517.59,47.48v3.34H491.44V47.48Z"/><rect class="cls-2" x="77.67" y="123.95" width="70.22" height="13.68" transform="translate(124.83 303.07) rotate(-143.23)"/><polygon class="cls-2" points="163.89 168.99 150.39 127.54 120.33 167.78 163.89 168.99"/><rect class="cls-2" x="402.97" y="123.27" width="70.22" height="13.68" transform="translate(8.72 286.61) rotate(-36.57)"/><polygon class="cls-2" points="386.83 168.12 430.41 167.07 400.48 126.73 386.83 168.12"/><rect class="cls-2" x="258.28" y="265.12" width="31.83" height="11.21" transform="translate(4.1 545.55) rotate(-90.13)"/><polygon class="cls-2" points="274.28 310.16 294.8 280.92 253.64 281.02 274.28 310.16"/><rect class="cls-1" x="111.4" y="318.25" width="320.11" height="192.62" rx="12" ry="12"/><path class="cls-3" d="M191,341.77a34.06,34.06,0,1,0,6.29,33.45L165.17,364Z"/><path class="cls-3" d="M201.43,340.79,175.61,363l32.11,11.25A34,34,0,0,0,201.43,340.79Z"/><rect class="cls-3" x="128.96" y="455.34" width="9.35" height="31.4"/><rect class="cls-3" x="147.32" y="425.66" width="9.35" height="61.08"/><rect class="cls-3" x="165.69" y="419.42" width="9.35" height="67.33"/><rect class="cls-3" x="184.34" y="413.65" width="9.35" height="73.1"/><rect class="cls-3" x="203.04" y="394.67" width="9.35" height="92.08"/><rect class="cls-3" x="242.01" y="407.58" width="168.64" height="79.17"/><line class="cls-4" x1="324.53" y1="403.58" x2="324.53" y2="486.75"/><line class="cls-4" x1="324.53" y1="444.2" x2="415.21" y2="444.2"/><line class="cls-4" x1="364.6" y1="444.2" x2="364.6" y2="490.58"/><line class="cls-4" x1="364.6" y1="461.91" x2="415.21" y2="461.91"/><line class="cls-4" x1="382.94" y1="461.91" x2="382.94" y2="492.47"/><line class="cls-4" x1="383.49" y1="473.58" x2="415.21" y2="473.58"/><line class="cls-4" x1="394.73" y1="473.58" x2="394.73" y2="486.75"/><path class="cls-3" d="M260.24,392.74c.95,2.6-.41,3.41-1.91,3.45a93,93,0,0,1-10-.35c-1.23-.11-1.57-1-.5-2,1.37-1.38,2.41-3.15,4-4.25,1.09-.78,2.77-.72,4.62-1.13a11.71,11.71,0,0,0-1.77-2.13,68.67,68.67,0,0,0-6.66-4.61c-2-1.16-2.22-2.65-1.56-4.56.35-1,.75-2,1.24-3.38-1.21.28-2.05.54-2.91.67-1.68.24-2.56-.64-1.92-2.21a11.5,11.5,0,0,1,2.38-3.46,31.35,31.35,0,0,1,3.51-2.73l-.5-1.05c-1.32-.32-2.65-.62-4-1-2-.51-4.33-.62-4.94-3.21-.48-2.07.88-4.06,3.65-5.64a39.37,39.37,0,0,0,3.86-2.31c1.55-1.14,1.76-2,1.3-4.52,3.39.68,6.73.87,9.66,2.06,3.66,1.5,7,2.22,10.82.67,2.38-1,4.15.54,5.57,2,1.54-1.2,2.91-2.41,4.43-3.39,1.88-1.2,3.63-2.28,3.62-5,0-.78,1-1.78,1.85-2.31,2.86-1.86,6-1.46,9.17-.88,1.47.28,2.95.56,4.43.75,2.71.33,4.85-.42,6.15-3.07.85-1.75,2.34-2.33,4.32-2,2.66.4,5.36.57,8.17.85-.76-2.37-1.25-4.65.37-6.66,1.85-2.3,4.61-2.41,7.22-2.35.81,0,1.8,1.15,2.34,2,2.47,3.85,4.71,7.83,7.24,11.63.64,1,2,1.44,3.09,2.13l-.8,1.25-10.18-1.27c.25,2.34,1.14,4.51.43,5.8-.57,1-3.1.95-4.15,1.21-1.69,1.41-2.93,2.81-4.48,3.65-2.29,1.25-4.85,2-7.2,3.16-2.58,1.28-2.89,2.25-1.77,4.89.91,2.14,2,4.19,3,6.31.81,1.81,1.63,3.87.08,5.51-2,2.06-4.28,3.89-7.42,3.64-.72-.05-1.39-.73-2.29-1.24l-2.24,3,3.21,4-2.94,2.13c.39.8,1,1.83,1.42,2.92,1.33,3.25-.41,5.63-3.91,5.15a22.48,22.48,0,0,1-4.67-1.56c-1.37-.5-2.7-1.09-4-1.63l.28,2.72a18.54,18.54,0,0,1-2.58,0c-3.56-.46-5.53-3.08-7.49-5.68-.48-.63-.9-1.32-1.54-2.28-.29.9-.49,1.43-.64,2-1.25,4.67-4.37,6.62-9.12,5.71C265.3,393.64,263.1,393.26,260.24,392.74Z"/><circle class="cls-3" cx="374.47" cy="363.95" r="30.08"/><line class="cls-4" x1="348.55" y1="333.34" x2="403.22" y2="395.04"/><line class="cls-4" x1="375.52" y1="361.87" x2="345.72" y2="393.56"/></g></g></svg>