<svg xmlns="http://www.w3.org/2000/svg" viewBox="0 0 1280 987.31"><defs><style>.cls-1{fill:#3c3c3b;}.cls-2{fill:#86869f;}.cls-3{fill:#9090a2;}.cls-4{fill:#8b8aa0;}.cls-5{fill:#fff;}</style></defs><title>space_zgoraj_kvadrat</title><g id="Layer_2" data-name="Layer 2"><g id="Layer_2-2" data-name="Layer 2"><rect class="cls-1" width="1280" height="987.31"/><path class="cls-1" d="M1202,191.68h0m-.06,0h0m0,0h0m0,0h0m0,0h0m0,0h0m0,0h0m0,0h0"/><path class="cls-2" d="M1257.11,88.74a1.87,1.87,0,1,0-2.39,1.14,1.87,1.87,0,0,0,2.39-1.14"/><path class="cls-3" d="M1258.81,246.37a1.88,1.88,0,1,0-2.39,1.14,1.87,1.87,0,0,0,2.39-1.14"/><path class="cls-4" d="M1221.4,203.15a1.87,1.87,0,1,0-2.39,1.15,1.87,1.87,0,0,0,2.39-1.15"/><path class="cls-3" d="M1084.63,310.13a1.87,1.87,0,1,0-2.38,1.14,1.85,1.85,0,0,0,2.38-1.14"/><path class="cls-3" d="M1247.44,399.59a1.87,1.87,0,1,0-2.39,1.14,1.87,1.87,0,0,0,2.39-1.14"/><path class="cls-5" d="M1148.07,88.79l1,1.17.06.12.25,1.55a.25.25,0,0,0,.41.15l1.17-1,.13-.06,1.55-.25a.25.25,0,0,0,.14-.41l-1-1.17-.06-.13-.25-1.55a.25.25,0,0,0-.41-.14l-1.17,1-.12.06-1.55.25a.25.25,0,0,0-.15.41Z"/><path class="cls-5" d="M1253.57,315.9l1,1.17.06.12.25,1.56a.25.25,0,0,0,.41.15l1.17-1.06.12-.06,1.55-.25a.25.25,0,0,0,.14-.41l-1-1.17-.06-.12-.25-1.55a.25.25,0,0,0-.42-.15l-1.16,1.05-.13.06-1.55.26a.24.24,0,0,0-.14.4Z"/><path class="cls-5" d="M1110.61,420.75l1.05,1.17.06.13.25,1.55a.25.25,0,0,0,.41.14l1.17-1.05.13-.06,1.54-.25a.25.25,0,0,0,.15-.41l-1-1.17-.06-.12-.25-1.55a.25.25,0,0,0-.41-.15l-1.17,1-.13.06-1.54.25a.25.25,0,0,0-.15.41Z"/><path class="cls-5" d="M1133.24,428.74l1,1.17.06.12.25,1.55a.25.25,0,0,0,.41.15l1.17-1.05.13-.06,1.55-.25a.25.25,0,0,0,.14-.41l-1-1.17-.06-.13-.26-1.55a.25.25,0,0,0-.41-.14l-1.17,1-.12.06-1.55.25a.24.24,0,0,0-.14.41Z"/><path class="cls-5" d="M813.35,318.23l1,1.17.06.13.25,1.55a.25.25,0,0,0,.41.14l1.17-1,.13-.07,1.55-.25a.25.25,0,0,0,.14-.41l-1.05-1.17-.06-.12-.25-1.55a.25.25,0,0,0-.41-.15l-1.17,1.05-.12.06-1.55.25a.25.25,0,0,0-.15.41Z"/><path class="cls-5" d="M976,604.86l1.05,1.16.06.13.25,1.55a.24.24,0,0,0,.41.14l1.17-1,.12-.06,1.55-.26a.25.25,0,0,0,.15-.41l-1-1.17-.06-.12-.25-1.55a.25.25,0,0,0-.41-.14l-1.17,1-.13.06-1.55.26a.25.25,0,0,0-.14.41Z"/><path class="cls-5" d="M1004.31,307.72l1.05,1.17.06.13.25,1.55a.24.24,0,0,0,.41.14l1.17-1,.12-.06,1.55-.26a.25.25,0,0,0,.15-.41l-1.05-1.17-.06-.12-.25-1.55a.25.25,0,0,0-.41-.14l-1.17,1-.13.06-1.55.26a.24.24,0,0,0-.14.4Z"/><path class="cls-5" d="M901.94,457.15l1,1.17.06.13.25,1.55a.25.25,0,0,0,.41.14l1.17-1L905,459l1.55-.26a.25.25,0,0,0,.15-.41l-1.05-1.17-.06-.12-.25-1.55a.25.25,0,0,0-.41-.14l-1.17,1-.13.06-1.55.25a.25.25,0,0,0-.14.41Z"/><path class="cls-5" d="M735.94,531.52l1,1.17.06.13.25,1.55a.25.25,0,0,0,.41.14l1.17-1,.13-.06,1.55-.25a.25.25,0,0,0,.14-.41l-1.05-1.17-.06-.12-.25-1.55a.25.25,0,0,0-.41-.15l-1.17,1-.12.06-1.55.25a.25.25,0,0,0-.15.41Z"/><path class="cls-5" d="M699.42,465l1.05,1.17.06.12.25,1.55a.25.25,0,0,0,.41.15l1.17-1,.12-.06,1.55-.25a.25.25,0,0,0,.15-.41l-1-1.17-.06-.13-.25-1.55a.25.25,0,0,0-.41-.14l-1.17,1-.13.07-1.55.25a.25.25,0,0,0-.14.41Z"/><path class="cls-5" d="M804.91,692.08l1.05,1.17.06.12.25,1.56a.25.25,0,0,0,.41.14l1.17-1.05L808,694l1.55-.25a.25.25,0,0,0,.14-.41l-1-1.17-.07-.13-.25-1.54a.24.24,0,0,0-.41-.15l-1.17,1.05-.12.06-1.55.25a.25.25,0,0,0-.15.41Z"/><path class="cls-5" d="M669.17,643.05l1.05,1.16,0,.14.26,1.54a.25.25,0,0,0,.41.15l1.16-1,.13-.06,1.55-.25a.25.25,0,0,0,.15-.41l-1-1.17-.06-.13-.25-1.55a.25.25,0,0,0-.41-.14l-1.17,1-.13.07-1.55.25a.25.25,0,0,0-.14.41Z"/><path class="cls-5" d="M838.89,101.12l1.05,1.17.06.13.25,1.55a.26.26,0,0,0,.42.14l1.16-1L842,103l1.55-.25a.25.25,0,0,0,.14-.41l-1-1.17-.07-.12-.25-1.55a.25.25,0,0,0-.41-.15l-1.17,1.05-.12.06-1.55.25a.25.25,0,0,0-.15.41Z"/><path class="cls-5" d="M1038.73,436.44l1,1.17.06.13.25,1.55a.25.25,0,0,0,.41.14l1.17-1,.13-.06,1.55-.26a.25.25,0,0,0,.14-.41l-1-1.17-.06-.12-.25-1.55a.24.24,0,0,0-.41-.14l-1.17,1-.12.06-1.55.25a.25.25,0,0,0-.15.41Z"/><path class="cls-5" d="M976.57,330.4l1,1.17.06.13.26,1.55a.25.25,0,0,0,.41.14l1.16-1.05.13-.06,1.55-.25a.25.25,0,0,0,.14-.41l-1-1.17-.06-.12-.26-1.55a.25.25,0,0,0-.41-.15l-1.16,1.05-.13.06-1.55.25a.25.25,0,0,0-.14.41Z"/><path class="cls-5" d="M999.19,338.39l1,1.17.06.12.25,1.55a.24.24,0,0,0,.41.14l1.17-1,.12-.06,1.56-.26a.24.24,0,0,0,.14-.4l-1.05-1.17-.06-.13-.25-1.55a.25.25,0,0,0-.41-.14l-1.17,1-.12.06-1.55.26a.25.25,0,0,0-.15.41Z"/><path class="cls-5" d="M679.31,227.88l1.05,1.17.06.13.25,1.54a.25.25,0,0,0,.41.15l1.17-1.05.12-.06,1.55-.25a.25.25,0,0,0,.15-.41L683,227.93l-.06-.13-.25-1.55a.25.25,0,0,0-.41-.14l-1.17,1-.13.06-1.55.25a.25.25,0,0,0-.14.41Z"/><path class="cls-5" d="M842,514.5l1,1.17.06.13.25,1.55a.25.25,0,0,0,.41.14l1.17-1,.13-.06,1.55-.25a.25.25,0,0,0,.14-.41l-1-1.17-.06-.12-.25-1.55a.25.25,0,0,0-.41-.15l-1.17,1-.12.06-1.55.25a.25.25,0,0,0-.15.41Z"/><path class="cls-5" d="M870.26,217.37l1,1.17.06.13.25,1.55a.25.25,0,0,0,.41.14l1.17-1.05.13-.06,1.55-.25a.25.25,0,0,0,.14-.41l-1-1.17-.06-.12-.25-1.55a.25.25,0,0,0-.41-.15l-1.17,1.05-.12.06-1.55.25a.25.25,0,0,0-.15.41Z"/><path class="cls-5" d="M767.89,366.8l1.05,1.17.06.13.25,1.55a.25.25,0,0,0,.41.14l1.17-1.05.13-.06,1.55-.25a.25.25,0,0,0,.14-.41l-1-1.17-.06-.12-.25-1.55a.25.25,0,0,0-.41-.15l-1.17,1.05-.12.06-1.55.25a.25.25,0,0,0-.15.41Z"/><path class="cls-5" d="M601.9,441.17l1.05,1.17.06.12.25,1.55a.25.25,0,0,0,.41.15l1.17-1.05.12-.06,1.55-.25a.25.25,0,0,0,.15-.41l-1-1.17-.06-.12-.25-1.56a.25.25,0,0,0-.41-.14l-1.17,1.05-.13.06-1.55.25a.25.25,0,0,0-.14.41Z"/><path class="cls-5" d="M565.37,374.61l1,1.17.06.13.25,1.55a.25.25,0,0,0,.41.14l1.17-1.05.13-.06,1.55-.25a.25.25,0,0,0,.14-.41l-1-1.17-.06-.12-.25-1.55a.25.25,0,0,0-.41-.15l-1.17,1.05-.12.06-1.55.25a.25.25,0,0,0-.15.41Z"/><path class="cls-5" d="M670.87,601.73l1,1.17.06.12.25,1.56a.25.25,0,0,0,.41.14l1.17-1.06.12,0,1.55-.25a.25.25,0,0,0,.15-.41l-1-1.18-.06-.12-.25-1.55a.24.24,0,0,0-.41-.14l-1.17,1-.12,0-1.56.26a.25.25,0,0,0-.14.41Z"/><path class="cls-5" d="M535.12,552.69l1,1.17.06.13.25,1.55a.25.25,0,0,0,.41.14l1.17-1,.13-.07,1.55-.25a.25.25,0,0,0,.14-.41l-1-1.16-.06-.14-.25-1.54a.25.25,0,0,0-.41-.15L536.94,552l-.13.07-1.54.25a.24.24,0,0,0-.15.4Z"/><path class="cls-5" d="M704.85,10.77l1,1.17.06.12.25,1.56a.25.25,0,0,0,.41.14l1.17-1,.12-.06,1.55-.25a.25.25,0,0,0,.15-.41l-1.05-1.17-.06-.13-.25-1.54a.25.25,0,0,0-.41-.15l-1.17,1.05-.13.06-1.55.25a.25.25,0,0,0-.14.41Z"/><path class="cls-5" d="M904.69,346.09l1,1.17.06.13.25,1.55a.25.25,0,0,0,.41.14l1.17-1.05.12-.06,1.55-.25a.25.25,0,0,0,.15-.41l-1.05-1.17-.06-.12-.25-1.55a.25.25,0,0,0-.41-.15l-1.17,1.05-.13.06-1.55.25a.25.25,0,0,0-.14.41Z"/><polygon class="cls-5" points="1041.9 466.19 1039.01 457.48 1030.29 460.37 1033.19 469.09 1041.9 466.19 1041.9 466.19"/><path class="cls-5" d="M527.91,706.58l1.05,1.17.06.12.25,1.55a.25.25,0,0,0,.41.15l1.17-1.05.13-.06,1.55-.25a.25.25,0,0,0,.14-.41l-1-1.17-.06-.13-.25-1.55a.25.25,0,0,0-.41-.14l-1.17,1.05-.12.06-1.55.25a.25.25,0,0,0-.15.41Z"/><path class="cls-5" d="M550.54,714.56l1.05,1.17.06.13.25,1.55a.25.25,0,0,0,.41.14l1.17-1,.12-.06,1.55-.25a.25.25,0,0,0,.15-.41l-1-1.17-.06-.12-.25-1.55a.25.25,0,0,0-.41-.15l-1.17,1.05-.13.06-1.55.25a.25.25,0,0,0-.14.41Z"/><path class="cls-5" d="M230.66,604.06l1,1.17.06.12.26,1.55a.25.25,0,0,0,.41.15l1.16-1,.13-.06,1.55-.25a.25.25,0,0,0,.14-.41l-1-1.17-.06-.13-.26-1.55a.25.25,0,0,0-.41-.14l-1.16,1.05-.13.06-1.55.25a.25.25,0,0,0-.14.41Z"/><path class="cls-5" d="M393.34,890.68l1.05,1.17.06.12.25,1.55a.25.25,0,0,0,.41.15l1.17-1,.13-.06,1.54-.25a.25.25,0,0,0,.15-.41l-1.05-1.17-.06-.13-.25-1.54a.25.25,0,0,0-.41-.15L395.16,890,395,890l-1.55.25a.25.25,0,0,0-.15.41Z"/><path class="cls-5" d="M421.61,593.55l1.05,1.17.06.12.25,1.55a.25.25,0,0,0,.41.15l1.17-1,.13-.06,1.54-.25a.25.25,0,0,0,.15-.41l-1.05-1.17-.06-.13-.25-1.55a.25.25,0,0,0-.41-.14l-1.17,1.05-.12.06-1.56.25a.25.25,0,0,0-.14.41Z"/><path class="cls-5" d="M319.24,743l1.05,1.17.06.12.25,1.55a.25.25,0,0,0,.41.15l1.17-1.05.13-.06,1.55-.25a.25.25,0,0,0,.14-.41L323,743l-.06-.13-.25-1.54a.25.25,0,0,0-.41-.15l-1.17,1-.12.06-1.55.25a.25.25,0,0,0-.15.41Z"/><path class="cls-5" d="M153.24,817.35l1,1.17.06.12.26,1.55a.25.25,0,0,0,.41.15l1.16-1.05.13-.06,1.55-.25a.25.25,0,0,0,.14-.41l-1-1.17-.06-.13-.26-1.55a.25.25,0,0,0-.41-.14l-1.16,1-.13.06-1.55.25a.25.25,0,0,0-.15.41Z"/><path class="cls-5" d="M116.72,750.79l1,1.17.06.13.25,1.55a.25.25,0,0,0,.41.14l1.17-1,.13-.06,1.55-.25a.25.25,0,0,0,.14-.41l-1-1.17-.06-.12-.25-1.55a.25.25,0,0,0-.41-.15l-1.17,1.05-.12.06-1.55.25a.25.25,0,0,0-.15.41Z"/><path class="cls-5" d="M222.22,977.91l1.05,1.16.06.13.25,1.55a.25.25,0,0,0,.41.15l1.17-1.06.12-.05,1.55-.25a.25.25,0,0,0,.14-.41l-1-1.18-.06-.12-.25-1.55a.25.25,0,0,0-.42-.14l-1.16,1-.13.06-1.55.26a.25.25,0,0,0-.14.41Z"/><path class="cls-5" d="M86.47,928.87l1,1.17.06.13.25,1.55a.25.25,0,0,0,.41.14l1.17-1,.13-.07,1.54-.25a.25.25,0,0,0,.15-.41l-1-1.16-.06-.14-.25-1.54a.25.25,0,0,0-.41-.15l-1.17,1-.13.06-1.55.25a.25.25,0,0,0-.14.41Z"/><path class="cls-5" d="M256.2,387l1.05,1.17.06.12.25,1.55a.25.25,0,0,0,.41.15l1.17-1.05.12-.06,1.55-.25a.25.25,0,0,0,.15-.41l-1-1.17-.06-.13-.25-1.55a.25.25,0,0,0-.41-.14L258,386.23l-.13.06-1.55.25a.25.25,0,0,0-.14.41Z"/><path class="cls-5" d="M456,722.27l1,1.17.06.12.26,1.55a.25.25,0,0,0,.41.15l1.16-1,.13-.06,1.55-.25a.25.25,0,0,0,.14-.41l-1-1.17-.06-.13-.26-1.54a.25.25,0,0,0-.41-.15l-1.17,1-.12.06-1.55.25a.25.25,0,0,0-.14.41Z"/><polygon class="cls-5" points="593.25 842.37 590.35 833.65 581.64 836.55 584.54 845.26 593.25 842.37 593.25 842.37"/></g></g></svg>