<svg xmlns="http://www.w3.org/2000/svg" viewBox="0 0 334.37 64.57"><defs><style>.cls-1{fill:#c2c1c0;}</style></defs><title>ICON_INSTRUMENTATION_TECHNOLOGIES</title><g id="Layer_2" data-name="Layer 2"><g id="Layer_1-2" data-name="Layer 1"><path class="cls-1" d="M0,28.16c.5-1.93.85-3.9,1.52-5.77C5.77,10.54,14,3.25,26.4.64a25.19,25.19,0,0,1,9-.4A34.58,34.58,0,0,1,48.22,4.71a33.05,33.05,0,0,1,11,10.82A31.15,31.15,0,0,1,63.92,28.4a31.07,31.07,0,0,1-5.48,22.52A31,31,0,0,1,37.83,64.05c-.48.09-1.08,0-1.42.52H28c-.58-.5-1.34-.39-2-.53C13.92,61.35,5.83,54.16,1.58,42.56c-.72-2-.82-4.08-1.58-6ZM37.57,24.7c-.59-.47-.92-.08-1.26.36-1.73,2.19-1.57,4,.14,6.44a4.46,4.46,0,0,0,5.23,1.87c2.56-.61,5.08-1.34,7.64-1.93a4.34,4.34,0,0,1,2.69,0,3,3,0,0,1,1.93,2.66,3.05,3.05,0,0,1-1.32,3,17.31,17.31,0,0,1-4.29,2.17c-1,.28-.7,1-.53,1.64.22.81.74.49,1.21.24,1.39-.74,2.84-1.37,4.16-2.21,3.32-2.14,3.63-5.94.73-8.58-1.7-1.54-3.73-1.25-5.73-.72-2.27.6-4.52,1.26-6.79,1.87a3.2,3.2,0,0,1-3.53-1,3.05,3.05,0,0,1-.45-3.75,1.79,1.79,0,0,0,.15-2.11c.64-.23.83.34,1,.67a48,48,0,0,1,2.71,4.56c.5,1,1.14.87,1.83.53.91-.44.13-1-.09-1.38-.77-1.4-1.57-2.8-2.43-4.15a41.17,41.17,0,0,0-6-7.34c-.81-.8-1,.17-1.47.42s-.3.59.06,1a40.21,40.21,0,0,1,3.27,3.65C37,23.2,37.9,23.67,37.57,24.7Zm-12.18.39c-1.34-.8-1.94-.24-2.33.93a2,2,0,0,1-.25.35,45.77,45.77,0,0,0-5,11.93,1,1,0,0,0,.8,1.37c.61.14.91-.11,1.07-.8a46,46,0,0,1,6-13.54c1.12.9,2,1.88,1.68,3.39-.43,2.24-1.28,3-3.65,2.91A1.21,1.21,0,0,0,22.3,32.9c-.06.78.75.64,1.26.66a5.2,5.2,0,0,0,4.88-2.41,5.73,5.73,0,0,0-.75-6.61c-2-1.94-3.89-4-5.83-6a3.4,3.4,0,0,1-.37-4.2,3.14,3.14,0,0,1,3.87-1.27A16.36,16.36,0,0,1,29,15.33c.43.28.82,1.33,1.59.56s0-1.49-.54-2a14.77,14.77,0,0,0-3.59-2.36A4.37,4.37,0,0,0,24,10.84a5.3,5.3,0,0,0-4.52,3.1,5.05,5.05,0,0,0,.64,5.42,20.88,20.88,0,0,0,2.94,2.93A18.5,18.5,0,0,1,25.39,25.09ZM16.5,47v1.21a5.69,5.69,0,0,0,5.12,5.62c2.12.31,4.82-2,5.27-4.58.29-1.67,1.38-3.2.85-5,1.38-1,1.12-2.76,1.77-4.1a1.53,1.53,0,0,1,.85-.9,3.82,3.82,0,0,1,4.8,1.61c.52,1,1.2,1.11,1.81.78.81-.44.09-1.18-.17-1.69a5.6,5.6,0,0,0-5.15-2.8c-1.67.21-4.32,2.71-4.72,4.55-.57,2.58-1.26,5.12-2.05,7.64a3.09,3.09,0,0,1-3.22,2.44c-2-.17-2.87-1.07-3.18-3a6.18,6.18,0,0,1-.05-2.35,10.68,10.68,0,0,0,.35-2.84c-.06-1-1-.46-1.4-.86-.23-.23-.64,0-.58.51C17,44.57,16.25,45.86,16.5,47ZM46,46.86c0,.79,0,1.23,0,1.66a3.56,3.56,0,0,1-3.19,3.31,3.4,3.4,0,0,1-3.4-2.54c-.34-1.29-.65-2.59-1-3.87-.26-1-1-.39-1.54-.39s-.37.5-.28.86c.34,1.39.62,2.8,1,4.16.69,2.26,3.5,4.12,5.52,3.74a5.51,5.51,0,0,0,4.73-5.51,42.48,42.48,0,0,0-2.69-14.52c-.34-.86-1-.34-1.41-.3s-.76.28-.42.88a16.87,16.87,0,0,1,1.29,4.12A43.14,43.14,0,0,1,46,46.86ZM10.38,34.56a3,3,0,0,1,3.2-3.28,16.07,16.07,0,0,1,4.75,1c.83.24.75-.33.94-.68s.38-.84-.21-1.06a15.71,15.71,0,0,0-6.39-1.14c-2,.13-3.76,2.25-4.08,4.6A5,5,0,0,0,11,39a48.81,48.81,0,0,0,13.63,5c.93.21,1.34-.22,1.33-1.14s-.79-.68-1.23-.78a42.79,42.79,0,0,1-12.83-4.8A2.87,2.87,0,0,1,10.38,34.56Zm35-18.17a5.09,5.09,0,0,0-2.57-4.71,4.69,4.69,0,0,0-5.49.2,11.42,11.42,0,0,1-1.09.91A28.26,28.26,0,0,0,26.75,21c-.26.33-1.08.65-.34,1.23a1.05,1.05,0,0,0,1.69-.18,42.28,42.28,0,0,1,9.64-8.35c1.87-1.18,3.85-1.12,4.93.27A3.78,3.78,0,0,1,42,19.13c-.76.72-1.47,1.5-2.22,2.24a.68.68,0,0,0,0,1.09c.42.47.73.33,1.08,0s.77-.44,1.05-.68C43.55,20.31,45.44,19,45.38,16.39ZM32.79,44.6a21.76,21.76,0,0,0,4.61-.26c2.23-.2,4.32-1.08,6.5-1.46,1-.17,1-.85.83-1.52-.17-.91-.79-.35-1.21-.25-3.11.71-6.17,1.66-9.42,1.53-1.3,0-2.6.06-3.89,0S29.1,43.42,29,44c-.17.93.67.55,1.1.58C30.9,44.64,31.72,44.6,32.79,44.6Z"/><path class="cls-1" d="M235,64.57c-1.6-.56-3.34-.67-4.85-1.49-.45-.24-1.35-.26-1.13-1a5.5,5.5,0,0,1,1.34-2.5c.23-.21.6.19.89.34a10.76,10.76,0,0,0,5.11,1.25c3.6-.06,5.43-2,5.15-6-1.78,1.9-3.77,3-6.28,2.78a7.62,7.62,0,0,1-5.84-3.24,8.62,8.62,0,0,1,.95-10.61c2.81-2.8,6.63-2.73,11.06.22.05-.07.14-.13.16-.2.22-.56-.33-1.53.35-1.68a11.06,11.06,0,0,1,3.3,0c.38,0,.23.57.23.89,0,4.43.07,8.86,0,13.29s-2.41,7-6.94,7.69c-.23,0-.48,0-.59.29Zm1.74-10.09a4.65,4.65,0,0,0,4.9-4.54,4.89,4.89,0,0,0-4.89-4.67A4.62,4.62,0,0,0,232,49.85,4.4,4.4,0,0,0,236.69,54.48Z"/><path class="cls-1" d="M179.38,12.51c3.06-3.31,7.42-3,9.67-.31.67.8,1.06-.13,1.36-.37a6.82,6.82,0,0,1,5.46-1.66c3.36.51,5.13,2.52,5.19,6s0,6.74,0,10.1c0,.92-.32,1.11-1.17,1.11-2.82,0-2.82.06-2.82-2.73,0-2.41,0-4.82,0-7.22,0-2.21-1.2-3.54-3.07-3.69s-3.22.94-3.68,3.07a7.44,7.44,0,0,0-.16,1.56c0,2.65,0,5.3,0,7.94,0,.79-.18,1.07-1,1.08-3,0-2.95.07-3-2.95,0-2.55.07-5.1-.09-7.64A3.13,3.13,0,0,0,181.66,14a3.32,3.32,0,0,0-2.22,3.23c-.05,2.93-.09,5.87,0,8.8,0,1.1-.29,1.4-1.38,1.37-2.63-.07-2.63,0-2.63-2.65,0-4.28.07-8.57,0-12.85,0-1.24.41-1.51,1.46-1.37a2.18,2.18,0,0,0,.57,0C178.84,10.29,179.89,10.51,179.38,12.51Z"/><path class="cls-1" d="M142.4,44.21A7.13,7.13,0,0,1,149,42.08c2.86.45,4.54,2.77,4.63,6.41.08,3.22,0,6.45,0,9.68,0,.76-.18,1.11-1,1.15-2.95.13-2.95.16-2.95-2.78,0-2.31.05-4.62,0-6.93-.07-3.08-2.08-4.65-4.8-3.82a3.44,3.44,0,0,0-2.4,3.26c-.08,2.93-.11,5.87,0,8.81,0,1.16-.34,1.49-1.48,1.47-2.53-.07-2.53,0-2.53-2.5,0-6.55,0-13.1,0-19.65,0-1,.26-1.29,1.27-1.28,2.73,0,2.73,0,2.73,2.73Z"/><path class="cls-1" d="M268,25.5A7.76,7.76,0,0,1,261,27.59a5.25,5.25,0,0,1-4.6-5.1,5.31,5.31,0,0,1,4.06-5.28,12.65,12.65,0,0,1,6.55.07c1,.3.94-.2.85-.8-.21-1.58-1.67-2.66-3.72-2.76a9.65,9.65,0,0,0-4.08.73c-.78.32-1.18.27-1.42-.61-.64-2.37-1.41-2.09,1.56-3.07a13.86,13.86,0,0,1,6-.46c3.43.4,5.5,2.76,5.64,6.39.12,3.22,0,6.45,0,9.67,0,.78-.3,1-1,1a5.78,5.78,0,0,0-1.44,0C268.19,27.54,267.6,27.13,268,25.5Zm-3.25-5.78a5.6,5.6,0,0,0-3.18.59,2.23,2.23,0,0,0-.34,3.66c1.78,1.56,5.67.64,6.56-1.55.61-1.51.26-2.21-1.31-2.53A15.29,15.29,0,0,0,264.71,19.72Z"/><path class="cls-1" d="M315.33,18.91c.27,4.58-3.46,8.81-8.93,8.88a8.73,8.73,0,0,1-9-8.82,8.69,8.69,0,0,1,9-8.89C312,10.05,315.53,14.27,315.33,18.91Zm-13.93,0a5.05,5.05,0,1,0,10.08.21,5.2,5.2,0,0,0-5.08-5.46C303.44,13.61,301.41,15.74,301.4,18.89Z"/><path class="cls-1" d="M216,42a8.74,8.74,0,0,1,9.06,8.8A9,9,0,0,1,216,59.65,8.83,8.83,0,1,1,216,42Zm-5,8.86A5.22,5.22,0,0,0,216,56.2a5.36,5.36,0,0,0-.11-10.71C213,45.5,211,47.73,211,50.85Z"/><path class="cls-1" d="M186.07,42a8.77,8.77,0,0,1,9,8.88,9,9,0,0,1-9.15,8.78A8.83,8.83,0,1,1,186.07,42Zm5,8.9a5.08,5.08,0,0,0-5.1-5.4,5,5,0,0,0-5,5.17A5.29,5.29,0,0,0,186,56.19,5,5,0,0,0,191,50.89Z"/><path class="cls-1" d="M208.77,20.42c.34,3.79,4.95,5.28,7.85,3.06,1.39-1.06,2.09-.52,3,.41.59.58.57.92,0,1.5A9.27,9.27,0,0,1,209.71,27a8.65,8.65,0,0,1-5.08-8.33c.15-3.9,2.32-7.13,5.75-8.16,6.16-1.87,10.9,2.32,10.7,9.1,0,.86-.57.72-1.08.72H209.61C209.33,20.37,209.05,20.41,208.77,20.42Zm4.12-2.72h0c1.06,0,2.12,0,3.17,0,.88.05,1.11-.24.87-1.09a4.1,4.1,0,0,0-4.34-3.22A4.47,4.47,0,0,0,208.75,17c-.15.71.2.71.68.71Z"/><path class="cls-1" d="M104.2,52.19c.27,3.77,4.67,5.42,8.09,3.09.4-.27.7-1.05,1.28-.69a9.21,9.21,0,0,1,1.92,1.72c.3.34-.18.59-.4.8a8.67,8.67,0,0,1-9,2.12,7.75,7.75,0,0,1-5.75-6.53c-.85-5,1.46-9.1,5.76-10.4a8.29,8.29,0,0,1,10.43,9.25c-.15.86-.71.63-1.18.63-3.22,0-6.45,0-9.67,0Zm3.89-2.66c1.15,0,2.3-.05,3.45,0,1,.05,1-.42.79-1.13a4.21,4.21,0,0,0-3.93-3.2,4.38,4.38,0,0,0-4.16,3.34c-.24.76-.16,1,.69,1C106,49.49,107,49.53,108.09,49.53Z"/><path class="cls-1" d="M268.56,52.19c-1.74,0-3.47,0-5.2,0-.87,0-1.1.21-.78,1.1,1.08,3,4.79,4,7.68,2.14,1.41-.94,2.39-.71,3.41.7.32.44,0,.58-.18.83a9.15,9.15,0,0,1-9.82,2.11,8.36,8.36,0,0,1-5.31-7.83c0-4.58,2.17-7.87,6-8.94a7.89,7.89,0,0,1,10.18,6.43c.57,3.47.57,3.47-2.93,3.47Zm2.06-2.66c.24-.49,0-.83-.12-1.19a4,4,0,0,0-4-3.12,4.36,4.36,0,0,0-4,3.29c-.18.65-.18,1.06.73,1C265.7,49.49,268.19,49.53,270.62,49.53Z"/><path class="cls-1" d="M162.26,44.55c1.72-2.38,4.09-2.91,6.68-2.44s4.39,2.89,4.43,6c0,3.37,0,6.74,0,10.1,0,.9-.29,1.13-1.16,1.15-2.88,0-2.88.08-2.88-2.73,0-2.4,0-4.81,0-7.21s-1.32-3.77-3.41-3.83a3.7,3.7,0,0,0-3.81,3.83c0,2.93,0,5.87,0,8.8,0,.89-.27,1.13-1.15,1.14-2.91,0-2.91.06-2.91-2.84,0-4.28,0-8.57,0-12.84,0-1.11.31-1.5,1.37-1.32a3.08,3.08,0,0,0,.43,0C162,42.32,162,42.32,162.26,44.55Z"/><path class="cls-1" d="M166.85,25.14c-3.11,2.85-6.3,3.37-8.8,1.67A5.65,5.65,0,0,1,155.5,22c-.08-3.51,0-7-.05-10.54,0-.89.32-1,1.09-1,2.91,0,2.91-.06,2.91,2.82,0,2.32,0,4.63,0,6.94.06,2.54,1.28,3.87,3.46,3.87s3.72-1.56,3.76-4q.08-4.12,0-8.23c0-1,.16-1.42,1.31-1.4,2.72.06,2.72,0,2.72,2.74,0,4.23,0,8.47,0,12.71,0,1.1-.26,1.65-1.45,1.42a2.73,2.73,0,0,0-.57,0C167.4,27.41,166,27.57,166.85,25.14Z"/><path class="cls-1" d="M229,12.52a6.71,6.71,0,0,1,3.45-2.26c4.24-.89,7.4,1.53,7.57,6,.12,3.36,0,6.74,0,10.11,0,.72-.21,1-1,1-3,.11-3,.14-3-2.84,0-2.31,0-4.62,0-6.93s-1.26-3.66-3.1-3.88a3.67,3.67,0,0,0-4,2.63,5.15,5.15,0,0,0-.14,1.42c0,2.84,0,5.68,0,8.52,0,.81-.22,1-1,1.07-3,.08-3,.11-3-2.84,0-4.24,0-8.48,0-12.71,0-1.12.32-1.49,1.37-1.32a2.06,2.06,0,0,0,.43,0C228.73,10.49,228.73,10.49,229,12.52Z"/><path class="cls-1" d="M98.2,12.57c2.75-2.58,5.39-3.14,8-1.82a5.24,5.24,0,0,1,3,4.74c.14,3.65.07,7.31.1,11,0,.7-.25.87-.93.9-3.1.14-3.1.17-3.1-2.92,0-2.22,0-4.43,0-6.64,0-2.49-1.11-3.92-3.12-4.07-2.17-.17-3.63,1-4,3.42a52.3,52.3,0,0,0-.11,8.49c0,1.39-.31,2-1.72,1.71a5.57,5.57,0,0,0-1.29,0c-.59.05-.9-.14-.89-.78q0-7.65,0-15.29c0-.54.17-.82.74-.78.29,0,.57,0,.86,0C97.85,10.49,97.85,10.49,98.2,12.57Z"/><path class="cls-1" d="M323.09,12.59c2-1.88,3.91-2.8,6.43-2.39a5.38,5.38,0,0,1,4.81,5.25c.08,3.66,0,7.31,0,11,0,.67-.19.89-.89.93-3.09.17-3.09.2-3.09-2.81q0-3.24,0-6.5c0-2.85-1.18-4.32-3.45-4.33s-3.75,1.62-3.79,4.31,0,5.39,0,8.08c0,.9-.15,1.27-1.16,1.26-2.69,0-2.7,0-2.7-2.72,0-4.28,0-8.57,0-12.85,0-1,.17-1.48,1.24-1.3a2.89,2.89,0,0,0,.72,0C322.6,10.38,323.77,10.46,323.09,12.59Z"/><path class="cls-1" d="M94,50c0,2.7,0,5.39,0,8.09,0,.91-.2,1.26-1.19,1.26-2.9,0-2.9,0-2.9-2.88,0-4.82,0-9.63,0-14.44,0-1.08-.2-1.54-1.39-1.45-1.48.11-3,0-4.47,0-.8,0-1.18-.09-1.18-1.07,0-2.7,0-2.7,2.73-2.7,4.76,0,9.52,0,14.29,0,1,0,1.29.28,1.27,1.29,0,2.49,0,2.45-2.5,2.5-1.52,0-3.49-.66-4.44.3S94,43.74,94,45.22,94,48.4,94,50Z"/><path class="cls-1" d="M284.48,59.62A13.54,13.54,0,0,1,278,57.74c-.84-.51-1.07-1-.3-1.76a2.75,2.75,0,0,0,.57-.82c.35-.78.73-.75,1.43-.31,1.73,1.06,3.55,1.88,5.7,1.39a1.73,1.73,0,0,0,1.51-1.51c.1-.86-.56-1.32-1.23-1.58-1.29-.49-2.64-.85-3.95-1.32-3-1.09-4.15-2.81-3.74-5.62.33-2.26,2.65-4.05,5.36-4.18a12.13,12.13,0,0,1,6,1.38c.7.34.94.72.44,1.41a4.87,4.87,0,0,0-.55,1c-.31.83-.75,1-1.53.51a7.55,7.55,0,0,0-4-1.12c-1,0-1.86.28-2.08,1.38s.61,1.45,1.37,1.76c1.5.61,3.07,1.07,4.55,1.73,2.25,1,3.26,2.64,3,4.57a5.05,5.05,0,0,1-4.3,4.71C285.63,59.48,285,59.55,284.48,59.62Z"/><path class="cls-1" d="M119.58,27.63a10.89,10.89,0,0,1-6.34-1.91c-.67-.44-.86-.77-.29-1.41a4.59,4.59,0,0,0,.74-1.06c.34-.7.74-.71,1.35-.29a8,8,0,0,0,5.28,1.49c.93-.08,1.72-.4,1.92-1.41s-.51-1.5-1.31-1.8c-1.38-.52-2.82-.91-4.2-1.45-2.65-1-3.79-2.85-3.4-5.29a5.38,5.38,0,0,1,5.12-4.27,11.93,11.93,0,0,1,5.86,1.11c1,.45,1.3.84.7,1.94s-1.19,1.84-2.62.87a5.59,5.59,0,0,0-3.74-.73,1.62,1.62,0,0,0-1.6,1.21,1.39,1.39,0,0,0,1,1.69c1.43.55,2.89,1,4.31,1.59,3.25,1.31,4.43,3.7,3.18,6.59C124.43,27.07,122.18,27.69,119.58,27.63Z"/><path class="cls-1" d="M128.19,41.94a8.68,8.68,0,0,1,5.95,2.18c.67.57.81,1,.06,1.58-.08,0-.12.15-.18.22-1.34,1.53-1.34,1.53-3,.42a4.85,4.85,0,0,0-6.19.52,5.94,5.94,0,0,0-.35,7.42,4.8,4.8,0,0,0,6.19,1.3,3.33,3.33,0,0,0,1-.63c.81-.94,1.4-.68,2.16.15,1.44,1.57,1.5,1.57-.28,2.81a8.72,8.72,0,0,1-10.13.37c-3.27-2-4.35-5.13-3.95-8.79a8.57,8.57,0,0,1,6.66-7.29A15.11,15.11,0,0,1,128.19,41.94Z"/><path class="cls-1" d="M276.92,19c0-1.3,0-2.6,0-3.9,0-.79-.09-1.34-1.08-1.18-.81.13-1.14-.22-1-1a6.93,6.93,0,0,0,0-1.44c-.07-.66.1-1.06.83-.95,1.17.18,1.41-.42,1.28-1.42a9.26,9.26,0,0,1,0-1.29c0-2.35-.09-1.88,1.93-1.91s2,0,2,2.05c0,2.57,0,2.55,2.55,2.59.64,0,1.62-.38,1.86.27a7.81,7.81,0,0,1,.09,2.7.48.48,0,0,1-.5.43c-.19,0-.38,0-.57,0-1.09.07-2.52-.48-3.19.23s-.19,2.2-.23,3.34c-.05,1.34,0,2.69,0,4,0,2.26,1,3.08,3.23,2.36,1.31-.44,1.36.09,1.33,1.12,0,2-.17,2.24-2.1,2.52a8.31,8.31,0,0,1-3.44-.08c-1.91-.52-2.95-2.14-3-4.56C276.9,21.6,276.92,20.31,276.92,19Z"/><path class="cls-1" d="M253.77,23.6c0,.89-.05,1.7,0,2.5s-.32.94-.85,1.13a8,8,0,0,1-4.54.22c-1.88-.43-3-2.12-3-4.36q0-4.05,0-8.08c0-.79-.2-1.21-1-1.09s-1.15-.37-1.07-1.18a5.65,5.65,0,0,0,0-1.3c-.08-.77.25-1.06,1-.94.93.15,1.21-.31,1.1-1.16a5.74,5.74,0,0,1,0-.72c0-2.88.5-3.27,3.39-2.77.63.11.64.45.64.9,0,.91,0,1.83,0,2.74,0,.73.2,1.07,1,1,.57-.05,1.16.07,1.72,0,1.39-.21,1.87.27,1.73,1.7-.18,1.84.45,1.73-2.11,1.75-2.3,0-2.3,0-2.3,2.24,0,1.83.1,3.67,0,5.49-.17,2.34,1.41,2.69,3,2.37A13.6,13.6,0,0,0,253.77,23.6Z"/><path class="cls-1" d="M138.6,23.61c.26,3.29.62,3.91-3.53,4-3.33.07-4.77-1.47-4.77-4.86,0-2.54,0-5.09,0-7.64,0-.82-.16-1.33-1.1-1.18s-1.32-.27-1.19-1.21a4.92,4.92,0,0,0,0-1.15c-.08-.79.17-1.21,1-1.07,1.08.17,1.35-.4,1.26-1.34a11.1,11.1,0,0,1,0-1.29c0-2,0-2,1.95-2,2.16,0,1.85-.27,1.88,1.94,0,.53,0,1.06,0,1.59-.07.79.22,1.15,1.06,1.1s1.54.06,2.3,0c1.06-.12,1.28.34,1.25,1.31-.1,2.57.28,2.11-2.13,2.14s-2.48,0-2.48,2.53v4.62c0,2.79,1,3.54,3.67,2.77Z"/><path class="cls-1" d="M146.58,13.42c1-1.15,1.72-2.29,3-2.8a5.63,5.63,0,0,1,.94-.35c1.61-.31,1.8-.15,1.8,1.51a2.81,2.81,0,0,0,0,.29c.23,1.45-.07,2.28-1.82,2.55-2.37.37-3.94,2.67-4,5.3q-.08,3.18,0,6.36c0,.8-.22,1.06-1.05,1.08-3,.05-3,.08-3-2.89,0-4.24,0-8.47,0-12.71,0-1,.28-1.43,1.29-1.27s2.05-.43,2.6.29C146.77,11.32,146.52,12.39,146.58,13.42Z"/><path class="cls-1" d="M88.72,16.31c0,3.32,0,6.65,0,10,0,.8-.19,1.06-1,1.08-3,.05-3,.09-3-3,0-6,0-11.93,0-17.9,0-1.16.24-1.57,1.48-1.53,2.6.1,2.61,0,2.61,2.68,0,2.89,0,5.77,0,8.66Z"/><path class="cls-1" d="M202.91,47.59c0,3.47,0,6.93,0,10.4,0,.95-.19,1.35-1.25,1.34-2.6,0-2.61,0-2.61-2.56,0-6.45,0-12.9,0-19.34,0-1.16.22-1.59,1.47-1.54,2.39.09,2.39,0,2.39,2.47Z"/><path class="cls-1" d="M250.33,50.85c0-2.46,0-4.92,0-7.37,0-.83.15-1.18,1.09-1.19,2.9,0,2.9-.07,2.9,2.81,0,4.33,0,8.66,0,13,0,.95-.24,1.25-1.2,1.23-3.36-.07-2.75.37-2.78-2.7,0-1.92,0-3.85,0-5.77Z"/><path class="cls-1" d="M293.36,18.91c0,2.46,0,4.91,0,7.36,0,.78-.18,1.07-1,1.09-3,.08-3,.11-3-2.9,0-4.23,0-8.46,0-12.69,0-1,.3-1.31,1.29-1.3,2.75,0,2.75,0,2.75,2.67Z"/><path class="cls-1" d="M291.64,4.19c.53.14,1.55-.36,1.74.27a10.76,10.76,0,0,1,.13,3.12c0,.29-.29.34-.53.34l-3.15,0c-.56,0-.57-.38-.57-.79,0-.71,0-1.43,0-2.15s.22-.86.83-.81S291.06,4.19,291.64,4.19Z"/><path class="cls-1" d="M252.4,39.76c-2.11,0-3-1.06-2.09-3.16.55-1.32,2.12-.31,3.21-.55.61-.13,1,.15,1,.85,0,.24,0,.48,0,.72C254.49,40.16,254.77,39.71,252.4,39.76Z"/></g></g></svg>