<svg xmlns="http://www.w3.org/2000/svg" viewBox="0 0 311.05 55.82"><defs><style>.cls-1{fill:#c2c1c0;}</style></defs><title>ICON_PRONEGA</title><g id="Layer_2" data-name="Layer 2"><g id="Layer_1-2" data-name="Layer 1"><path class="cls-1" d="M88.87,40.43c-.06-8.19,6.63-15.3,14.54-15.45S120,32.3,120.19,39.39c.25,9.58-6.56,16.39-16.44,16.43C95.57,55.85,88.92,49,88.87,40.43Z"/><path class="cls-1" d="M261.05,32.09c1.7,5.14-2.5,7-7.09,8.44-7.65,2.38-15.83-.62-19.11-6.87a15.43,15.43,0,0,1,4.24-19.24c4.56-3.62,13.43-4.12,18.29-1,1.2.76,2.67,1.59,1.68,3.22s-1.71,3.7-4.23,3c-1.15-.31-2.2-1-3.34-1.42a7.76,7.76,0,0,0-9.32,2.69,8.36,8.36,0,0,0-.54,10.23c2.17,3.44,5.68,4.51,9.59,3.78,1.69-.31,3.48-1.11,3.25-3.39s-2.05-1.49-3.26-1.45c-2.69.08-3.17-1.39-3.12-3.64,0-2.51,1.61-2.73,3.52-2.64.69,0,1.39,0,2.09,0C262.6,23.83,260.66,23.37,261.05,32.09Z"/><path class="cls-1" d="M148.09,25.19c0,3.77,0,7.71,0,11.65,0,1.94.75,4.16-2.85,4.13-3.14,0-3.81-1.14-3.74-4,.16-6.63-.05-13.27.12-19.9,0-1.65-1.36-4.25,1.31-4.85,2.46-.54,5.08-.6,7,2.13,3.08,4.41,6.51,8.58,10.17,13.35,1.46-4.33.72-8.28.69-12.1,0-2.78.86-3.54,3.55-3.61s3.05,1.23,3,3.49c-.1,7,.05,14,0,21,0,1.52,1,3.77-1.58,4.32a5,5,0,0,1-5.54-2c-3.09-4.22-6.29-8.35-9.48-12.49C150.19,25.71,149.82,24.77,148.09,25.19Z"/><path class="cls-1" d="M190.4,25.59c.47-3.81-2.07-10,1-12.66,2.63-2.28,8.62-.71,13.12-.81,1.92,0,3.84.11,5.75,0,2.3-.16,2.51,1.14,2.51,2.93s-.4,3-2.57,3c-3-.05-5.93,0-8.89,0-1.79,0-4-.76-4.11,2.41-.08,3.36,2.28,2.85,4.31,2.89s4.18.05,6.28,0c1.79,0,3,.32,3,2.56-.06,2-.37,3.47-2.82,3.4a35.59,35.59,0,0,0-5.75,0c-1.89.24-4.83-1.42-5,2.57s2.81,2.63,4.71,2.77a66.15,66.15,0,0,0,7.84,0c2.46-.1,3.38.86,3.32,3.39s-1.33,2.82-3.34,2.79c-5.23-.06-10.47-.13-15.69,0-2.68.08-3.83-.75-3.7-3.54C190.52,33.74,190.4,30.07,190.4,25.59Z"/><path class="cls-1" d="M68.49,40.4c-4.53,1.38-7.79.48-9.77-3.74-.43-.93-1.24-1.68-1.77-2.58-1.11-1.91-2.7-2.76-4.81-2s-1.15,2.6-1.28,4c-.21,2.22,1,5.15-3.27,4.87-2.33-.15-3.52-.61-3.49-3.23.11-7.49.09-15,0-22.47,0-2.09.41-3.25,2.85-3.16,4.18.16,8.37-.05,12.54.11,3.48.13,6.4,1.3,7.93,4.88s1.91,8-1,10.24c-4.74,3.73-1.92,6.18.11,9.22C67.33,37.65,68.49,38.57,68.49,40.4Zm-12-22.16c-3.49-.27-6-.78-5.8,3.2.15,2.66.16,4.83,3.83,4.38,2.84-.35,6.31.51,6.66-3.8S58,18.52,56.52,18.24Z"/><path class="cls-1" d="M103.89,0h10.46c3.2,0,5.4,2.07,5.14,4.75-.49,5.05-.08,10.08-.48,15.11-.14,1.76-.5,3-2.62,3.09-2.38.11-3.73-1-3.89-3.23-.2-2.77,0-5.57-.06-8.36,0-1.59,0-3.26-2.39-3.17-2.13.08-1.87,1.67-1.92,3-.08,2.09-.16,4.18-.08,6.27.09,2.41-1,3.5-3.38,3.6s-3.22-1-3.07-3.14-1.16-4-.38-6.15c.67-1.91.09-3.44-2.39-3.48-2.27,0-3.09,1.23-3.09,3.27,0,2.62.07,5.23,0,7.84,0,1.77-.13,3.5-2.68,3.57-2.32.06-2.84-1.32-3.31-3.18-1.3-5.22.66-10.66-1.46-16-.68-1.7,2-3.81,4.6-3.83C96.58,0,100.23,0,103.89,0Z"/><path class="cls-1" d="M307.91,40.85c-2.47.49-3.93-.75-4.58-3.08-1.47-5.35-5.85-2.88-9.11-3.43-2.83-.48-4.69.61-5.44,3.45a5.28,5.28,0,0,1-.5,1.48c-1.56,2.46-4.2,2-6.1,1.32-2.26-.87-.17-2.78.28-3.91,2.9-7.27,6.11-14.42,9.08-21.66,1-2.41,2.35-3.48,5.11-3.41s3.54,1.61,4.38,3.62c3.07,7.39,6,14.83,9.36,22.1C311.83,40.46,310.87,41.09,307.91,40.85ZM295.72,21.63c.23,2.59-3.64,4.12-1.61,6.57.83,1,3.62,1,4.28-.2C299.8,25.52,296.93,23.86,295.72,21.63Z"/><path class="cls-1" d="M9.16,12.13c1.39,0,2.79,0,4.18,0,5.62.22,9.31,3.26,9.85,8.09.65,5.93-1.85,9.85-7.43,11.44a10.57,10.57,0,0,1-4.1.58c-3.94-.51-5.47,1-4.88,4.93C7.14,39.59,6.57,41,3.51,41,.62,40.93.06,39.79.12,37.21.26,30.59.49,23.94,0,17.34c-.31-4.53,1.25-5.92,5.46-5.25A24.8,24.8,0,0,0,9.16,12.13Zm1,14c3.25.05,6.22-.4,6.26-4.09,0-3.47-2.85-3.77-5.59-4-3.1-.22-4.29.93-4.17,4.19C6.79,25,7.3,26.66,10.19,26.11Z"/></g></g></svg>