<svg xmlns="http://www.w3.org/2000/svg" viewBox="0 0 441.39 120.97"><defs><style>.cls-1{fill:#c2c1c0;}</style></defs><title>ICON_TEKNO</title><g id="Layer_2" data-name="Layer 2"><g id="Layer_1-2" data-name="Layer 1"><path class="cls-1" d="M314.51,121V0H441.39V121Zm33.68-56.58c0,3,.31,5.66-.13,8.19-.23,1.31-1.78,2.4-2.74,3.58-.95-1.2-2.69-2.38-2.73-3.61q-.37-12.16,0-24.33c0-1.24,1.62-3.28,2.73-3.46,2.31-.37,3,1.48,2.9,3.7-.12,2.59,0,5.18,0,8h12.26c0-3.37,0-6.47,0-9.56-.05-4.6-2.27-7.94-6.71-9.28a27.13,27.13,0,0,0-18.34.5,8.17,8.17,0,0,0-5.55,8.09c0,9.48,0,19,0,28.46a8.12,8.12,0,0,0,4.85,7.81c5,2.4,10.15,3.43,15.07-.56,1.64-1.32,3.51-2.37,5.29-3.53,5.89-3.84,7-6.75,5-14Zm49.29-17.72a23.76,23.76,0,0,0,4.15,0c3.38-.64,3.91.95,3.84,3.91-.18,8.25-.11,16.5,0,24.74a4.13,4.13,0,0,0,1.1,2.87,64.43,64.43,0,0,0,7.93,5.64c3,1.78,4.57.72,4.58-2.77,0-5,0-10,0-15V46.67h8.23V37.46h-29.8Zm2.7,27.22c.21-.61.4-.87.35-1.06-3.28-11.24-6.53-22.49-10-33.68-.27-.87-1.94-1.78-3-1.85-3.73-.22-7.5.11-11.22-.14-2.6-.17-3.78.62-4.39,3.2-1.29,5.45-2.91,10.83-4.36,16.24s-2.78,10.64-4.36,16.73c5.75-3.8,10.76-7,15.68-10.39,1.88-1.29,3.28-1.36,5.26.08C389.34,66.8,394.76,70.25,400.18,73.89Zm10,10c-9.49-6.49-18.16-12.5-27-18.3-.88-.58-2.9-.31-3.92.32-5.08,3.16-10,6.59-15,9.89-3.84,2.55-7.71,5-12.36,8.09Zm24.37-41.33,1.07.19,1.14-4.22c-1.79-.46-3.57-1.22-5.36-1.22-.56,0-1.77,2.21-1.54,3.13.65,2.77,2.06,2.55,3.47,0Z"/><path class="cls-1" d="M173.55,75.18h-5.62c-7.1,0-9.14-2.09-9.14-9.2,0-4.37-.07-8.75,0-13.12s2.42-6.79,6.7-6.92,8.5-.13,12.74,0c3.54.12,5.75,2.43,5.78,6,.08,8,.05,16,0,24,0,4.11-2.31,6.62-6.39,6.74a127.43,127.43,0,0,1-13.11-.29A3.32,3.32,0,0,1,162.31,80c.05-.84,1.44-2.11,2.41-2.29,1.93-.35,4,0,6-.13a14.84,14.84,0,0,0,3-.87Zm-.19-6.83c0-4.74.11-9.23-.09-13.7-.05-1-1.25-1.88-1.92-2.82-.6.91-1.67,1.79-1.72,2.73-.2,3.85,0,7.72-.12,11.58C169.44,69,170.81,69.22,173.36,68.35Z"/><path class="cls-1" d="M270.26,75c-.1,1-.18,1.51-.19,2-.14,6.79-.14,6.63-7.07,6.66-2.92,0-3.56-1.06-3.53-3.72q.19-15.33,0-30.66c0-2.53.6-3.56,3.32-3.46,5,.18,10,0,14.95,0,4.77,0,7.15,2.36,7.26,7.13s.08,9.73,0,14.59-2.24,7.1-7,7.41C275.55,75.17,273.06,75,270.26,75Zm-.11-6.59c2.78.86,4,.21,3.93-2.67-.14-3.61-.11-7.23,0-10.85.09-3.16-1.33-3.58-3.92-2.55Z"/><path class="cls-1" d="M76.78,74.32c-9.41,3.61-13.21-1.92-16.69-8.42a54.87,54.87,0,0,1-.1,6.91c-.11.85-1.33,1.57-2.05,2.33-.06.06-.25,0-.37,0-8.18.64-8.19.64-8.21-7.58,0-9.12.06-18.23-.06-27.35,0-2.56.77-3.58,3.42-3.55,9,.11,7.2-.51,7.36,7a91.69,91.69,0,0,0,.58,11.5c1.22-2.06,2.62-4,3.64-6.2a4.86,4.86,0,0,1,5.63-3.11,67.26,67.26,0,0,0,7.25,0c-2.8,4.45-5,8.19-7.43,11.69-1.46,2-1.47,3.57,0,5.64C72.23,66.76,74.38,70.51,76.78,74.32Z"/><path class="cls-1" d="M229.37,60.32c0,2.87.08,5.74,0,8.61-.13,3.49-2.11,5.74-5.49,6a114,114,0,0,1-14.2,0c-3.44-.19-5.58-2.82-5.63-6.3-.07-5.11-.11-10.23,0-15.35.11-5.34,2.36-7.42,7.64-7.4,3.62,0,7.24,0,10.85,0,4.61.05,6.81,2.29,6.86,6.93,0,2.49,0,5,0,7.49Zm-10.61-.14a31.31,31.31,0,0,0-.1-5.57c-.18-1-1.31-1.84-2-2.75-.66.85-1.86,1.67-1.9,2.55a115.39,115.39,0,0,0,0,11.91c0,.87,1.21,1.67,1.86,2.5.71-.89,1.87-1.71,2-2.7A36.72,36.72,0,0,0,218.76,60.18Z"/><path class="cls-1" d="M130.59,60.52c0,2.62.09,5.24,0,7.86-.15,3.79-2.14,6.25-5.87,6.51a99,99,0,0,1-13.45,0c-3.8-.26-5.77-2.61-5.86-6.49-.12-5.36-.13-10.74,0-16.1.12-4,2.4-6.21,6.37-6.34,4.24-.14,8.49-.17,12.73,0a6,6,0,0,1,6,6c.16,2.86,0,5.74,0,8.61Zm-10.69-.15a51.32,51.32,0,0,0-.09-6.33c-.09-.78-1.18-1.43-1.81-2.14-.65.72-1.83,1.41-1.86,2.15-.18,4.22-.18,8.46,0,12.68,0,.72,1.23,1.39,1.88,2.09.63-.71,1.7-1.36,1.79-2.12A53.43,53.43,0,0,0,119.9,60.37Z"/><path class="cls-1" d="M257.27,60.54c0,3.75-.09,7.51,0,11.25.07,2.33-.62,3.46-3.17,3.39-5.25-.14-10.5,0-15.75-.1-4.69-.14-6.77-2.37-6.81-7.08,0-6.37.06-12.75,0-19.12,0-2.3.77-3,3.07-3,9.37.2,7.65-1.25,7.81,7.57.07,4.13-.14,8.26.12,12.37.06,1,1.44,2,2.21,3,.57-1,1.6-2,1.63-3.07.16-5.37.19-10.76,0-16.13-.09-2.7.71-3.8,3.57-3.75,8.43.16,7.23-.56,7.3,7.17C257.29,55.54,257.27,58,257.27,60.54Z"/><path class="cls-1" d="M88.06,52.18c0,6.54-.14,12.91.06,19.26.09,3-.85,3.92-3.83,3.8-6.72-.26-6.71-.13-6.69-7,0-6.25.09-12.5,0-18.74-.06-2.66.66-3.81,3.59-3.67,5.11.23,10.24,0,15.36.08,4.34.09,6.35,2.21,6.37,6.54,0,6.5-.08,13,0,19.49,0,2.47-.81,3.32-3.26,3.23-9-.36-7.39,1.24-7.53-7.53-.06-4.25-.15-8.5,0-12.75C92.3,52,91,51.42,88.06,52.18Z"/><path class="cls-1" d="M32.28,64.48v4.31c3.35,0,6.55.11,9.75,0,2.57-.12,3.12,1.11,3.17,3.4s-1,3-3.11,3c-4.37-.08-8.75.11-13.12,0-5.15-.17-7.06-2.29-7.07-7.5s0-10.25,0-15.37c0-4,2.19-6.23,6.22-6.32s8.25-.09,12.37,0c4.52.14,6.54,2.25,6.65,6.8.06,2.75-.11,5.51,0,8.25.14,2.55-.75,3.64-3.43,3.51C40,64.35,36.31,64.48,32.28,64.48Zm4.64-6.4a53.84,53.84,0,0,0-1.59-5.87c-.11-.29-2.21-.26-2.27-.06-.53,1.87-.81,3.8-1.2,5.93Z"/><path class="cls-1" d="M84,77.58q35.42,0,70.83,0a9.06,9.06,0,0,1,4,.47,3,3,0,0,1,.69,2.92,3.88,3.88,0,0,1-2.91,1.49c-10.87,0-21.73-.21-32.59-.37-12.11-.17-24.22-.4-36.33-.54q-36.53-.42-73-.8a32.6,32.6,0,0,1-4.84-.42c-.6-.11-1.12-.73-1.67-1.11.56-.55,1-1.35,1.69-1.59a8,8,0,0,1,2.6-.07Z"/><path class="cls-1" d="M159.68,74.58c-7,1.6-12.63,1.41-14.92-7.09-2.39,8.57-8.32,8.38-15.2,7.24,2.58-4,4.92-7.91,7.52-11.63a4,4,0,0,0,0-5.32c-2.47-3.56-4.69-7.29-7.61-11.87,3.85,0,7.23-.86,9.75.25,2.36,1,3.79,4.17,5.42,6.13,1.81-2,3.4-5.07,5.87-6.19s5.74-.24,9.39-.24c-2.71,4.62-4.85,8.52-7.27,12.25a3.72,3.72,0,0,0,0,4.69C155,66.54,157.21,70.43,159.68,74.58Z"/><path class="cls-1" d="M8.66,43.72H.86c-1.69-6.4-1.26-7,4.6-7,6.37,0,12.74.12,19.1-.06,2.94-.08,3.55,1.2,3.59,3.8s-1,3.57-3.54,3.31c-1.58-.15-3.18,0-5,0,0,9.07,0,17.77,0,26.47,0,5,0,5-4.92,4.94a14.08,14.08,0,0,0-2.25,0c-3,.41-3.87-.8-3.81-3.77C8.77,62.39,8.66,53.4,8.66,43.72Z"/><path class="cls-1" d="M222.25,77.58c10.35,0,20.71,0,31.07,0,2.41,0,4.11.19,4,3.34s-2.27,2.78-4.18,2.76c-21.21-.24-42.41-.54-63.62-.78-1.83,0-3.14-.15-3.18-2.52s1.29-2.82,3.31-2.82c10.86,0,21.72,0,32.58,0Z"/><path class="cls-1" d="M204,45.91c-.5,3.53-.34,6.63-4.76,6.2-.37,0-1.31,1.85-1.33,2.86-.13,5.61-.14,11.24,0,16.85,0,2.35-.68,3.4-3.19,3.35-9.8-.19-8.17,1.4-8.3-7.86-.06-4.86-.08-9.74,0-14.6.1-4.43,2.37-6.68,6.74-6.78C196.59,45.84,200.06,45.91,204,45.91Z"/><path class="cls-1" d="M384.4,58.63h-5.9l2.66-11.07.76-.07C382.72,51.09,383.52,54.7,384.4,58.63Z"/></g></g></svg>