<svg xmlns="http://www.w3.org/2000/svg" viewBox="0 0 331.25 204.5"><defs><style>.cls-1{fill:#c2c1c0;}</style></defs><title>ICON_MATJAŽ</title><g id="Layer_2" data-name="Layer 2"><g id="Layer_1-2" data-name="Layer 1"><path class="cls-1" d="M276.75,95.61a91.67,91.67,0,0,1-71.08,68.59c-42.27,8.8-79.73-9.12-98.15-35.67,7.89.78,14.75-1.57,22,4.78C163,162.86,217,159.5,246.38,126.14c6.44-7.31,10.63-16.75,15.17-25.56,1.8-3.5,3.1-5.75,7.41-5C271.37,95.94,273.9,95.61,276.75,95.61Z"/><path class="cls-1" d="M10.16,81H.05V72.52C.05,63.68-.1,54.85.1,46c.23-9.88,3.13-18.65,13.09-22.71s19.24-2.13,26.89,6.48c5-4.61,10.23-8.38,17.4-8.36,12.15,0,21.64,7.46,22.4,19.52.82,13.09.18,26.26.18,39.83h-9.9V61.09c0-5.33,0-10.67,0-16-.09-7.9-5.21-13.57-12.2-13.61s-12.14,5.11-12.4,13c-.32,9.49-.12,19-.13,28.49,0,9.15,0,9.15-10.26,7.79V74.06c0-9.83.07-19.66,0-29.49-.06-7.06-4.7-12.27-11.31-13-6.16-.7-11.88,3.53-13,10.44-.79,5.06-.61,10.27-.67,15.42C10.09,65.2,10.16,73,10.16,81Z"/><path class="cls-1" d="M148,79.44c-.87.39-1.16.64-1.46.65-10.35.22-8.61,1.14-8.79-8-.16-8.15,0-16.32-.68-24.42-.94-10.72-8.74-17-19.33-16.4-9.44.55-16.46,8.27-16.71,18.37C100.62,67,115,76.09,130.48,68.3c1-.51,2-1.07,3-1.58.32.51.59.75.6,1,.51,10.66-3.46,13.85-16.54,13.31C103,80.43,91.89,69.56,90.57,53.37,89.4,39,96.45,26.65,110.57,22.6c15.05-4.31,29.56,2.46,35,16.16a38.3,38.3,0,0,1,2.34,12.64C148.27,60.7,148,70,148,79.44Z"/><path class="cls-1" d="M266.81,79.78c0-9.31.2-18.44-.1-27.55a29.6,29.6,0,0,0-2.23-11.07c-3.91-8.57-12.72-11.94-21.79-9C234.36,34.84,229,44.21,230.3,53.71c2.07,14.8,15.83,21.79,29,14.73,1.15-.62,2.29-1.28,4.06-2.27,0,3.46.52,6.52-.2,9.26-.41,1.55-2.65,3.16-4.4,3.75-21.4,7.29-40.37-8-38.72-31.08,1-14,10-24.07,23.54-26.41A28.31,28.31,0,0,1,275,39.18a40.52,40.52,0,0,1,2,8.71,45.1,45.1,0,0,1,.19,6.48c0,8.33,0,16.65,0,25.41Z"/><path class="cls-1" d="M317.78,31.54H288.51v-10c11.5,0,23-.41,34.38.14,7.69.37,10.1,7.37,4.9,13.86-7.8,9.73-16,19.14-24.06,28.69-1.49,1.77-2.93,3.58-5.1,6.25h31c.76.91.94,1,1,1.15,1.39,9.55,1.39,9.56-8,9.55-8.66,0-17.32,0-26,0-3.89,0-7.95-.33-9.86-4.43s-.22-7.77,2.5-11q13-15.48,26.05-30.93C315.93,34.05,316.48,33.25,317.78,31.54Z"/><path class="cls-1" d="M187.79,70.89v9.54c-14.26,3.73-26.77-4.62-27.28-19.24-.63-18.27-.15-36.58-.15-55.3h10.29V21.17h17V31.38H171.16c0,10.64-.45,20.75.2,30.78.31,4.79,4.28,7.71,9.3,8.28C182.94,70.7,185.24,70.74,187.79,70.89Z"/><path class="cls-1" d="M179.09,105.23V95.59c1.77-.08,3.23-.19,4.69-.21,11.12-.17,15-4.16,15-15.14q-.06-27,0-54V21.87h10.28v5.05q0,27.51,0,55c0,15.7-6.37,22.42-22.15,23.29C184.45,105.34,182,105.23,179.09,105.23Z"/><path class="cls-1" d="M139.3,197.16q-.24-2.9-.47-5.79c-.18-2.13.12-4.47-.68-6.34a5.22,5.22,0,0,0-4-2.51c-1,0-2.72,1.88-2.92,3.12-.46,2.75-.05,5.64-.25,8.45a12.11,12.11,0,0,1-1.26,3.31l-1.46-.31c0-4.66-.73-9.48.23-13.93.8-3.68,4.38-4.91,8.42-3.95a13.22,13.22,0,0,0,6.22.07c4.2-1.12,8.1.36,8.94,4.52.74,3.69.63,7.56.68,11.36,0,.63-1.07,1.28-1.65,1.92-.57-.69-1.59-1.35-1.65-2.08-.21-2.81.32-5.74-.29-8.43-.37-1.63-2.32-2.89-3.56-4.32-1.22,1.43-3.25,2.74-3.5,4.33-.54,3.41-.17,7-.17,10.48Z"/><path class="cls-1" d="M17.85,171.44c0,6.41.39,12.85-.14,19.21-.35,4.29-4.54,6.85-9.11,6.71S.87,194.54.38,190.2c-.62-5.58-.31-11.28-.24-16.92,0-.67,1-1.33,1.6-2,.54.69,1.52,1.36,1.55,2.08.19,3.81.1,7.64.21,11.46.06,1.81-.19,4,.71,5.31,1.15,1.68,3.36,3.71,5.05,3.65s4.42-2.32,4.69-3.95c.81-4.87.54-9.9.89-14.86.1-1.35.9-2.64,1.38-4Z"/><path class="cls-1" d="M259.88,171.39c0,6.72.52,13.5-.18,20.14-.47,4.42-6.69,6.83-11.26,5.28-5.1-1.74-7.36-6.83-5.38-12.13,1.75-4.7,6.88-7.13,11.28-5.17.92.41,1.46,1.66,3,3.53-2.67-.42-3.88-.68-5.11-.78-3.87-.32-6,1.53-6.33,5.35s1.51,6.36,5.21,6.62,5.71-2.42,5.87-6c.19-4.49,0-9,.13-13.49.05-1.24.82-2.45,1.25-3.67Z"/><path class="cls-1" d="M191.58,193.43a14.67,14.67,0,0,0,3.19.77c3.75.08,6-1.9,6.32-5.57s-1.35-6.3-5.14-6.56-5.82,2-5.86,5.77c-.06,4.65,0,9.3-.1,13.95,0,.91-.86,1.81-1.32,2.71-.62-.93-1.74-1.84-1.77-2.8-.17-5-.27-10,0-14.93a8.44,8.44,0,0,1,9.52-8c5.22.61,8.44,4.67,8,10.11-.43,5-4.57,8.92-9.27,8.32-1.54-.2-2.93-1.55-4.39-2.37Z"/><path class="cls-1" d="M330.13,184.37c-4.41,2.11-7.83,5.26-12.22,6l-.91-1.84,8-4.91c-3.07-2.64-5.59-2.08-7.76.59a6.19,6.19,0,0,0,1.33,8.82c3.06,2,5.55,1.13,7.75-1.62a14.86,14.86,0,0,1,3.22-2.36c-.21,1.5,0,3.25-.72,4.44a8.64,8.64,0,0,1-12.21,2.28c-4.27-3.1-5.22-9.86-1.93-13.67,3.48-4,9.18-4.55,12.84-1.12A30.9,30.9,0,0,1,330.13,184.37Z"/><path class="cls-1" d="M289.51,194.48c-1.29.91-2.45,2.3-3.88,2.66-4.19,1.07-8.77-1.86-10.1-6.11-1.5-4.8.86-10.05,5.18-11.55,4.67-1.62,10,0,11.22,4.44,1.1,3.85.75,8.14.87,12.24,0,.35-1.24.74-2.62,1.5-.16-3.13-.43-5.69-.4-8.25,0-3.24-.63-6.29-4.13-7-1.75-.34-4.89.49-5.53,1.74-1,2-1.44,5.3-.49,7.25,1.39,2.86,4.51,3.69,7.73,2a3.86,3.86,0,0,1,1.34-.15Z"/><path class="cls-1" d="M122.35,197.4a14.63,14.63,0,0,1-1.49-3.57c-.32-2.29,0-4.68-.42-6.94-.64-3.35-2.73-5.47-6.36-4.7s-5.13,3.61-4.4,7.16,3.11,5.32,6.9,4.62a6.75,6.75,0,0,1,3.74,0c-.79,1-1.39,2.35-2.4,2.78-4.4,1.91-9.61-.66-11.27-5.32s.48-10.14,4.64-11.84c4.81-2,10.6.06,11.82,4.86,1,4,.81,8.34,1.14,12.52Z"/><path class="cls-1" d="M206.78,187.76c.16-5.31,4.19-9.23,9.22-9a9.39,9.39,0,0,1,8.78,9.57,9.22,9.22,0,0,1-9.33,9A9.06,9.06,0,0,1,206.78,187.76Zm3.2-1.53c.21,5.28,2.12,7.77,5.72,7.82,3.41,0,5.31-2.32,5.43-5.8.12-3.76-2-6.46-5.46-6.08C213.39,182.42,211.38,185.16,210,186.23Z"/><path class="cls-1" d="M79.57,194.4c-1.07.93-2,2.34-3.23,2.7-4.51,1.32-9.51-2.13-10.37-6.86-1-5.76,1.78-10.29,7-11.24a8.58,8.58,0,0,1,10.28,7.53,43.87,43.87,0,0,1,0,7.94c-.09,1.05-1.09,2-1.67,3L80.16,197c0-2.6,0-5.19,0-7.78,0-5-2.14-7.57-6-7.21-3.46.31-5.67,3.51-5,7.22.72,3.92,3.76,5.48,8.24,4.27a8.58,8.58,0,0,1,1.35-.16Z"/><path class="cls-1" d="M155.78,187.9a8.93,8.93,0,0,1,9.15-9.1c4.67.08,8.44,4.21,8.44,9.22,0,5.56-3.53,9.32-8.76,9.35C159.78,197.39,155.77,193.08,155.78,187.9Zm3.07,1.87c1.48,1.14,3.45,3.89,5.71,4.14,3.41.39,5.66-2.19,5.58-6-.07-3.51-2-5.8-5.36-5.84C161.08,182,159.37,184.65,158.85,189.77Z"/><path class="cls-1" d="M21.27,195l10-1.85.29-1.37c-2-1.12-4.34-1.93-6-3.44s-2.65-3.67-3.94-5.54c2-1.16,3.8-2.72,5.92-3.34,2-.57,4.2-.12,7.33-.12-2.6,5.05-6.8,1.74-10.48,4.34,2.5,1.36,4.54,2.48,6.58,3.57,2.83,1.51,5.23,3.32,3.5,7a4.05,4.05,0,0,1-2.58,2.07c-3.35.51-6.75.66-10.13.94Z"/><path class="cls-1" d="M227.2,179.86l12.77-.64c.08,7-6.59,9.21-8.62,14.59l8.72.63.38,1.56c-1.35.4-2.75,1.25-4.06,1.13-3.16-.29-6.29-1-9.43-1.6,1.56-2.58,3-5.22,4.7-7.71,1.08-1.61,2.47-3,4.21-5.1l-8.59-.65C227.25,181.33,227.22,180.59,227.2,179.86Z"/><path class="cls-1" d="M203.62,0c4,.33,6.41,2.13,6.41,6.19s-2,6.24-6,6.24-6.11-2.19-6.22-6.13S199.93.33,203.62,0Z"/><path class="cls-1" d="M315.33,6.22c-.09,4-2,6.27-6.1,6.2s-6.1-2.42-6.08-6.35,2.21-5.83,6-5.89C313.05.12,315.41,2,315.33,6.22Z"/><path class="cls-1" d="M64.35,180.07c-1.89,5.05-3.56,10.2-5.73,15.13-1.33,3-3.55,3-4.85-.13a93,93,0,0,1-4.93-15.47c5,2.18,4.35,8.08,7.16,11.79,3.78-3.21,2-10,7-12.12Z"/><path class="cls-1" d="M303.47,191.68c4.94-11.44,4.94-11.44,8.2-12.47-2.38,6.1-4,11.74-6.75,16.8-1.79,3.31-3.67.48-4.45-1.46a99.15,99.15,0,0,1-4.71-14.75C301.45,181.39,300,187.93,303.47,191.68Z"/><path class="cls-1" d="M93.49,203.64c.14-.45.24-1.28.42-1.29,6.25-.64,5.52-5.18,5.42-9.45-.08-3.47-.17-7,.07-10.41.08-1.17,1.15-2.27,1.76-3.4l1.74.66c0,6.42.24,12.85-.07,19.26C102.59,203.84,98.68,205.62,93.49,203.64Z"/><path class="cls-1" d="M39.75,174.1l2.61,4.64,4.77,2-.35,1.2-4.67.82c-1.74,7.72-1.2,9.14,4.81,13.6-1.37.08-3.23.77-4,.14-1.85-1.5-4.26-3.5-4.51-5.53-.63-5.22-.21-10.56-.21-15.86Z"/><path class="cls-1" d="M87.31,180l10.21-1.16c-.53,1.33-.78,2.92-1.24,3-5.29.73-5.32,4.48-5.45,8.53-.07,2.25-1,4.47-1.56,6.71-.65-2.27-1.66-4.5-1.87-6.8C87.08,186.87,87.31,183.38,87.31,180Z"/><path class="cls-1" d="M264.93,197.24V180l9.79-1.14c-1.1,1.52-1.65,3.11-2.46,3.26-4.11.74-4.75,3.64-4.83,7-.06,2.68,0,5.35,0,8Z"/></g></g></svg>