<svg xmlns="http://www.w3.org/2000/svg" viewBox="0 0 195.35 90.81"><defs><style>.cls-1{fill:#c2c1c0;}</style></defs><title>ICON_AFIT</title><g id="Layer_2" data-name="Layer 2"><g id="Layer_1-2" data-name="Layer 1"><path class="cls-1" d="M140.92,89.14H123.37V41.53H95.93V89.12H78.28V41.49H67.18V26.77H78.26v-1c0-2.65-.05-5.32.19-7.95C79.27,8.79,84.58,2.22,93.91.58a41.52,41.52,0,0,1,20.78,1.88,1,1,0,0,1,.58.72c0,4.41,0,8.83,0,13.25a2.3,2.3,0,0,1-.08.4c-1-.32-2-.66-3.07-.94a24.51,24.51,0,0,0-9.89-.93A6.8,6.8,0,0,0,96,21.55c-.1,1.69,0,3.39,0,5.17h44.95Z"/><path class="cls-1" d="M42.59,53.17c.64-6.67-2.08-11.32-9.31-12.82a35.62,35.62,0,0,0-25.16,4l-.65.36-.2,0c0-1.31,0-2.59,0-3.88,0-3.34,0-6.68,0-10a1,1,0,0,1,.66-1.08,43,43,0,0,1,13.38-4,59.69,59.69,0,0,1,12.88-.49C41.67,25.82,48.54,28,54,33.48a20,20,0,0,1,6,13.27c.24,4.27.15,8.56.18,12.83,0,3.62,0,7.24,0,10.85,0,.36,0,.72,0,1.08.2,2.65,1.8,4.15,4.45,4a34.52,34.52,0,0,0,3.48-.48c0,.18,0,.44,0,.7,0,3.73,0,7.45,0,11.18a1.28,1.28,0,0,1-.71,1.25,15,15,0,0,1-7.24,2A20.41,20.41,0,0,1,51.38,89,12.08,12.08,0,0,1,45,83.19l-.34-.66s-.08-.08,0,0c-1.67,1.28-3.25,2.68-5,3.81-5.57,3.62-11.79,4.76-18.33,4.46A24.28,24.28,0,0,1,9.44,87.31,18.91,18.91,0,0,1,.21,72.86a21,21,0,0,1,1.69-12c1.93-4,5.22-6.55,9.07-8.49a28.84,28.84,0,0,1,12.27-3,41.92,41.92,0,0,1,16.09,2.35C40.43,52.2,41.5,52.71,42.59,53.17Zm.08,14.54h0c0-.83,0-1.66,0-2.48a1.06,1.06,0,0,0-.62-1.12,24,24,0,0,0-17.88-2.56A9,9,0,0,0,18.66,65a7.38,7.38,0,0,0,3.14,11A16.53,16.53,0,0,0,29,77.18c4.67-.07,8.84-1.37,12.26-4.69A3.72,3.72,0,0,0,42.69,69,7.26,7.26,0,0,1,42.67,67.71Z"/><path class="cls-1" d="M177.61,26.72h17.74V41.43H177.71c0,.29-.06.5-.06.71,0,8.12,0,16.24,0,24.35a14.1,14.1,0,0,0,.68,4.29c1,3,3.46,4,6.34,4.17a19.57,19.57,0,0,0,10-1.91c.12-.06.25-.1.46-.18,0,.29.06.51.06.74,0,4.37,0,8.73,0,13.09a1.06,1.06,0,0,1-.64,1.09,23.89,23.89,0,0,1-9,2.7,38.5,38.5,0,0,1-11.29-.27c-7.45-1.41-12.4-6.34-13.66-13.85a45.31,45.31,0,0,1-.63-7.07c-.07-8.92,0-17.84,0-26.76V41.48h-12.2V26.72H160V9.57h17.65Z"/><path class="cls-1" d="M123.37,3.53h17.51v17H123.37Z"/></g></g></svg>