<svg xmlns="http://www.w3.org/2000/svg" viewBox="0 0 209 209"><defs><style>.cls-1{fill:#c2c1c0;}</style></defs><title>ICON_GTG</title><g id="Layer_2" data-name="Layer 2"><g id="Layer_1-2" data-name="Layer 1"><path class="cls-1" d="M0,209V0C1.48.11,3,.32,4.45.32q100.05,0,200.1,0c1.48,0,3-.21,4.45-.32V209c-1.33-.07-2.65-.19-4-.19H4C2.65,208.81,1.33,208.93,0,209ZM168.83,54.33c4.22-1.28,7.3-2.47,10.49-3.12,4.38-.9,5.65-3,5.09-7.58-1.24-10.12-7.7-17.41-16.86-17.89-12.67-.66-20.67,4.58-21.6,16.11-1.16,14.57-.89,29.25-1.06,43.89a73.16,73.16,0,0,0,.94,11.9c1.52,9.9,8,15.56,18.42,16.34,8.31.62,17.1-4.74,18.4-13.63,1.78-12.18,1.54-24.65,2.18-37.18H165V75.42l4.79,1.48c0,6.56.07,12.88,0,19.2-.05,3.08-1.78,5.59-4.84,4.94-1.81-.39-3.31-3-4.56-4.84-.55-.8-.14-2.27-.14-3.43q0-17.25,0-34.49c0-4.83-.44-9.73.24-14.46.29-2,2.94-3.68,4.52-5.51,1.28,1.87,3.24,3.59,3.67,5.63C169.3,46.94,168.83,50.18,168.83,54.33Zm-84,22.4c0,6,0,11.84,0,17.64,0,3.41-.53,6.75-4.75,6.8s-4.85-3.32-4.88-6.68c0-7.67,0-15.33,0-23,0-8.83,0-17.66,0-26.49,0-3.15.75-6.53,4.53-6.55s4,3.27,4.07,6.25,0,5.88,0,9.61c3.87-1.21,6.76-2.5,9.77-3,5.24-.83,6.44-3.47,5.71-8.52-1.32-9.22-7.69-16.35-16.1-17-12-1-19.6,3.7-22.11,13.9a43.57,43.57,0,0,0-1.25,9.85q-.2,20,0,40a44.21,44.21,0,0,0,1.24,9.85c2.19,9.18,9.46,14.7,18.86,14.67,8.87,0,17.07-5.73,18-14.88,1.12-11.79.27-23.76.27-35.87H80.13C78.89,74.77,79.07,75.35,84.88,76.73Zm28.94-36.92c0,21.45-.08,42.27,0,63.08.07,11.94-1.9,9.93,10.24,10.38,4.31.16,5.26-1.4,5.22-5.42-.18-20.83-.08-41.66-.08-62.49V39.75l11.58-.51V26.81c-12.21,0-24,0-35.82.05-.89,0-2.51.59-2.54,1a43.16,43.16,0,0,0,0,10.35c.14.75,3.76,1,5.79,1.25C109.9,39.7,111.55,39.68,113.82,39.81Zm-5.82,138c9.4,3,14-.26,14.15-9.53.08-7,0-14,0-20.94,0-4.18-.73-8.23-4.88-10.16a8.07,8.07,0,0,0-9.62,1.59c-3-.71-5.22-1.83-7.13-1.45-1.08.21-2.35,2.89-2.37,4.47-.19,14.79,0,29.59-.18,44.38,0,4,1.42,5.07,5.26,5.07s5.05-1.43,4.8-5C107.85,183.61,108,181,108,177.81Zm60.32.29c0-9.94-.13-19.24.11-28.53,0-1.79,1.52-3.54,2.33-5.3,1,1.82,2.66,3.58,2.83,5.48.41,4.62.13,9.31.14,14v14.17h8.73a6.64,6.64,0,0,0,.57-1.66c.05-9.82.11-19.63.09-29.45,0-4-.88-7.88-4.89-9.66s-7.77-.5-9.49,1.4c-3.46-.59-5.85-1.52-8-1.12-.89.16-1.75,3.14-1.79,4.86-.18,8.48-.08,17-.08,25.46V178.1Zm-40.51-28.39h-.11c0,7.14-.08,14.28,0,21.42.09,6.56,3.7,9.33,10.05,7.71,1.27-.33,3.2-1.39,3.29-2.28.18-1.62-.35-4.46-1.36-4.86-3.08-1.24-2.51-3.51-2.51-5.72,0-12.45-.14-24.9.06-37.35.06-3.77-1.2-4.79-4.85-4.84-3.9-.06-4.77,1.46-4.66,5C128,135.76,127.81,142.74,127.81,149.71ZM153.27,178c0-12.38-.11-24.49.08-36.61.05-3.65-1.41-4.54-4.72-4.5s-4.9.71-4.83,4.45c.19,10.83.17,21.66,0,32.49-.06,3.44,1,5,4.52,4.56C149.77,178.2,151.22,178.16,153.27,178Zm.95-48.34c-.06-4.38-2.22-5.87-5.72-5.84-3.68,0-5.51,2.21-5.5,5.62,0,3.62,2.48,5.34,5.87,5.24S154.52,132.92,154.22,129.66Z"/><path class="cls-1" d="M108.13,157.44c0-3.31-.19-6.64.1-9.93.1-1.13,1.42-2.15,2.17-3.22.79,1.1,2.22,2.18,2.25,3.31.21,6.78.21,13.58,0,20.36,0,1-1.68,1.93-2.58,2.89-.64-1-1.76-1.95-1.83-3C108,164.4,108.14,160.92,108.13,157.44Z"/></g></g></svg>