<svg xmlns="http://www.w3.org/2000/svg" viewBox="0 0 312.7 106.55"><defs><style>.cls-1{fill:#c2c1c0;}</style></defs><title>ICON_TRGOTUR</title><g id="Layer_2" data-name="Layer 2"><g id="Layer_1-2" data-name="Layer 1"><path class="cls-1" d="M0,36.64c.32-1.52.59-3,1-4.54A21.4,21.4,0,0,1,10.6,18.86c1.19-.76,2.44-.54,3.69-.5.47,0,.75.45.94.9a18,18,0,0,0,7.65,9.13c.75.44.68,1.09.61,1.73a22.85,22.85,0,0,1-1.7,6.55c-.67,1.53-1.48,3-2.22,4.48a20,20,0,0,0-2.18,8.13,71.89,71.89,0,0,0,.9,11.63c.26,2.16-.32,2.88-2.53,2.89-3.2,0-6.4,0-9.6,0-1,0-1.5-.23-1.76-1.23C3,57.18,1.85,51.76,2.69,46.13c.14-.94.2-1.76-.94-2.26A8.07,8.07,0,0,1,0,42.44Z"/><path class="cls-1" d="M303.14,106.55c-1-.79-2.24-.78-3.29-1.38-.79-.45-1.12-.72-.5-1.68.75-1.16,1.27-1.56,2.64-.68a6.35,6.35,0,0,0,6.14.39A2,2,0,0,0,309.6,101c-.17-1.12-1-1.41-2-1.58a9.49,9.49,0,0,0-3.32.28,8.12,8.12,0,0,1-3,0,2.47,2.47,0,0,1-2.09-2.13,2.3,2.3,0,0,1,1.44-2.44c.34-.2.69-.38,1.06-.58-2.87-2.34-3.8-4.88-2.87-7.73,1.17-3.58,5.16-5.33,9-3.84a1.4,1.4,0,0,0,2-.54c1-1.44,1.33.22,1.91.51.79.38.63.92-.08,1.29-.89.47-.75,1-.4,1.82a6.44,6.44,0,0,1-5.6,9.24,23.06,23.06,0,0,0-2.87.41c-.45.09-1.14.2-1.08.86s.76.58,1.21.58a16.38,16.38,0,0,0,2.42-.23,11.43,11.43,0,0,1,3-.15,4.49,4.49,0,0,1,4.21,3.17,4.79,4.79,0,0,1-2.29,5.36c-1,.61-2.15.74-3.16,1.27Zm2.07-21.5a3.54,3.54,0,0,0-3.52,3.77c0,2.28,1.5,4,3.51,4s3.43-1.69,3.39-4A3.5,3.5,0,0,0,305.21,85.05Z"/><path class="cls-1" d="M0,76.63c3.16-.08,3.16-.08,3.16,3.1a86.54,86.54,0,0,0,.31,8.9L6.69,84c1.29-1.89,2.66-3.73,3.83-5.69.76-1.29,1.65-1.94,3.16-1.67a12.55,12.55,0,0,0,1.66,0l-1.95,2.87c-1.41,2-2.78,4.13-4.26,6.14a1.64,1.64,0,0,0-.05,2.15c2.24,3.63,4.41,7.31,6.6,11,.18.29.34.59.64,1.12a21.33,21.33,0,0,0-2.43,0,1.66,1.66,0,0,1-1.78-1c-1.88-3.13-3.81-6.24-5.86-9.58C4.88,91.48,2.66,93.05,3.15,96a3.86,3.86,0,0,1,0,.76c0,3.2,0,3.2-3.16,3.1Z"/><path class="cls-1" d="M53.42,63.71c-1.77,0-3.55.06-5.32,0-1.45-.07-1.77-1.07-1.64-2.34.39-3.67.95-7.33,1.09-11a15.82,15.82,0,0,0-1.81-8A44.66,44.66,0,0,1,41.8,33c-.28-1-.39-2.08-.58-3.12-.15-.84.51-1.24,1-1.54A18.27,18.27,0,0,0,49.36,20c.83-1.75,2-2.17,3.83-1.54,2.66.9,4.52,2.84,6.27,4.9,4.42,5.23,5.44,11.47,5.27,18.05A2.94,2.94,0,0,1,63,43.92a1.84,1.84,0,0,0-1,2.14A31.6,31.6,0,0,1,61.17,59a31.11,31.11,0,0,0-.67,3.56c-.13.79-.51,1-1.15,1.1C57.38,64,55.4,63.66,53.42,63.71Z"/><path class="cls-1" d="M174,45.12a25.24,25.24,0,0,1,1.51-9.27A14.89,14.89,0,0,1,185,26.64a23.16,23.16,0,0,1,13.66-.57c7,1.89,11,6.66,12.26,13.67a27.23,27.23,0,0,1-.24,10.9,16.84,16.84,0,0,1-15.33,13.51c-4.24.43-8.34.15-12.18-1.78-6.42-3.25-8.83-8.9-9.18-15.73C174,46.13,174,45.62,174,45.12Zm30.25-.06c-.12-1.44-.18-2.87-.36-4.27-.66-5.08-3.09-8.21-7.14-9.22a16.24,16.24,0,0,0-6.21-.3c-4.8.68-7.75,3.43-8.87,8.15A24.8,24.8,0,0,0,181.76,51c.91,3.83,3.23,6.37,7.2,7.17a17.69,17.69,0,0,0,4.24.33c6.07-.25,9.55-3.2,10.6-9.1C204.05,48,204.09,46.51,204.22,45.06Z"/><path class="cls-1" d="M312.67,63.77c-2.44,0-4.63,0-6.82,0A1.45,1.45,0,0,1,304.4,63c-2.24-3.93-4.58-7.8-6.72-11.78-.91-1.7-.27-3.69-.31-5.55,0-.43.53-.38.85-.48,3.17-.94,4.51-2.64,4.68-5.93,0-.3,0-.61,0-.91,0-4.6-1.79-6.69-6.33-7-2-.16-4,0-5.95-.07-1.19,0-.95.76-.95,1.44q0,13.43,0,26.85c0,1.36.57,3.1-.25,4s-2.6.26-3.95.29c-2.5.05-2.5,0-2.5-2.43,0-11.24,0-22.48,0-33.72,0-1.21.13-1.74,1.58-1.72,4.87.1,9.75-.49,14.62.06,4,.45,7.69,1.63,9.68,5.6a13.5,13.5,0,0,1-4.45,16.89c-.85.56-.61.92-.23,1.54q3.84,6.14,7.65,12.29C312.06,62.69,312.3,63.12,312.67,63.77Z"/><path class="cls-1" d="M135.84,63.77c-2.53,0-4.76,0-7,0a1.33,1.33,0,0,1-1.29-.84c-2.22-3.88-4.52-7.71-6.64-11.64-1-1.76-.32-3.78-.35-5.69,0-.5.64-.39,1-.5a5.67,5.67,0,0,0,4.49-5.46l0-.46c.27-5.63-1.93-7.95-7.58-8-1.42,0-2.85.07-4.27,0-1.17-.08-1.43.38-1.42,1.49,0,9.76,0,19.52.05,29.29,0,1.46-.35,2-1.83,1.82a13,13,0,0,0-3.05,0c-1.43.18-1.87-.25-1.86-1.78.08-10.22,0-20.44,0-30.66,0-1.48,0-3,0-4.43,0-.68.12-1,.91-1,4.92.06,9.84-.48,14.77,0,5.4.52,9.56,3.4,10.78,7.8,1.42,5.13.36,11.74-5.18,14.79-.9.5-.46.9-.15,1.4q3.83,6.15,7.64,12.29C135.2,62.62,135.43,63.06,135.84,63.77Z"/><path class="cls-1" d="M170.14,53.92c0,2.65,0,5.29,0,7.94,0,.67-.06,1.17-.88,1.31-6.34,1-12.71,1.86-19.09.54-7-1.45-11.26-5.69-12.57-12.8a31.52,31.52,0,0,1,.83-15.07c1.8-5.91,6.18-8.86,12-9.82a45.87,45.87,0,0,1,17.85.59c1.2.27,1.59.72,1.08,1.92a21.9,21.9,0,0,0-1,3.19c-.23.92-.59,1-1.5.71a30.5,30.5,0,0,0-13.84-1.21c-4.49.49-7.28,3.16-8.29,7.72a27.7,27.7,0,0,0-.14,11.36c1,4.88,3.17,7.11,8,7.86a27.25,27.25,0,0,0,9.4-.18c1-.19,1.43-.54,1.4-1.69-.11-3.36,0-6.72-.06-10.07,0-1.26.37-1.58,1.54-1.5a31.47,31.47,0,0,0,4.12,0c.9-.06,1.12.25,1.1,1.11C170.1,48.53,170.13,51.23,170.14,53.92Z"/><path class="cls-1" d="M271.15,39.11c0-4,0-7.94,0-11.91,0-1,.26-1.33,1.27-1.27,1.42.09,2.85.06,4.27,0,.8,0,1.18.11,1.17,1.06,0,7.83.08,15.67-.11,23.5-.2,8.22-5,13-13.23,13.66a29,29,0,0,1-9.84-.57c-6-1.52-9.37-5.51-9.48-11.65-.15-8.34,0-16.69-.08-25,0-.88.34-1,1.07-1,1.48,0,3,.08,4.43,0,1.06-.07,1.24.37,1.24,1.31,0,7.33.06,14.65,0,22s3.53,9.7,10.42,9.61a14.6,14.6,0,0,0,2.87-.33c3.8-.81,5.83-3.15,6-7.19s0-8.13,0-12.2Z"/><path class="cls-1" d="M32.6,0C40,.25,45.15,5.59,45.1,13.1A12.52,12.52,0,0,1,32.65,25.31,12.74,12.74,0,0,1,19.8,12.5,12.75,12.75,0,0,1,32.6,0Z"/><path class="cls-1" d="M90.62,47.7c0,4.89,0,9.77,0,14.65,0,1.15-.33,1.52-1.47,1.44a27.55,27.55,0,0,0-4,0c-1.12.09-1.32-.34-1.32-1.37,0-9.76,0-19.52.06-29.28,0-1.38-.37-1.72-1.69-1.66-2.69.11-5.39,0-8.09.05-.93,0-1.27-.24-1.19-1.19a18.27,18.27,0,0,0,0-3.05c-.1-1.08.28-1.37,1.35-1.36,5.59.05,11.19,0,16.78,0,3.1,0,6.2,0,9.3,0,.87,0,1.18.26,1.13,1.13-.09,1.41.44,3.23-.26,4.13s-2.65.25-4.05.31c-1.73.06-3.46.08-5.18,0-1.11-.06-1.49.24-1.47,1.42C90.66,37.84,90.62,42.77,90.62,47.7Z"/><path class="cls-1" d="M223.14,47.55c0-4.89,0-9.77,0-14.65,0-1.17-.33-1.45-1.45-1.42-2.75.09-5.5,0-8.24.06-1,0-1.35-.3-1.26-1.3.13-1.35-.54-3.09.26-4s2.59-.29,3.94-.29c7.62,0,15.25,0,22.88,0,1,0,1.46.21,1.37,1.31-.11,1.36.44,3.15-.24,4s-2.56.25-3.91.28c-1.78.05-3.56.09-5.33,0-1.2-.07-1.41.37-1.41,1.47,0,9.71,0,19.43.05,29.14,0,1.3-.25,1.85-1.66,1.71a21.92,21.92,0,0,0-3.8,0c-1.06.08-1.26-.33-1.25-1.29C223.17,57.51,223.14,52.53,223.14,47.55Z"/><path class="cls-1" d="M46.1,83.4c0-2.24.07-4.36,0-6.47-.07-1.56,1-1,1.75-1.09s1.41-.11,1.4,1.1c-.06,7.16,0,14.33,0,21.49,0,.48.37,1.3-.41,1.38s-2,.49-2.56-.26c-.37-.47-.4-.53-.91-.29-5.48,2.58-10.66-.67-10.85-6.74a10.17,10.17,0,0,1,2.5-7.6A7,7,0,0,1,45.13,83Zm0,8.1V88a2.56,2.56,0,0,0-2.62-2.84A4.65,4.65,0,0,0,38.9,87.3a7.79,7.79,0,0,0-.76,7,4.93,4.93,0,0,0,6.44,2.94A2,2,0,0,0,46.13,95,31.4,31.4,0,0,1,46.1,91.5Z"/><path class="cls-1" d="M115.78,90.18c1.45-1.75,2.92-3.49,4.36-5.25,1.89-2.3,1.88-2.3,5.29-2-1.48,1.78-2.78,3.5-4.26,5A1.91,1.91,0,0,0,121,90.8c1.71,2.52,3.28,5.13,4.9,7.72.23.36.62.68.52,1.2-2,.5-3.42.15-4.41-1.92s-2.3-3.7-3.42-5.58c-.41-.69-.62-.57-1.22-.15-2.3,1.57-2,3.9-1.88,6.15.09,1.33-.25,1.72-1.63,1.7s-1.48-.42-1.47-1.57c.05-7,.06-14,0-21,0-1.26.37-1.54,1.55-1.51s1.61.14,1.58,1.46c-.1,4.25,0,8.51,0,12.77Z"/><path class="cls-1" d="M28,98.09a7.29,7.29,0,0,1-5.25,2.07A4.78,4.78,0,0,1,18,97.22a4.94,4.94,0,0,1,.78-5.55c2.07-2.43,4.84-3.06,7.86-2.64,1.06.15,1.08-.15.92-1a3,3,0,0,0-3-2.75,6.27,6.27,0,0,0-4.09.91c-.42.28-.9.73-1.12-.1s-1.51-1.43-.35-2.34c2.2-1.71,7.36-1.73,9.57,0,1.68,1.29,2.12,3.16,2.17,5.14s0,4,0,6c0,1.32,0,2.64,1.11,3.65A1.22,1.22,0,0,1,32,99.89c-.22.49-.82.24-1.24.19A3.32,3.32,0,0,1,28,98.09Zm-.29-4.6c-.28-.62.61-1.68-.66-2.11a5.62,5.62,0,0,0-5.76,1.82,3,3,0,0,0-.36,3.16,2.56,2.56,0,0,0,2.54,1.33C26,97.79,27.65,96.21,27.66,93.49Z"/><path class="cls-1" d="M215.41,100.16c-4.45,0-7.08-2.56-7.7-7.52-.66-5.25,2-9.33,6.52-10.1a7.12,7.12,0,0,1,8.35,5.16,12.18,12.18,0,0,1,0,7A7,7,0,0,1,215.41,100.16Zm-4.48-8.77a8.94,8.94,0,0,0,.58,3.64,4.06,4.06,0,0,0,7.34.47,9.34,9.34,0,0,0,.21-8.23,4,4,0,0,0-7-.45A7.48,7.48,0,0,0,210.93,91.39Z"/><path class="cls-1" d="M162.07,91.33a10.59,10.59,0,0,1-.45,3.31,7.08,7.08,0,0,1-7.27,5.52c-3.75,0-6.3-1.82-7.26-5.48-1-3.88-.82-7.64,2.44-10.5a7.47,7.47,0,0,1,12,3.56,16.24,16.24,0,0,1,.45,2.07C162.06,90.31,162.05,90.83,162.07,91.33Zm-12.16.15a8.12,8.12,0,0,0,.39,3A3.84,3.84,0,0,0,154,97.6a3.94,3.94,0,0,0,4.13-2.69,10.4,10.4,0,0,0,.11-7.15,3.62,3.62,0,0,0-3.33-2.67,3.94,3.94,0,0,0-4.08,2A7.78,7.78,0,0,0,149.91,91.48Z"/><path class="cls-1" d="M80.35,91.16A14.93,14.93,0,0,1,80,94.32c-1,4-3.87,6-8.1,5.82a7.25,7.25,0,0,1-6.84-6.59c-.41-3.1-.25-6.15,2-8.63s5.21-3,8.35-2,4.4,3.53,4.87,6.57C80.34,90.08,80.32,90.69,80.35,91.16Zm-3.21.12c-.12-.9-.17-1.82-.37-2.7-.54-2.36-1.8-3.45-3.93-3.51a4.08,4.08,0,0,0-4.23,3.22,10.82,10.82,0,0,0,0,6.15,3.89,3.89,0,0,0,3.61,3.16,4,4,0,0,0,4.27-2.74A12,12,0,0,0,77.14,91.28Z"/><path class="cls-1" d="M236.93,97.77c-2.23,1.91-4.24,2.74-6.61,2.27-2.65-.52-4.2-2.29-4.31-5.31-.13-3.66,0-7.32-.07-11,0-1.34.94-.93,1.6-.94s1.6-.38,1.58,1c-.05,3.25,0,6.51,0,9.76,0,2.77,1.09,4,3.44,4a4.06,4.06,0,0,0,4.21-4.17c0-3,.08-6,0-9,0-1.3.38-1.59,1.61-1.59s1.56.3,1.54,1.53c-.07,4.63,0,9.25,0,13.88,0,.65.54,1.82-1,1.69C237.86,99.77,236.21,100.52,236.93,97.77Z"/><path class="cls-1" d="M175.87,97.79c-2.2,1.88-4.2,2.72-6.58,2.26-2.63-.51-4.2-2.26-4.32-5.31-.14-3.65,0-7.32-.05-11,0-1.45,1.05-.88,1.74-1s1.42-.18,1.39,1c-.06,2.9,0,5.8,0,8.69,0,.36,0,.72,0,1.07.09,1.51.22,3.09,1.87,3.7a4.46,4.46,0,0,0,4.68-1,3.09,3.09,0,0,0,1.14-2.53c0-3.2.05-6.41,0-9.61,0-1.23.43-1.45,1.5-1.38s1.73-.11,1.69,1.36c-.1,4.68,0,9.36-.06,14,0,.66.53,1.82-.95,1.68C176.85,99.75,175.14,100.59,175.87,97.79Z"/><path class="cls-1" d="M284.75,84.74a6.07,6.07,0,0,1,6.35-2.09c2.48.56,4,2.37,4.07,5.33.11,3.65,0,7.31.06,11,0,1.51-1.11.77-1.76.89s-1.38.15-1.35-1c.08-2.85,0-5.69,0-8.54a18.71,18.71,0,0,0-.14-2.12c-.19-1.52-.79-2.73-2.5-3A5.07,5.07,0,0,0,285,87a2.18,2.18,0,0,0-.18,1.32c0,3.46-.09,6.91,0,10.37.05,1.6-.93,1.14-1.76,1.23s-1.45-.05-1.43-1.25c.08-4.73,0-9.45.05-14.18,0-.56-.46-1.45.55-1.63s1.84,0,2.08,1.19A4.18,4.18,0,0,0,284.75,84.74Z"/><path class="cls-1" d="M107.66,86.49a6.32,6.32,0,0,0-3.85-1.35c-1,.08-1.88.32-2.17,1.36a2,2,0,0,0,1.13,2.42c1.38.77,2.83,1.38,4.2,2.15a4.81,4.81,0,0,1-1,8.71,9.59,9.59,0,0,1-7-.55c-1.73-.81-.09-1.8,0-2.65s.81-.33,1.23-.09a6.16,6.16,0,0,0,3.76,1,2.08,2.08,0,0,0,1.88-1.32,2.21,2.21,0,0,0-.47-2.4,6.23,6.23,0,0,0-2-1.33,13.47,13.47,0,0,1-3.66-2.14,4.36,4.36,0,0,1,1.77-7.51c2.22-.69,4.31-.13,6.39.62a.65.65,0,0,1,.44.95C108.12,85,107.91,85.7,107.66,86.49Z"/><path class="cls-1" d="M199.57,100.15a10.55,10.55,0,0,1-3.91-.76c-.85-.3-1.22-.65-.77-1.66.76-1.72.69-1.76,2.4-.9a5.34,5.34,0,0,0,2.47.67c1.13,0,2.18-.24,2.55-1.48a2.27,2.27,0,0,0-1.1-2.75c-1.08-.66-2.25-1.17-3.36-1.78-1.61-.89-3-2-3.14-4-.3-3.21,2.43-5.46,6.06-5,.95.12,1.87.48,2.81.67s1.35.63,1,1.75-.64,1.8-1.91.8a3.46,3.46,0,0,0-2.48-.58c-.93.1-1.88.29-2.17,1.35a2,2,0,0,0,1.12,2.42c1,.54,2,1,3,1.47A6.68,6.68,0,0,1,205,92.62a4.75,4.75,0,0,1-2.75,7.2A7.6,7.6,0,0,1,199.57,100.15Z"/><path class="cls-1" d="M183.88,90.7c0-1.47,0-3,0-4.42,0-.71-.19-1.1-.94-1-1.13.17-1-.56-1-1.31s.07-1.32,1-1.19c1.23.16,1-.76.92-1.4-.14-1.46.13-2.49,1.82-2.89,1-.23,1.27-.34,1.26.84,0,3.42,0,3.44,3.31,3.44.92,0,1.5,0,1.49,1.25s-.52,1.28-1.47,1.27c-3.35,0-3.38,0-3.34,3.3a43.6,43.6,0,0,0,.11,5.94c.38,2.57,1.57,3.44,4.11,2.8.95-.24,1.41-.22,1.48.85,0,.81.47,1.79-1,1.73-.55,0-1.11.18-1.66.21-4.11.19-6-1.65-6.06-5.77,0-1.22,0-2.44,0-3.66Z"/><path class="cls-1" d="M255.38,91.47c-.28-7.61,7-10.84,12.8-7.94.42.21,1.52.3.76,1.17-.47.54-.41,2-1.91,1.23-2.93-1.44-5.65-1-7.18,1.11-1.77,2.4-1.71,6.77.12,8.86a5.74,5.74,0,0,0,7,.81c.74-.41,1.29-.95,1.77.36.35,1,.88,1.67-.56,2.2a12.42,12.42,0,0,1-6.28.78C257.8,99.42,255.37,96.18,255.38,91.47Z"/><path class="cls-1" d="M97,82.86c-.8,1.85-1.56,3.66-2.34,5.47C93.12,92,91.57,95.61,90,99.24c-.16.38-.17.93-.83.93s-.67-.56-.83-.94C86.18,94.14,84.08,89,81.9,83.94c-.46-1.08-.19-1.17.85-1.25a2.32,2.32,0,0,1,2.82,1.9c1,3.22,2.36,6.35,3.7,9.87,1.14-2.9,2.14-5.48,3.15-8,.15-.38.27-.77.41-1.15C93.84,82.53,93.84,82.53,97,82.86Z"/><path class="cls-1" d="M247.31,85a5.73,5.73,0,0,1,6.32-2.38c.65.15.75.31.48.87a12.3,12.3,0,0,0-.66,1.54c-.17.48-.39.56-.91.44-3-.71-5.15.87-5.28,4-.12,3-.15,6,0,9,.07,1.5-.73,1.31-1.67,1.36s-1.52-.12-1.5-1.37c.09-4.73.05-9.45,0-14.18,0-.94,0-1.68,1.3-1.57,1,.09,2.12-.12,1.82,1.51A3.39,3.39,0,0,0,247.31,85Z"/><path class="cls-1" d="M56.85,85.05a5.86,5.86,0,0,1,6.36-2.4c.66.15.73.36.49.89s-.48,1-.68,1.54-.37.57-.91.43c-3-.78-5.22,1-5.3,4.18-.07,3-.11,5.9,0,8.85.07,1.51-.76,1.29-1.69,1.34s-1.53-.06-1.51-1.34c.09-4.73.07-9.46,0-14.19,0-1.07.09-1.65,1.43-1.61s2,.21,1.71,1.66A3.64,3.64,0,0,0,56.85,85.05Z"/><path class="cls-1" d="M133.3,91.36c0,2.44-.08,4.88,0,7.32.07,1.48-.86,1.15-1.67,1.18s-1.57.14-1.54-1.17c.08-4,0-7.94,0-11.9,0-1-.2-1.54-1.32-1.36s-.93-.68-1-1.35-.05-1.41,1.07-1.31a20.11,20.11,0,0,0,3.2,0c1-.07,1.19.37,1.18,1.25C133.27,86.47,133.3,88.92,133.3,91.36Z"/><path class="cls-1" d="M277,91.44c0,2.43-.08,4.87,0,7.3.06,1.23-.6,1.18-1.4,1.11s-1.76.44-1.73-1.1c.08-4,0-7.91,0-11.86,0-1-.09-1.67-1.35-1.47s-.9-.74-.94-1.39,0-1.22,1-1.27c4.38-.21,4.37-.25,4.37,4.12v4.56Z"/><path class="cls-1" d="M275.57,80.2a1.82,1.82,0,0,1-1.81-2,1.77,1.77,0,0,1,1.79-1.87,1.92,1.92,0,0,1,2,1.86A2,2,0,0,1,275.57,80.2Z"/><path class="cls-1" d="M133.74,78.25a1.81,1.81,0,0,1-1.87,1.93,1.9,1.9,0,0,1-.07-3.8A1.85,1.85,0,0,1,133.74,78.25Z"/></g></g></svg>