<svg xmlns="http://www.w3.org/2000/svg" viewBox="0 0 391.13 246.13"><defs><style>.cls-1{fill:#c2c1c0;}</style></defs><title>ICON_CVS</title><g id="Layer_2" data-name="Layer 2"><g id="Layer_1-2" data-name="Layer 1"><path class="cls-1" d="M331.89,169c-22.37-.15-41.35-7.06-57.31-21.89-1.56-1.45-2-2.23-.17-3.91,4.55-4.26,8.95-8.69,13.23-13.23,1.53-1.62,2.25-1.26,3.72.07,16.37,14.88,35.42,19.73,56.73,13.93,14.78-4,21.57-18.13,16.33-32.55-3.3-9-10.95-12.31-19.52-13.86-9.76-1.77-19.67-2.75-29.39-4.72-13.59-2.74-25.67-8.46-32.29-21.52-10.15-20-7.43-55.83,26.45-66.95C334.45-3.8,358.35-.59,380,14.91c5.61,4,5.52,4.16.61,9-3.1,3.09-6.34,6-9.32,9.24-1.56,1.66-2.41,1.83-4.37.27-13.5-10.74-29-13.49-45.4-9.41C303.42,28.56,299.5,46.74,305,58c3.86,7.87,11.36,10.84,19.35,12.49,10.46,2.16,21.21,2.7,31.59,5.3,13.7,3.43,25.52,9.79,31,23.62,9.72,24.67,3.64,54.44-29.67,65.7A80.86,80.86,0,0,1,331.89,169Z"/><path class="cls-1" d="M118.81,51.48c-8.18,0-16.15,0-24.13,0-1.7,0-1.79-.92-2.15-2.17-1.79-6.23-4.25-12.2-8.89-16.9-9.4-9.54-21-11-33.34-8.14C37.8,27.22,30.91,36,27.7,48.11c-1.93,7.26-2.17,14.67-2.33,22.08-.29,12.89-.43,25.8.43,38.67.66,10,2.5,19.86,9.73,27.5,16.9,17.82,47.17,11.34,55.8-11.79.83-2.21.57-5.47,2.49-6.45s4.91-.31,7.42-.32h17.39c-3.28,26.62-22.23,46.67-48.54,50.36-24.31,3.4-44.95-3.72-59.9-24-6.62-9-8.78-19.54-9.45-30.48C-.21,97.89-.1,82.14.27,66.4.5,57,.67,47.6,3.64,38.55c5.15-15.69,15.83-26.47,30.65-33,16-7,32.58-7.21,48.78-1C104.36,12.64,114.91,29.46,118.81,51.48Z"/><path class="cls-1" d="M266.09.06l-67.3,169.31c-2.18-5.39-4.18-10.25-6.12-15.13q-17.22-43.38-34.47-86.73c-.9-2.25-.62-3.21,1.54-4.48Q211.67,32.35,263.49,1.48C264.13,1.1,264.8.76,266.09.06Z"/><path class="cls-1" d="M132.2.52l64.07,38.07-13,7.72q-12.51,7.44-25,14.88c-1.08.64-1.88,1.35-2.64-.58Q144,30.85,132.11,1.17C132.07,1.09,132.13,1,132.2.52Z"/><path class="cls-1" d="M276,225.59c5.22-4.29,9.2-4.14,13.41.57,1.46-1.77,3.06-3.25,5.52-3.51,5.88-.6,8.66,1.8,8.69,7.69,0,4.38,0,8.76,0,13.13,0,.94.27,2-1.34,2s-1.37-1-1.37-2c0-4.27,0-8.54,0-12.8,0-2.92-.81-5.21-4.06-5.77s-5.68,1-6.58,4.41c-1.14,4.29-.2,8.71-.57,13-.09,1,1.14,3-1.2,3-2.56,0-1.35-2.05-1.4-3.15-.16-3.72,0-7.44-.07-11.16-.07-4-1.51-6-4.39-6.22a6.09,6.09,0,0,0-6.6,5.86c-.3,3.92-.08,7.87-.22,11.81,0,1.08.89,3-1.43,2.87s-1.25-1.95-1.27-3c-.11-5.47-.09-10.94,0-16.41,0-.93-.75-2.32.93-2.72C276,222.84,275.18,225,276,225.59Z"/><path class="cls-1" d="M.07,245.16C4,235.53,7.9,226,11.68,216.46a2.42,2.42,0,0,1,2.66-1.75c1.42,0,1.8.76,2.24,1.87,3.46,8.9,7,17.77,10.43,26.69.23.59,1.5,1.64,0,2.11-1,.31-2.39.52-2.95-1.14-.73-2.15-1.65-4.25-2.42-6.39a2.52,2.52,0,0,0-2.83-2c-3.27.14-6.56.13-9.83,0a2.47,2.47,0,0,0-2.82,2c-.63,1.85-1.54,3.62-2,5.49C3.53,245.65,2.18,245.84.07,245.16ZM14,217.91c-2.14,5.48-4,10.32-6,15.28H19.73Z"/><path class="cls-1" d="M181.36,226.57c0-3.59-.07-6.41,0-9.23,0-1-.86-2.57,1.33-2.61s1.51,1.45,1.51,2.52c0,8.41,0,16.83,0,25.24,0,1,.9,2.57-1,3-2.4.5-1.35-1.82-2.1-2.8-3.36,3.53-7.38,4.37-11.67,2.55s-5.61-5.87-5.78-10.2c-.32-8.17,4.07-12.94,11.14-12.37C177.34,222.83,179.3,224,181.36,226.57Zm0,7.62a8.82,8.82,0,0,0-.79-4.54c-1.25-3-3.48-4.73-6.77-4.74s-5.46,2-6.53,5a12.43,12.43,0,0,0,.29,9.54,6.54,6.54,0,0,0,4.08,3.92C176.89,245,181.33,241,181.36,234.19Z"/><path class="cls-1" d="M46.76,242.66c-5.69,4.35-11.59,4.45-15,.26-3.89-4.75-3.59-13.77.61-17.85,3.74-3.63,9.67-3.3,14.39,1.16,0-3.46,0-6.55,0-9.64,0-1.05-.06-1.92,1.47-1.87s1.44.92,1.44,2c0,8.52,0,17-.06,25.55,0,1.06,1,2.89-1,3.2C46.23,245.76,47.73,243.36,46.76,242.66Zm-.07-8.21a17.49,17.49,0,0,0,0-2.29c-.72-5.29-5.21-8.46-9.67-6.85-3.27,1.18-5.14,4.46-5.12,9s1.89,7.83,5.15,9C42.2,245.14,46.69,241,46.69,234.45Z"/><path class="cls-1" d="M239,238.22c-2,6.42-5.36,8.57-11.85,7.68-4.51-.61-7.67-4.76-7.78-10.25a17,17,0,0,1,.76-6.79c1.94-4.94,6.59-7.3,12-6,4,1,7.41,6.2,7.1,10.67-.11,1.54-.94,1.43-1.94,1.43-4.38,0-8.76.08-13.13,0-1.89-.05-2.25.7-1.91,2.33a7.92,7.92,0,0,0,6.2,6.41c3,.53,5.46-.88,7.33-4.25C236.51,238.08,236.51,238.08,239,238.22Zm-16.79-5.49c4.16,0,8.28,0,12.4,0,1.74,0,1.63-.75,1.34-2-.76-3.29-3.51-5.79-6.61-5.81C225.73,224.87,223.13,227.64,222.23,232.73Z"/><path class="cls-1" d="M269.34,238.13c-2.12,6.54-5.44,8.65-11.88,7.78-4.49-.61-7.66-4.73-7.86-10.23a16.47,16.47,0,0,1,.92-7.09c2-4.79,6.56-7,11.82-5.73,4,1,7.41,6.27,7.1,10.67-.14,1.84-1.27,1.42-2.26,1.43-4.27,0-8.53.08-12.8,0-1.89-.05-2.23.65-1.84,2.33.82,3.51,3,5.86,6.17,6.41s5.64-.78,7.25-4.31C266.79,237.56,267.85,238,269.34,238.13Zm-2.59-5.4c-.27-1-.41-1.5-.56-2-1-3.65-3.4-5.75-6.53-5.81s-5.72,2.29-6.89,5.9c-.59,1.84.06,2,1.56,1.95C258.36,232.69,262.39,232.73,266.75,232.73Z"/><path class="cls-1" d="M323,241.91c-2.64,3.86-5.93,4.46-9.6,4-3.48-.41-5.66-2.58-5.9-5.9a6,6,0,0,1,4.77-6.53,61.19,61.19,0,0,1,7.74-1.26c1.63-.19,2.79-.82,2.92-2.49a4,4,0,0,0-2.07-4.13,6.34,6.34,0,0,0-9.3,3.39c-.53,1.54-1.38,1.12-2.2,1.05-1.32-.1-.55-1.16-.56-1.77a3.88,3.88,0,0,1,.5-1.53c1.69-3.58,6.05-5.06,11.45-3.91,3.3.71,5,3,5.12,7,.08,3-.09,5.91.06,8.85.09,1.71-1.14,4.21,2.1,4.57.16,0,.31.74.35,1.15.07.75-.54.84-1.08.92C325,245.68,323.38,245.06,323,241.91Zm0-5.75c-.16-.85.54-2.39-1.44-2-2.67.49-5.37.89-8,1.57-1.76.47-3.21,1.66-3.14,3.69.08,2.2,1.37,3.54,3.55,4.13C318.45,244.72,322.91,241.16,323,236.16Z"/><path class="cls-1" d="M160.89,238.25c-1.76,6.24-4.76,8.29-11.24,7.7-4.7-.44-8-4.22-8.37-9.73a17.15,17.15,0,0,1,.8-7.43c1.82-4.87,6.67-7.23,12-5.91,4.07,1,7.42,6.31,7,10.73-.15,1.6-1.07,1.35-2,1.35-4.26,0-8.53.08-12.79,0-2.26-.06-2.57.8-2,2.77,1.1,3.53,3.38,5.93,6.49,6a6.69,6.69,0,0,0,6.79-4.14C158.37,238,158.47,238,160.89,238.25Zm-2.76-5.62c-.69-5.19-3.26-7.92-7.18-7.72-3.73.2-6.34,3.27-6.54,7.72Z"/><path class="cls-1" d="M88.93,241.9c-2.67,3.7-5.8,4.44-9.38,4.07s-5.77-2.31-6.09-5.62c-.36-3.68,1.2-6,4.94-6.91a68.35,68.35,0,0,1,7.4-1.22c1.56-.2,2.78-.66,2.94-2.44a4,4,0,0,0-2-4.14,6.42,6.42,0,0,0-9.23,3c-.53,1.26-1.19,1.8-2.4,1.46-1.66-.47-.58-1.56-.33-2.33,1.32-4.24,5.3-5.94,11.4-4.94,3.69.6,5.29,2.78,5.3,7.29,0,2.73-.12,5.47,0,8.19.11,1.82-1.1,4.32,2.17,5,.53.1.92,1.81-.68,2.07C90.77,245.7,89.11,245.08,88.93,241.9Zm-.17-5.57c-.43-.68.88-2.44-1-2.22a66.86,66.86,0,0,0-8.61,1.7,3.48,3.48,0,0,0-2.89,3.48c-.06,2.05,1.09,3.21,2.8,4C83.6,245.19,88.68,241.58,88.76,236.33Z"/><path class="cls-1" d="M381.84,246.08c-4.63-.05-7.78-2-8.6-5.55-.18-.77-1.05-2,.56-2.39,1-.23,1.61.05,2.11,1.32,1.58,4,5.8,5.38,9.72,3.47a3.74,3.74,0,0,0,2.48-3.52,3.3,3.3,0,0,0-2.56-3.07c-2.17-.69-4.42-1.12-6.62-1.74-4.06-1.15-5.57-3.14-5.2-6.71.3-2.83,2.63-4.75,6.25-5.18,5-.58,8.39.85,9.58,4.28.28.78,1.67,2-.16,2.66-1.15.39-1.89-.16-2.48-1.42a6,6,0,0,0-8.25-2.7,3.34,3.34,0,0,0-2.22,3,2.85,2.85,0,0,0,2.15,2.94c1.94.68,3.93,1.24,5.93,1.74,4.81,1.2,6.63,3.12,6.36,6.82-.26,3.43-3.2,5.7-7.75,6C382.71,246,382.27,246,381.84,246.08Z"/><path class="cls-1" d="M100,225.85a9,9,0,0,1,7.33-3.25c5.13.16,7.54,2.4,7.7,7.67.14,4.37,0,8.74,0,13.11,0,1.08.25,2.22-1.54,2.13-1.56-.09-1.36-1.07-1.36-2,0-3.93,0-7.87,0-11.8-.06-4.48-1.83-6.68-5.36-6.78a6.63,6.63,0,0,0-6.89,6.76c-.14,3.92-.08,7.86,0,11.79,0,1.24-.08,2.13-1.69,2.07s-1.42-1-1.42-2c0-6,0-12,0-18,0-.9-.4-2,1.18-2.2C99.69,223.05,99.92,224.1,100,225.85Z"/><path class="cls-1" d="M212.25,231.62c0,3.94,0,7.87,0,11.8,0,1.15.12,2.15-1.61,2.1s-1.61-1-1.61-2.16c0-7.76-.07-15.52.07-23.27,0-2.26-.53-3.13-2.87-2.9-2.06.21-4.15,0-6.23.06-1,0-1.65-.16-1.59-1.41s.81-1.09,1.57-1.09H221.3c.81,0,1.49,0,1.54,1.14.06,1.32-.72,1.38-1.67,1.35a11.45,11.45,0,0,0-1.31,0c-2.47.17-5.74-1.07-7.17.54-1.21,1.37-.4,4.57-.43,7S212.25,229.33,212.25,231.62Z"/><path class="cls-1" d="M370.33,237.63c-1.4,6.36-4.46,8.79-10.43,8.32-5.16-.4-8.88-4.55-9.16-10.16-.16-3.22.12-6.33,2-9.09,2.47-3.58,6.05-4.4,10.08-4a7.52,7.52,0,0,1,6.6,4.64c.39.88,1.38,2.1,0,2.77-1.2.57-2-.13-2.63-1.48a6.19,6.19,0,0,0-9.06-2.79c-5.45,3.07-5.77,13.24-.51,16.66,3.81,2.48,8.35,1.18,9.84-3.19C367.77,237.19,368.64,237,370.33,237.63Z"/><path class="cls-1" d="M138.71,237.63c-2,6.81-5.08,9-11.17,8.29-4.85-.58-8.43-5-8.63-10.72-.3-8.75,5-13.82,13-12.38A7.2,7.2,0,0,1,138,228.4c.14.53,1,1.58-.44,1.72-.75.08-1.54.39-2.24-.66-3.12-4.65-5-5.47-8.54-4s-5.73,6-5.08,10.41,3.41,7.63,7.11,7.84a6,6,0,0,0,6.45-4.46C135.92,237.14,137,237,138.71,237.63Z"/><path class="cls-1" d="M62.31,242.21c2.07-5.73,4-11.13,6-16.53a9.86,9.86,0,0,1,.67-1.82,1.83,1.83,0,0,1,2.37-.47c.75.28.29,1.08.06,1.7q-3.49,9.3-7,18.63c-.4,1.1-.86,1.81-2.28,1.82s-1.81-1-2.19-2c-2.27-5.88-4.53-11.76-6.73-17.67-.31-.82-1.66-2,.13-2.57,1.25-.4,2.15.14,2.65,1.65,1.66,5.06,3.52,10,5.32,15.07C61.55,240.65,61.86,241.22,62.31,242.21Z"/><path class="cls-1" d="M332.53,234.07c0-1.75,0-3.5,0-5.24s.47-3.93-2.61-3.33c-.61.12-1-.24-1-.93s.15-1.3.76-1.22c3.85.52,2.73-2.25,2.87-4.2.06-.85-.33-1.89.44-2.47a2.59,2.59,0,0,1,1.88-.14c1,.23.72,1.19.75,1.9.13,2.37-1.06,5.62,3.47,4.9.63-.1.81.58.83,1.17,0,1-.61,1.12-1.28,1-3.22-.63-3.1,1.36-3,3.58.11,3.72.08,7.43,0,11.14,0,1.95.43,3.26,2.72,3,1-.1,1.72.11,1.6,1.38-.09,1-.73,1.09-1.57,1.18-3.71.38-5.57-1.08-5.79-4.85C332.42,238.66,332.53,236.36,332.53,234.07Z"/><path class="cls-1" d="M242.55,229.87c0-4.37,0-8.74,0-13.11,0-1.27.14-2.1,1.72-2s1.39,1,1.39,2q0,13.44,0,26.88c0,1.15-.17,1.87-1.55,1.87s-1.58-.7-1.57-1.87C242.58,239.05,242.55,234.46,242.55,229.87Z"/><path class="cls-1" d="M343.69,234.38c0-3.15,0-6.31,0-9.47,0-1.06.05-1.93,1.49-1.94s1.61.7,1.61,1.84c0,6.31,0,12.63,0,18.94,0,1.26-.41,1.75-1.68,1.74-1.47,0-1.45-.91-1.44-2C343.71,240.48,343.69,237.43,343.69,234.38Z"/><path class="cls-1" d="M346.84,216.16c-.15,1.64.39,2.87-1.43,2.9-1.47,0-1.88-.55-1.73-1.88.12-1.09-.43-2.47,1.54-2.46C346.82,214.73,346.94,215.63,346.84,216.16Z"/></g></g></svg>