<svg xmlns="http://www.w3.org/2000/svg" viewBox="0 0 213.63 52.41"><defs><style>.cls-1{fill:#c2c1c0;}</style></defs><title>ICON_AMZS_1</title><g id="Layer_2" data-name="Layer 2"><g id="Layer_1-2" data-name="Layer 1"><path class="cls-1" d="M114.86,26.34c0,6.5-.1,13,0,19.49.07,3-1,4.17-4,4.12-13.74-.23-11,1.57-11.27-10.86-.09-3.82,0-7.66,0-11.49a14.8,14.8,0,0,0-.25-2,7.93,7.93,0,0,0-1.42,1.79c-2.41,6.2-4.81,12.41-7.07,18.67C90,48.52,88.91,50,85.94,50s-4.13-1.29-5-3.78c-2.26-6.26-4.68-12.46-7.1-18.66a17.56,17.56,0,0,0-1.72-2.73c-.08,1-.22,1.93-.23,2.89,0,5.83-.21,11.67.06,17.49.19,3.85-1.35,4.85-4.94,4.76-12.29-.3-10.25,1.43-10.37-10.26-.12-11-.06-22,0-33,0-4.89.08-4.91,5.07-4.95,3.83,0,7.69.26,11.49-.08,3.53-.31,5,1.22,6,4.35,1.59,4.9,3.55,9.68,5.4,14.5a13.16,13.16,0,0,0,1.24,2.05,9.73,9.73,0,0,0,1.28-1.92c2-5.12,4-10.24,5.74-15.44C93.74,2.62,95.2,1.6,98,1.73c4.32.21,8.67.22,13,0,3.17-.16,4,1.21,3.92,4.12C114.76,12.69,114.86,19.52,114.86,26.34Z"/><path class="cls-1" d="M26.27,1.78c11.48.28,8.74-1.92,12.88,8.8,4.43,11.48,8.72,23,13,34.55,1.74,4.66,1.67,4.71-3.16,4.78-2.66,0-5.33-.1-8,0s-4.74-.46-5.68-3.52c-.3-1-2.12-1.91-3.34-2.06-2.63-.31-5.32-.07-8-.12-3.33-.07-6.89-.67-7.58,4.14-.06.39-.63,1-1,1-5,.13-9.92.21-14.88.11a4.5,4.5,0,0,1-.52-2.81c.67-2.4,1.66-4.7,2.54-7,4.05-10.74,8.06-21.49,12.17-32.2,2.42-6.32,1.13-5.59,8-5.68C23.94,1.77,25.1,1.78,26.27,1.78ZM27,31.19c3.13.49,3.76-1.06,2.49-4.05-1.13-2.68-2.17-5.39-3.25-8.09-1,2.76-2.05,5.52-3.09,8.27C21.84,30.82,23.82,31.38,27,31.19Z"/><path class="cls-1" d="M191.32,52.41c-6.62-1-12.78-2.18-18.36-5.56-4.09-2.49-4.21-3-1.58-6.81.19-.28.37-.55.57-.82,1.41-1.84,2.53-4.69,4.32-5.2,1.62-.46,3.87,2,6,2.55a89.76,89.76,0,0,0,12.61,2.14c1,.1,2.21-1.49,3.32-2.31-1-.77-1.82-1.94-2.91-2.23-3.37-.89-6.86-1.34-10.25-2.16-9.89-2.38-14.81-7.7-14.64-15.65.18-8.18,6.13-14.21,15.79-15.86a34.34,34.34,0,0,1,23.09,4.22c2.46,1.37,3,2.89.92,5A15.84,15.84,0,0,0,209,11.33c-4,5.4-4,5.16-10.41,3-3.24-1.06-6.81-1.23-10.25-1.48-.76-.06-1.61,1.24-2.42,1.92.66.66,1.2,1.65,2,1.93,2,.69,4.19,1,6.28,1.58a100.49,100.49,0,0,1,10.06,2.83c5.61,2.12,9.11,6.24,9.37,12.36.27,6.45-2,12.11-8.08,14.88C201.1,50.4,196.08,51.12,191.32,52.41Z"/><path class="cls-1" d="M143.28,1.79c6,0,12,.16,18-.07,3.36-.12,4.18,1.21,4.34,4.35.26,4.95-.76,8.8-4.85,12.24-5.84,4.92-11,10.6-16.5,16a10.44,10.44,0,0,0-1.26,2,12.06,12.06,0,0,0,2.27.47c5.49,0,11,.14,16.49,0,2.92-.08,4.21.72,4.15,3.91-.2,10.92.88,9.15-8.86,9.25-10.17.1-20.33,0-30.5,0-5.09,0-4.81-.09-5.24-4.86A12.8,12.8,0,0,1,126,33.29c5.14-4.48,9.83-9.49,14.67-14.31,1-1,1.85-2.21,2.77-3.32a34.2,34.2,0,0,0-4.67-.7c-4.33-.1-8.67-.22-13,0-3.57.19-4.58-1.28-4.49-4.67.3-10.19-1.06-8.32,8.45-8.5C134.28,1.71,138.78,1.78,143.28,1.79Z"/></g></g></svg>