<svg xmlns="http://www.w3.org/2000/svg" viewBox="0 0 462.45 120.92"><defs><style>.cls-1{fill:#c2c1c0;}</style></defs><title>ICON_AREOSOL</title><g id="Layer_2" data-name="Layer 2"><g id="Layer_1-2" data-name="Layer 1"><path class="cls-1" d="M58.26,89.55,0,120.92c3.44-4.33,6.55-7.9,10.82-10.23,16.33-8.94,32.7-17.79,49-26.79a8.7,8.7,0,0,0,3.55-3.83C70.7,63.07,77.86,46,85.17,29A5.27,5.27,0,0,1,88,26.35c1.86-.62,2.31,1.17,2.88,2.5q6.22,14.32,12.44,28.66c.46,1.05,1,2.07,1.61,3.45,3.34-1.56,6.56-3,9.74-4.55,27.83-13.34,56.07-25.76,85-36.64,21.31-8,43.07-14.57,65.54-18.42,10.51-1.8,21.1-2.26,31.4,1.55.89.33,1.77.71,3.33,1.35-3.47,3.77-6.62,7.32-9.95,10.69a3.21,3.21,0,0,1-2.84.33c-10.65-4.55-21.67-3.93-32.75-2.47C223,16.94,193.71,28.14,164.75,40.08c-18.71,7.71-37,16.34-55.58,24.48-1.9.84-2.11,1.75-1.32,3.54,4.79,10.86,9.47,21.76,14.24,32.62,2.32,5.28,6.13,8.77,12,9.84.82.15,1.47,1.27,2.2,1.94-.8.43-1.6,1.24-2.41,1.24q-17.82.12-35.63,0c-.83,0-1.65-1-2.48-1.46.76-.49,1.55-1.42,2.27-1.38,5.28.29,9.86-3,7.35-10.45s-6-14.82-9.11-22.19c-2.62-6.2-2.66-6.19-8.69-3.21s-11.94,5.88-17.87,8.9a4.89,4.89,0,0,0-2.26,2c-2.27,5.32-4.6,10.63-6.47,16.1-2,5.86.16,8.6,6.37,8.73.38,0,.86-.13,1.14,0a15,15,0,0,1,1.7,1.4c-.53.52-1,1.47-1.58,1.48q-12.45.14-24.91,0c-.51,0-1.49-1-1.41-1.25.18-.64.84-1.58,1.37-1.63,5.09-.46,7.89-3.75,9.88-7.92s3.7-8.35,5.53-12.53ZM83.72,49.3l-1,0Q77,63.17,71.19,77l.69.6c6.22-3.15,12.45-6.28,18.64-9.5a1.81,1.81,0,0,0,.6-1.65C88.71,60.71,86.2,55,83.72,49.3Z"/><path class="cls-1" d="M364.17,83.05c0-15.09,9.46-27.9,22.95-31A28.58,28.58,0,0,1,422,76.52c1.39,11.39-1.62,21.59-9.84,29.61-12.05,11.77-35.59,11.35-44.82-9.14-1.93-4.29-2.64-9.14-3.91-13.73Zm47,3.62c-.64-9.4-2-18.35-8-25.95-4.85-6.14-12.81-7.69-19.35-3.64a15,15,0,0,0-7,11.18,76.66,76.66,0,0,0-.62,15.51c.58,8.11,3,15.74,8.94,21.72a14,14,0,0,0,23.53-5.55C410.07,95.68,410.41,91.1,411.2,86.67Z"/><path class="cls-1" d="M301.57,81.36c-.7,14.07-8.51,26.49-20.17,30.58-17.55,6.16-33.29-3.27-37.65-21-2.85-11.64,0-22.42,8.23-31.07C266.15,45,290.8,50,298.46,69.18,300,73,300.56,77.29,301.57,81.36ZM253.9,78.08c.7,9.33,2.48,18.09,8.26,25.61,3.73,4.86,8.7,7,14.74,5.8,5.85-1.2,9.35-5.13,10.88-10.8A49.61,49.61,0,0,0,289,80.08c-.7-6.42-2.29-12.51-6-17.89-3.47-5-8.23-7.93-14.47-7.25S258.06,59.47,256.3,65.4C255.08,69.5,254.67,73.84,253.9,78.08Z"/><path class="cls-1" d="M188,75H173.17q-12.3,0-24.6,0c-1.47,0-2.67,0-2.6,2.06.26,8.88,2.94,16.59,10.1,22.39C164.13,106,179,106.1,185,93.29c.51-1.09,1.08-2.16,1.63-3.24l.77,0a7.31,7.31,0,0,1,.39,2.11c-1.4,11.92-14.41,22.68-26.18,21.53-9.22-.91-16.38-5.54-20.48-13.73-6-12-5.73-24.35.86-36,7.34-12.95,25.53-16.84,37-8.46C185.4,60.25,188,66.77,188,75ZM174.5,71.76c.61-7.68-2.15-12.75-7.59-15.2-10-4.5-19.51,3.06-20.8,13.17-.27,2.17,1.18,2,2.55,2H174.5Z"/><path class="cls-1" d="M432.61,112.66a19.33,19.33,0,0,1,2.57-.74c4.49-.55,6.55-2.65,6.63-7.16q.21-10.58.21-21.14,0-23.31-.19-46.63c0-6.06-1.68-7.43-7.72-6.66a2.4,2.4,0,0,1-1.86-.78c6.52-2.85,12.71-6.24,20.06-7.84.08,1.73.19,2.94.19,4.16q0,37.5,0,75c0,1.35,0,2.71.08,4,.34,4.57,2.34,6.56,6.9,7,.87.07,1.73.27,3,.47C460.49,114.13,435.5,114.32,432.61,112.66Z"/><path class="cls-1" d="M313.58,112.63V92.3l.79-.21a23.5,23.5,0,0,1,1.17,2.81c1.73,6,5,10.81,10.67,13.78a15.81,15.81,0,0,0,11.51,1.39,8.67,8.67,0,0,0,6.75-6.49c.95-3.92.22-7.81-3.16-10.16-4.65-3.23-9.72-5.84-14.62-8.71-2.32-1.37-4.69-2.67-7-4.07-9.91-6-8.32-22,2.34-27.24a21.67,21.67,0,0,1,13.55-1.61c1.33.23,2.62.64,3.94.93,3.13.68,6.42,2.46,8.87-1.87l.48.62V70.66l-.47.24a11.83,11.83,0,0,1-1-1.67c-.84-2-1.48-4.19-2.45-6.16A14.92,14.92,0,0,0,327.08,55c-3.1.85-5.73,2.65-6.51,6a8.55,8.55,0,0,0,3,9.14,54.34,54.34,0,0,0,8.08,5c4.42,2.36,9.13,4.2,13.39,6.81,7.58,4.63,10.15,10.54,8.57,18.22-1.3,6.23-8,11.84-15.35,13.26-5.6,1.08-10.92-.1-16.25-1.39-2.57-.62-5-1.59-7.28.67C314.51,112.8,314,112.63,313.58,112.63Z"/><path class="cls-1" d="M224.75,113.41H194.44l-.14-.85a20.65,20.65,0,0,1,2.65-.69c4.74-.65,6.79-2.89,6.8-7.69q0-17.54,0-35.05a15.8,15.8,0,0,0-.31-3.15c-.82-4.08-2.38-5.21-6.45-4.74-.93.11-1.85.28-2.82.43C194.53,59.49,210,53,214,53.41V65.58l.88.25a27.43,27.43,0,0,1,2.23-3.15C219.65,60,222,56.92,225,54.75a8.65,8.65,0,0,1,12,1.58,5.63,5.63,0,0,1,.25,7,5.06,5.06,0,0,1-6.39,1.89,24.43,24.43,0,0,1-4.69-2.82c-2.3-1.61-4.32-1.37-6.16.66-3.64,4-6.45,8.13-6.1,14.08.44,7.6.06,15.25.14,22.88a28.28,28.28,0,0,0,.67,5.72c.77,3.5,3.29,5.53,7.21,6.13,1,.15,1.95.33,2.93.5Z"/><path class="cls-1" d="M315.57,9.81c0-6,3.46-9.23,9.74-9.23,5.8,0,9.22,3.55,9.21,9.54s-3.47,9.36-9.95,9.36C318.84,19.47,315.57,16,315.57,9.81Z"/><path class="cls-1" d="M308.42,45.58c-5,.78-8.82-3.12-8.73-9.07a8.38,8.38,0,0,1,9.07-8.44c5.58.23,8.69,3.25,8.64,8.91C317.34,42.83,314.45,45.61,308.42,45.58Z"/><path class="cls-1" d="M331.74,39.19c-4.58,0-6.43-2-6.39-6.79,0-4.51,2-6.36,6.84-6.33,4.6,0,6.38,1.93,6.35,6.79C338.52,37.44,336.62,39.21,331.74,39.19Z"/></g></g></svg>