<svg xmlns="http://www.w3.org/2000/svg" viewBox="0 0 153.27 44.86"><defs><style>.cls-1{fill:#c2c1c0;}</style></defs><title>ICON_DANA</title><g id="Layer_2" data-name="Layer 2"><g id="Layer_1-2" data-name="Layer 1"><path class="cls-1" d="M153.27.27c-.59.25-.66.86-.89,1.35a25.26,25.26,0,0,1-5,7.38,11,11,0,0,1-11.54,2.91,80,80,0,0,1-8-3.18c-5.11-2.14-9.67-1.36-13.7,2.42-1.1,1-1.07,1.07-2.68,1a22.32,22.32,0,0,1,5.93-8.45C121.25.22,125.67-.37,130.55,1A95.05,95.05,0,0,0,141.15,4a14.27,14.27,0,0,0,3.57.28A7.65,7.65,0,0,0,151.35,0C152,.15,152.69-.24,153.27.27Z"/><path class="cls-1" d="M20.84,18c0-3.69,0-7.08,0-10.46,0-1,.32-1.25,1.28-1.23,2.44.07,4.88.05,7.31,0,.73,0,1.05.1,1,1q0,17.87,0,35.74c0,.69-.11,1-.9,1-2.44,0-4.88,0-7.32,0-.71,0-1-.15-.94-.92s0-1.51,0-2.26c-.11,0-.22,0-.25,0-3.77,5.37-11.11,4.8-15.2,1.83-3.08-2.24-4.6-5.45-5.32-9.07C-.43,28.78-.2,24.1,2.25,19.74a11.51,11.51,0,0,1,14.36-5.09A10.61,10.61,0,0,1,20.84,18Zm.36,11.48a12.34,12.34,0,0,0-.94-5.13,5,5,0,0,0-4.54-3.16,4.89,4.89,0,0,0-4.94,2.73,11.5,11.5,0,0,0,.34,11.21,4.81,4.81,0,0,0,5.12,2.33,4.85,4.85,0,0,0,4.11-3.19A13.12,13.12,0,0,0,21.2,29.48Z"/><path class="cls-1" d="M125.74,44c-3.07,0-6,0-8.91,0-.65,0-.83-.3-.94-.79s-.21-1.17-.34-1.92a13,13,0,0,1-8.39,3.52,11.54,11.54,0,0,1-8.55-2.31c-3.64-3-4.2-11.55,2.12-14.16a35.88,35.88,0,0,1,8.61-1.92c1.38-.2,2.76-.43,4.13-.7a2.3,2.3,0,0,0,2-2.16,2.6,2.6,0,0,0-1.42-2.67,5.36,5.36,0,0,0-7.92,2.43.66.66,0,0,1-.7.48c-2.56,0-5.12,0-7.68,0-1,0-.67-.58-.6-1a9.05,9.05,0,0,1,6.67-7.8,24.7,24.7,0,0,1,14.3-.19c4.39,1.21,6.47,4.25,6.49,9s0,9.68,0,14.52A13.8,13.8,0,0,0,125.74,44ZM115.4,32.33h0c0-.44,0-.88,0-1.32s-.11-.67-.61-.45a20.15,20.15,0,0,1-4,1,11.59,11.59,0,0,0-3.52,1.13,3.21,3.21,0,0,0-1.71,3.4A3,3,0,0,0,108,38.71c3.91,1.09,7-1,7.35-5.06C115.37,33.21,115.37,32.77,115.4,32.33Z"/><path class="cls-1" d="M62.37,44c-3.07,0-6,0-8.9,0-.56,0-.81-.19-.9-.69s-.25-1.24-.4-2a12.93,12.93,0,0,1-8.49,3.49c-3.23.21-6.32-.27-8.76-2.66a8.66,8.66,0,0,1,2.54-13.82c2.71-1.2,5.61-1.48,8.49-1.91,1.42-.21,2.84-.44,4.24-.72a2.26,2.26,0,0,0,2-2A2.66,2.66,0,0,0,51,21a5.42,5.42,0,0,0-8.14,2.25.71.71,0,0,1-.78.53c-2.52,0-5,0-7.56,0-.68,0-.78-.2-.7-.83a8.93,8.93,0,0,1,6.08-7.76A24.08,24.08,0,0,1,55.41,15c3.7,1.13,5.76,4,5.83,8,.1,5.31.07,10.63.1,15.94A12.73,12.73,0,0,0,62.37,44ZM52,30.35a17,17,0,0,1-3.42,1,14.79,14.79,0,0,0-4.78,1.4,3.23,3.23,0,0,0-.33,5.49c2.58,1.78,7,.41,8-2.53A13.85,13.85,0,0,0,52,30.35Z"/><path class="cls-1" d="M74.08,18.78c3.39-4.43,7.71-5.56,12.72-4.56,3.93.78,6.43,3.67,7,8A32.65,32.65,0,0,1,94,26c0,5.63,0,11.27,0,16.9,0,.83-.18,1.09-1,1.07-2.52,0-5-.06-7.56,0-.88,0-1-.28-1-1.08,0-5.12,0-10.23,0-15.35,0-.28,0-.56,0-.84-.13-3.34-1.34-4.7-4.41-5A5,5,0,0,0,74.58,26a12.12,12.12,0,0,0-.25,2.62c0,4.76,0,9.52,0,14.27,0,.93-.27,1.12-1.13,1.09-2.52-.06-5,0-7.56,0-.74,0-.93-.2-.93-.94q0-13.66,0-27.34c0-.8.21-1,1-1,2.43.06,4.87.07,7.31,0,.89,0,1.08.29,1,1.09S74.08,17.61,74.08,18.78Z"/></g></g></svg>