<svg xmlns="http://www.w3.org/2000/svg" viewBox="0 0 334.85 57.06"><defs><style>.cls-1{fill:#c2c1c0;}</style></defs><title>ICON_CREANEST</title><g id="Layer_2" data-name="Layer 2"><g id="Layer_1-2" data-name="Layer 1"><path class="cls-1" d="M316.89,43.6c0,3.71.07,7.31-.07,10.89A2.16,2.16,0,0,1,315.34,56c-4.21.24-8.53.92-12.62.26-6-1-9.59-5.63-10-12-.38-5.26-.34-10.55-.47-15.82,0-1.09,0-2.17,0-2.83-5.57-1-10.75-2.14-16-2.95-1.81-.28-4.41-.7-4.93,1.79S273.41,27,275,27.74c2.53,1.11,5.22,1.91,7.65,3.2,4.65,2.48,6.92,6.45,6.77,11.82s-2.64,9.29-7.35,11.52c-8.54,4-17.26,3.31-25.88.16a2.64,2.64,0,0,1-1.2-2.22c.6-3.17,1.46-6.28,2.2-9.3,3.57.89,7,2,10.5,2.51,2.09.32,5.35,1.29,6-1.64.69-3.09-2.87-2.93-4.77-3.87-2.32-1.14-4.83-1.91-7.05-3.2-8.92-5.17-7.27-16.28-1.09-21.12a19.64,19.64,0,0,1,13.51-4.11c3.93.22,7.82,1.16,11.73,1.75,2,.3,3.93.51,6.44.84-1.66-4.9,1.64-6.08,4.47-7.66,3.59-2,7.14-4.1,11.15-6.42V13.75h8.7v11h-8.57c0,5.13-.19,9.93.07,14.7.16,3,1.93,4.31,5,4.36C314.42,43.82,315.51,43.69,316.89,43.6Z"/><path class="cls-1" d="M157.4,55.88H143.19c-.31-1.07-.61-2.12-.77-2.7-3.19,1.17-6.31,2.82-9.62,3.44-7.84,1.45-14.35-2.4-16.53-9.23-2.31-7.26.87-14.53,8.14-18A36.33,36.33,0,0,1,132.3,27c2.69-.57,5.48-.69,8.33-1-.39-2.62-2.33-3.12-4.4-3.34a25.65,25.65,0,0,0-14.76,3c-1-3.41-1.91-6.65-3-10.61,3.39-1,6.63-2.4,10-2.76,4.74-.51,9.66-.89,14.32-.15,9.18,1.46,14,7.76,14.11,17.13.07,6.39,0,12.79.08,19.18C157,50.8,157.22,53.2,157.4,55.88Zm-16-20.38c-3,.89-5.68,1.23-7.83,2.46-1.19.68-2,2.83-2.07,4.34,0,1,1.47,2.6,2.62,3.05a5.37,5.37,0,0,0,7-4.1A47.78,47.78,0,0,0,141.43,35.5Z"/><path class="cls-1" d="M178.19,55.88h-16c-.05-1.08-.13-2.06-.14-3.05,0-10.19-.09-20.38-.06-30.57a3.44,3.44,0,0,1,1-2.54c4-2.48,8.1-4.77,12.42-7.27.37,1.82.68,3.37,1.07,5.28,4.63-5.62,10.47-7.23,17.1-5.92s11,6.68,11.44,15.16c.45,9.51.1,19.06.1,28.8h-16V53c0-6.86,0-13.71,0-20.57a15.74,15.74,0,0,0-.43-3.55c-.72-3-2.64-4.61-5.15-4.51a5.51,5.51,0,0,0-5.11,4.7,17.83,17.83,0,0,0-.26,3.58C178.18,40.3,178.19,48,178.19,55.88Z"/><path class="cls-1" d="M109.05,43.32l2,10.74A43.36,43.36,0,0,1,92,56.8c-5.49-.42-10.59-1.82-14.71-5.65C70.63,45,68.83,34,72.8,24.65,76.52,15.87,84.48,11,94.2,11.43c11.59.56,18.84,8.25,19.27,20.43a43.51,43.51,0,0,1-.09,4.71,31.93,31.93,0,0,1-.59,3.29H86.23c1.08,3,3.36,3.89,5.76,4.48C97.63,45.71,103.19,44.82,109.05,43.32ZM98.44,28.76c-.23-4.43-2.35-6.73-6-6.69s-6.11,2.79-6.11,6.69Z"/><path class="cls-1" d="M224.82,41c6.69,6.22,14.61,3.74,22.75,2.46.66,3.37,1.35,6.85,2.07,10.52a43.06,43.06,0,0,1-18.56,2.88,28.16,28.16,0,0,1-4.67-.61c-14.38-3-18.19-14.35-17-24.36,1.62-13.17,10.82-21.05,23.23-20.5,11.47.51,18.73,8,19.25,19.86.12,2.74,0,5.5,0,8.58H225Zm-.06-12.36H236.9c-.08-4-2.11-6.41-5.34-6.59C227.87,21.87,225.23,24.34,224.76,28.67Z"/><path class="cls-1" d="M35.69,55.17C26.35,57.64,17.36,58.31,9,53,2.09,48.63-.27,41.72,0,33.88.56,19.6,11.1,10.68,26.39,11.45c3,.15,6,.71,9.3,1.12-.83,4.31-1.58,8.15-2.35,12.1C27.54,23.44,21.75,22.28,18,28.2a10.19,10.19,0,0,0,.32,12c4,5.41,9.67,4.33,15.49,3.16Z"/><path class="cls-1" d="M40.3,55.83c0-5.26,0-10.25,0-15.23,0-6.1-.11-12.21,0-18.31a3.62,3.62,0,0,1,1.32-2.67c3.84-2.39,7.81-4.56,12.15-7l.56,7.19c3.45-6.28,8.06-9.33,15-8V26.43c-1.67,0-3.3-.05-4.92,0-5.4.23-7.91,2.8-8,8.2,0,6,0,12,0,18v3.15Z"/><path class="cls-1" d="M321,56.66c0-4.3,0-8.55,0-12.79a2.22,2.22,0,0,1,.72-1.62c4.24-2.53,8.53-5,13.13-7.63v22Z"/></g></g></svg>