<svg xmlns="http://www.w3.org/2000/svg" viewBox="0 0 569.02 114.24"><defs><style>.cls-1{fill:#c2c1c0;}</style></defs><title>IKON_NIVO</title><g id="Layer_2" data-name="Layer 2"><g id="Layer_1-2" data-name="Layer 1"><path class="cls-1" d="M497.3,91.76H441.45c-10,0-16.54-6-16.71-16.08-.22-12.87-.2-25.74,0-38.61.14-9.49,6.68-14.94,18.11-16.66,26.34-4,52.63-8.26,78.94-12.42,10.69-1.69,21.37-3.46,32.07-5,7.2-1.06,15,5.91,15,13.92q.29,30.54,0,61.09c0,7.46-7.13,13.77-15,13.79C535,91.79,516.16,91.76,497.3,91.76Zm57.13-28.22c0-12.41-7.62-20.35-19.74-20.44s-20.87,8.19-20.63,19.82c.29,14.52,9.11,20.35,20.35,20.35C547.05,83.28,554.68,75.37,554.43,63.54ZM439.52,63.1c0,5.38.11,10.76,0,16.13-.07,2.35.74,3,3,2.92,7.75-.12,15.5-.05,23.25-.05,7.22,0,7.13,0,7-7.16,0-2.16-.72-2.77-2.81-2.73-5.49.12-11,0-16.49.08-1.94,0-2.64-.55-2.63-2.54s.8-2.64,2.68-2.6q5.25.12,10.5,0c6-.12,5.34,1.3,5.51-5.63.05-2.14-.63-2.82-2.76-2.75-4.49.14-9,0-13.5.07-1.71,0-2.47-.42-2.42-2.29s.52-2.5,2.36-2.46c3.87.09,7.75,0,11.63,0,7.67,0,7.6,0,7.27-7.5-.08-2-.68-2.62-2.62-2.6q-13.7.11-27.38,0c-2,0-2.59.64-2.55,2.58C439.59,52.1,439.52,57.6,439.52,63.1Zm77.09,19c-5.27-7.38-9.88-14-14.72-20.5-1.35-1.8-1.36-2.76.33-4.24,4.35-3.84,8.55-7.86,12.81-11.8l-.85-1.29a47.83,47.83,0,0,1-6.56-.05c-5.35-.74-9.24,1.08-12.45,5.47-1.56,2.13-3.34,4.49-6.27,5.8v-3c0-8.31,0-8.19-8.16-8.31-2.87-.05-3.89.64-3.81,3.69.21,8.49.07,17,.07,25.48,0,9.06,0,9,9.1,8.79,2.45,0,3-1,2.83-3.11s0-4.5-.05-6.74A4.37,4.37,0,0,1,491.93,68c1.51-.57,1.87,1.56,2.56,2.6,2,3,3.89,6.1,5.85,9.14.72,1.14,1.32,2.38,3.06,2.34C507.49,82,511.59,82.1,516.61,82.1ZM509,22.61c-1.85-.46-3.11-2-5.1-.86-2.61,1.44-3.16,3.84-3.23,6.28-.08,2.64.56,5.32,3.35,6.56,2.41,1.07,4.87-1,7.41-.17.41.13.24-1.29.24-2,0-3.49.16-7,0-10.45-.1-1.68,1.1-4.76-1-4.78-2.85,0-.69,3.19-1.44,4.79A5.34,5.34,0,0,0,509,22.61ZM543.78,35c3.23.06,6-3.06,6-6.81,0-3.48-3-6.91-6.06-6.87S538,24.46,538,28C537.87,31.74,540.51,34.89,543.78,35ZM531,28c-.09-3.4-2.92-6.67-5.8-6.69s-6,3.4-6,6.89c0,3.66,2.79,6.74,6,6.7S531.08,31.69,531,28Zm3.51,3.14c-1.42-.12-1.57.79-1.63,1.87-.06,1.23.39,1.77,1.67,1.78s1.63-.66,1.61-1.83S535.76,31,534.48,31.1Zm-17.74.75c0,.22.16-.7-1.14-.75s-1.65.71-1.64,1.83c0,.9.07,1.69,1.28,1.78C516.63,34.81,516.88,34,516.74,31.85Zm37.67.94c0-1-.23-1.71-1.43-1.68-1.53,0-1.35,1.14-1.38,2.12,0,1.14.57,1.55,1.63,1.47C554.51,34.6,554.39,33.65,554.41,32.79Z"/><path class="cls-1" d="M336.21,57c0-.75,0-1.5,0-2.25.6-9.38,2-11.23,11.09-12.7,15.74-2.57,31.54-4.84,47.29-7.41a3.84,3.84,0,0,1,4.25,1.77c7.84,10.31,9.51,21.71,4.8,33.57-4.81,12.1-14.1,19.51-27,21.65C354.18,95.31,335.78,76.73,336.21,57Zm34.86,11.59c6.91.05,11.38-4.23,11.46-11S377.93,46,371.17,46c-6.53,0-11.15,4.52-11.24,10.93C359.83,64.23,363.93,68.51,371.07,68.57Z"/><path class="cls-1" d="M81.8,57.21c12.35,0,24.71,0,37.06,0,2.2,0,3,.18,2.92,2.91-.87,18-15.67,34.11-33.44,37.08-21.37,3.56-44-10-47.71-35.43-.63-4.27-.42-4.52,4.11-4.52Z"/><path class="cls-1" d="M127.61,23.55c-.68.26-1,.37-1.35.52-6.63,3-11.43,1.39-17.52-3.29-28-21.52-68.6-4.3-73.39,30.7A44,44,0,0,0,44.13,85c.44.57.87,1.15,1.55,2.06C31,89.35,16.8,91.57,2.56,93.75c-1,.15-2.37.85-2.51-1.08C-.07,91-.16,89.58,2.26,89.24c7.53-1,15-2.32,22.53-3.52,1.71-.28,3.41-.59,5.49-1C21.9,68.32,20.7,51.63,28.09,34.82a56.91,56.91,0,0,1,30.06-30C83.77-6.36,112.69,2.68,127.61,23.55Z"/><path class="cls-1" d="M305.93,56c1.39-8,7-9.13,13.25-9.66,4.07-.35,8.09-1.23,12.13-1.85,1.62-.24,3-.6,2,2.11-5,14.35-9.76,28.75-14.53,43.16a3.07,3.07,0,0,1-3.48,2.49c-6-.11-12-.09-18,0-1.84,0-2.93-.39-3.58-2.37q-5.72-17.37-11.71-34.64c-.79-2.28-.34-3.09,2.07-3.37A155.73,155.73,0,0,0,300,49.47c3-.68,4,.14,4.56,2.79A28.41,28.41,0,0,0,305.93,56Z"/><path class="cls-1" d="M141.64,72.24c-.61-.19-2.14.56-1.8-.84.4-1.66-.33-4,2.84-4.42,8.16-1,16.28-2.49,24.42-3.76q39.5-6.15,79-12.27L336.22,36.9q38.94-6.09,77.88-12.19c1.33-.21,3.26-1.67,3.6,1.37.27,2.52-.91,3.15-3.14,3.49-31.38,4.86-62.75,9.83-94.13,14.72C292.25,48.68,264,53,235.86,57.37q-41.55,6.5-83.06,13.11Z"/><path class="cls-1" d="M162.19,42.74c0-5.5.08-11,0-16.48,0-2.18.49-3.14,2.9-3.08,6.11.15,12.23.1,18.35,0a3.91,3.91,0,0,1,3.67,2q9.13,13.73,18.35,27.37c.88,1.31,1.57,2.25-.91,2.63-13.41,2.06-26.79,4.25-40.18,6.45-2.17.35-2.15-.92-2.15-2.41C162.21,53.72,162.19,48.23,162.19,42.74Z"/><path class="cls-1" d="M127.54,57.29A38.89,38.89,0,0,0,123,37.47c-1-1.94-.75-2.89,1.34-3.42,10.47-2.61,8.79-3.38,12,6,11.07,32.25-10.34,67.66-45.63,74.08a7.47,7.47,0,0,1-1.49.1c-9.94-.32-7.78,1.86-8.12-8.27-.08-2.19.91-2.67,2.9-2.8,22.23-1.46,39-16.46,43.08-38.42A53.43,53.43,0,0,0,127.54,57.29Z"/><path class="cls-1" d="M191.92,66.4l29.91-4.69c2-.31,4-.28,5.88-.92,3.56-1.23,4.45-.15,4.34,3.46-.24,8.22-.18,16.46,0,24.68.05,2.65-.79,3.43-3.38,3.35-5.6-.17-11.22,0-16.83-.06-1.34,0-2.74.22-3.68-1.21C202.84,82.93,197.5,74.86,191.92,66.4Z"/><path class="cls-1" d="M267,73.43c0,5.24-.09,10.48,0,15.71.05,2.18-.54,3.17-2.91,3.13-6-.12-12-.1-18,0-2.07,0-2.88-.67-2.86-2.79.07-9.6,0-19.2,0-28.8,0-1.56.39-2.48,2.23-2.73,6.4-.88,12.78-1.92,19.14-3,1.87-.32,2.37.19,2.34,2.06C266.91,62.46,267,68,267,73.43Z"/><path class="cls-1" d="M231.87,37.31c0,3.75,0,7.5,0,11.25,0,1.55-.21,2.48-2.12,2.73-6.06.8-12.11,1.79-18.13,2.83-2,.34-2.65-.2-2.63-2.25q.13-13.11,0-26.24c0-2.11.9-2.45,2.7-2.42,5.87.07,11.74.09,17.61,0,1.91,0,2.66.49,2.59,2.5C231.77,29.56,231.87,33.44,231.87,37.31Z"/><path class="cls-1" d="M243.73,36c0-3.49.1-7,0-10.47-.08-2,.71-2.57,2.6-2.55q9,.12,18,0c1.9,0,2.66.61,2.63,2.59-.1,5.86-.12,11.72,0,17.58,0,2-1,2.53-2.66,2.79-6,.92-12,1.84-18,2.88-2.1.37-2.57-.45-2.5-2.36C243.81,43,243.73,39.51,243.73,36Z"/><path class="cls-1" d="M185.94,79.82c0,3.12-.11,6.25,0,9.36.11,2.22-.6,3.13-2.94,3.09-6.11-.12-12.22-.08-18.34,0-1.83,0-2.72-.42-2.68-2.5.11-5.48.07-11,0-16.46,0-1.6.31-2.4,2.18-2.65q9.78-1.31,19.5-3.08c2.18-.4,2.26.57,2.24,2.15C185.91,73.09,185.94,76.46,185.94,79.82Z"/><path class="cls-1" d="M283.41,23.32c3.6,0,7.85-1.19,10.62.32s2.69,6.36,3.88,9.72c2.45,6.92,2.38,6.94-5,8-4.07.6-8.15,1.1-12.17,1.89-1.79.35-2.42-.2-2.94-1.79-1.69-5.2-3.42-10.39-5.31-15.51-.94-2.55.05-3,2.31-2.95,2.86.1,5.73,0,8.59,0Z"/><path class="cls-1" d="M81.17,32.72c11.49,4.05,22.35,2.25,33-2.37,8.68-3.75,17.58-6.54,27.22-4.82a55.29,55.29,0,0,1,7.18,2c1.95.63,2.6,2,2.43,4.07s-.81,2.34-2.48,1.44c-9.25-5-18.55-3.55-27.77,0-6.73,2.57-13.24,5.76-20.54,6.52A48.25,48.25,0,0,1,85,39C80.85,38.12,80.86,38.07,81.17,32.72Z"/><path class="cls-1" d="M312.66,38.33c1.67-4.84,3.18-9.15,4.65-13.48A2.52,2.52,0,0,1,320.12,23q9.17.11,18.34,0c2.06,0,2.44.73,1.56,2.45a3.67,3.67,0,0,0-.32,1.07c-.88,6.27-4.18,9.21-10.8,9.33C323.64,36,318.4,37.4,312.66,38.33Z"/><path class="cls-1" d="M386.12,26.85,348,32.71C354.85,23.56,375.34,19.9,386.12,26.85Z"/><path class="cls-1" d="M534.39,69.7c-4.08,0-6.52-2.46-6.53-6.53s2.69-6.72,6.52-6.64A6.4,6.4,0,0,1,541,63.2C541,67.22,538.47,69.71,534.39,69.7Z"/><path class="cls-1" d="M503.25,28.32c.07-2,.46-4,2.8-4.14s3,1.77,3.15,3.75c.13,2.2-.78,4.25-3,4.34S503.37,30.26,503.25,28.32Z"/><path class="cls-1" d="M546.8,28.11c-.06,2.27-.73,4.28-3.22,4.17-2.21-.11-2.92-2.07-2.89-4.09s.63-4.15,3.26-4C546.32,24.3,546.8,26.18,546.8,28.11Z"/><path class="cls-1" d="M522,28.29c.27-1.87.43-4.07,3.1-4.11,2.41,0,3,1.85,3.07,3.83.08,2.16-.6,4.19-3,4.26C522.87,32.33,522.18,30.4,522,28.29Z"/></g></g></svg>