<svg xmlns="http://www.w3.org/2000/svg" viewBox="0 0 96.72 96.72"><defs><style>.cls-1{fill:#d32027;}.cls-2{fill:#be202b;}.cls-3{fill:#fcfdff;}.cls-4{fill:none;stroke:#fff;stroke-miterlimit:10;stroke-width:4px;}.cls-5{fill:#fff;}</style></defs><title>ecosystem</title><g id="Layer_2" data-name="Layer 2"><g id="Layer_2-2" data-name="Layer 2"><circle class="cls-1" cx="48.36" cy="48.36" r="48.36"/><path class="cls-2" d="M21.87,7.58A48.51,48.51,0,0,0,58.35,85c.84,0,1.68.06,2.53.06a48.33,48.33,0,0,0,26.71-8,48.45,48.45,0,0,1-39,19.71c-.85,0-1.69,0-2.53-.06A48.57,48.57,0,0,1,21.87,7.58Z"/><circle class="cls-3" cx="48.48" cy="24.06" r="8.7"/><path class="cls-4" d="M22.24,50c-2.13-7.8,1.41-15.91,8.22-20.53"/><path class="cls-5" d="M37.05,26.49a35.93,35.93,0,0,0-6.79,9.58l-.6-6-4.33-4.26A36.3,36.3,0,0,0,37.05,26.49Z"/><path class="cls-4" d="M60.08,26.32C68,28,73.61,34.81,74.63,43"/><path class="cls-5" d="M74.32,50.22a36.34,36.34,0,0,0-5.44-10.41L74.53,42l5.76-1.91A36,36,0,0,0,74.32,50.22Z"/><path class="cls-4" d="M62.27,70.43c-5.41,6-14.14,7.43-21.71,4.21"/><path class="cls-5" d="M34.45,70.73a36.07,36.07,0,0,0,11.73.53L41.43,75,40.19,81A36.25,36.25,0,0,0,34.45,70.73Z"/><circle class="cls-3" cx="69.81" cy="60.98" r="8.7"/><circle class="cls-3" cx="26.91" cy="60.98" r="8.7"/></g></g></svg>