<svg xmlns="http://www.w3.org/2000/svg" viewBox="0 0 212.75 94.61"><defs><style>.cls-1{fill:#3c3c3b;}.cls-2{fill:#89c0e9;}.cls-3{fill:#d41224;}.cls-4{fill:#ebf0f1;}.cls-5{fill:#ebebea;}.cls-6{fill:#c98932;}.cls-7{fill:#a2424b;}.cls-8{fill:#6d99bd;}.cls-9{fill:#bcbbbb;}.cls-10{fill:#666;}.cls-11{fill:#de969d;}.cls-12{fill:#b9daf4;}.cls-13{font-size:51.24px;}.cls-13,.cls-14{fill:#3f3e40;font-family:Trebuchet-BoldItalic, Trebuchet MS;font-weight:700;font-style:italic;}.cls-14{font-size:19.23px;}</style></defs><title>NTH_LOGO</title><g id="Layer_2" data-name="Layer 2"><g id="Layer_2-2" data-name="Layer 2"><path class="cls-1" d="M41.24,48.35a59,59,0,0,1-4.31,30,1.07,1.07,0,0,1-2-.07,71.44,71.44,0,0,0-5.36-11.87l11.67-18Z"/><path class="cls-1" d="M19.56,38.66A59,59,0,0,0,.1,61.86a1.08,1.08,0,0,0,1.38,1.45,77.25,77.25,0,0,1,12.63-3.8l5.45-20.85"/><path class="cls-2" d="M15.27,54c-.5,2.17-.91,4.11-1.14,5.6l7.68,3.38,7.77,3.43c.94-1.19,2.11-2.8,3.37-4.63L15.27,54"/><path class="cls-3" d="M50.09.6A47.34,47.34,0,0,1,52.2,11.26L39.57,5.7A45.67,45.67,0,0,1,48.93.07.86.86,0,0,1,50.09.6"/><path class="cls-4" d="M52.2,11.26A50,50,0,0,1,48.33,35C45.49,41.46,38.07,54.17,33,61.74L15.27,54c2.11-8.9,6.58-22.91,9.42-29.36A49.79,49.79,0,0,1,39.57,5.7L52.2,11.26"/><path class="cls-5" d="M52.2,11.26A50,50,0,0,1,48.33,35C45.49,41.46,38.07,54.17,33,61.74L15.27,54c2.11-8.9,6.58-22.91,9.42-29.36A49.79,49.79,0,0,1,39.57,5.7L52.2,11.26"/><path class="cls-1" d="M14.14,59.52a2.17,2.17,0,0,1,0-.25h0a2.17,2.17,0,0,0,0,.25h0m5.23-20.1h0c1.83-5.81,3.8-11.39,5.32-14.83A49.83,49.83,0,0,1,39.57,5.7h0A49.79,49.79,0,0,0,24.69,24.6c-1.52,3.43-3.49,9-5.32,14.82"/><path class="cls-6" d="M14.13,59.56l3,1.35v0l-3-1.33v0h0v0"/><path class="cls-6" d="M17.14,60.91l1.48.66h0s0,0,0,0l-1.46-.64v0"/><path class="cls-7" d="M14.18,59.27h0c.24-1.45.62-3.28,1.09-5.31h0c1-4.16,2.49-9.44,4.1-14.54h0c-1.61,5.1-3.12,10.38-4.1,14.54-.47,2-.85,3.86-1.09,5.31"/><path class="cls-8" d="M14.13,59.56l3,1.33,1.46.64c-.06-.1-.34-.43-.65-.88a6.34,6.34,0,0,1-.91-1.8A2.76,2.76,0,0,1,17,57.71c.14-.79.32-1.72.55-2.76l-2.25-1c-.47,2-.85,3.86-1.09,5.31a2.17,2.17,0,0,0,0,.25v0"/><path class="cls-1" d="M48.9.09l0,0h0l0,0m0,0h0m0,0h0m0,0h0m0,0h0m0,0h0m0,0h0m0,0h0m.75.12c.28.13.58.88.85,1.88.33,1.18.64,2.72.87,4.05-.28-1.44-.58-2.68-.86-3.68-.2-.73-.39-1.34-.54-1.81a.86.86,0,0,0-.32-.44"/><path class="cls-7" d="M39.63,5.73,42,6.79c2.35-1.85,5-3.68,5.92-3.27C49.86,4.4,51.74,9,52,9c0,0-.18-1.3-.47-2.9-.28-1.44-.58-2.68-.86-3.68-.2-.73-.39-1.34-.54-1.81a.86.86,0,0,0-.32-.44h0A.85.85,0,0,0,49,0h-.1l0,0a47.45,47.45,0,0,0-9.27,5.64"/><path class="cls-9" d="M15.27,54h0l2.25,1c1.73-8.05,5.88-22.63,9.41-29.74,4.62-9.28,7.17-11.34,11.52-15.37.66-.62,2.06-1.84,3.59-3L39.63,5.73h0l-.06,0A49.79,49.79,0,0,0,24.69,24.6c-1.52,3.43-3.49,9-5.32,14.82-1.61,5.1-3.12,10.38-4.1,14.54"/><path class="cls-3" d="M35.42,31.69a7.93,7.93,0,1,0-4.07-10.45,7.94,7.94,0,0,0,4.07,10.45"/><path class="cls-1" d="M18.26,71.34a1,1,0,0,0,1.27-.51s6.06-9,7.48-12.21S30.89,45,30.89,45a1,1,0,1,0-1.76-.78s-6.05,8.83-7.47,12.06-3.89,13.75-3.89,13.75a1,1,0,0,0,.49,1.28"/><path class="cls-9" d="M29.76,43.71a.94.94,0,0,1,.64,0,.94.94,0,0,0-.64,0"/><path class="cls-10" d="M17.72,70.71a1,1,0,0,0,.52.62h0C23.08,53,30.4,43.75,30.4,43.75h0a1,1,0,0,0-1.26.48v0s-6.05,8.83-7.47,12.06h0c-1.39,3.16-3.78,13.3-3.88,13.74h0a1,1,0,0,0-.05.65"/><path class="cls-2" d="M32.76,21.82a6.41,6.41,0,1,0,8.46-3.24,6.39,6.39,0,0,0-8.46,3.24"/><path class="cls-11" d="M43.59,28.47h0m0,0a7,7,0,0,0,.72-1.11h0a7,7,0,0,1-.72,1.11"/><path class="cls-12" d="M39.08,18l4.14,10.84c.13-.13.25-.27.37-.41h0a7,7,0,0,0,.72-1.11l-3.41-8.9A6.21,6.21,0,0,0,39.08,18"/><path class="cls-11" d="M42.2,29.74h0a3.72,3.72,0,0,0,.45-.33h0a3.72,3.72,0,0,1-.45.33"/><path class="cls-12" d="M37.75,18.08,42.2,29.74a3.72,3.72,0,0,0,.45-.33L38.3,18l-.55,0"/><text class="cls-13" transform="translate(52.94 69.06)">nth</text><text class="cls-14" transform="translate(52.06 88.61)">next talent hub</text></g></g></svg>