<svg xmlns="http://www.w3.org/2000/svg" viewBox="0 0 332.33 182.42"><defs><style>.cls-1{fill:#d41224;}.cls-2{fill:#bf172a;}.cls-3{fill:#ee7c8c;}</style></defs><title>small_red</title><g id="Layer_2" data-name="Layer 2"><g id="Layer_2-2" data-name="Layer 2"><path class="cls-1" d="M123.9,8.78A89.75,89.75,0,1,1,81.65,128.49,89.86,89.86,0,0,1,123.9,8.78Z"/><path class="cls-2" d="M106.21,20.05A89.61,89.61,0,0,0,237,139.77,89.68,89.68,0,1,1,106.21,20.05Z"/><path class="cls-3" d="M1.23,173.1c3.11,6.49,11.6,9.32,24,9.32,20.22,0,50.81-7.67,84.83-20a779.26,779.26,0,0,0,74-31C207.87,120,231.29,107.5,252.2,94.8c51-30.77,87.25-62.22,78.94-79.53C321.28-5.32,261.47,12,224.77,25a74.58,74.58,0,0,1,6.8,7.26c61.27-21.19,88.2-19.59,91.35-13.06,3.61,7.58-18.35,32.69-70.72,65a780.13,780.13,0,0,1-72.12,39,782.48,782.48,0,0,1-78.22,32.65C45.43,175.39,13,176.57,9.46,169.13c-3.06-6.35,12-27.85,65.3-61.45a64.14,64.14,0,0,1-1.43-9.91c-32.19,20-81.77,55.11-72.1,75.33Z"/></g></g></svg>