<svg xmlns="http://www.w3.org/2000/svg" viewBox="0 0 96.72 96.72"><defs><style>.cls-1{fill:#d32027;}.cls-2{fill:#be202b;}.cls-3{fill:#fff;}.cls-4{fill:none;stroke:#d32027;stroke-miterlimit:10;stroke-width:2px;}</style></defs><title>sharepoint</title><g id="Layer_2" data-name="Layer 2"><g id="Layer_2-2" data-name="Layer 2"><circle class="cls-1" cx="48.36" cy="48.36" r="48.36"/><path class="cls-2" d="M21.87,7.58A48.51,48.51,0,0,0,58.35,85c.84,0,1.68.06,2.53.06a48.33,48.33,0,0,0,26.71-8,48.45,48.45,0,0,1-39,19.71c-.85,0-1.69,0-2.53-.06A48.57,48.57,0,0,1,21.87,7.58Z"/><rect class="cls-3" x="33" y="47.7" width="33.32" height="20.4" rx="10.2" ry="10.2"/><rect class="cls-3" x="35.46" y="44.26" width="18.97" height="15.77" rx="7.89" ry="7.89"/><path class="cls-3" d="M52.47,64c8.35,0,16.71,0,25.06-.31,2.8-.11,6.54.2,9.07-1.28,4.8-2.82,2-8.06-1.18-10.83l-.51,3.93c2.32-1.44,4-1.88,4.23-4.63A9.85,9.85,0,0,0,87,44.5a11.33,11.33,0,0,0-11.7-4.27L77.7,44.4c5.49-5,3.44-13.67-3.23-16.44-7.69-3.2-14.93,2.11-18.68,8.56l4.66,1.27A18.51,18.51,0,0,0,37.8,17.89C24.57,21,19.59,35.54,24.9,47.18l2.16-3.76c-5.57-.24-11.76-.23-16.08,3.85C7.76,50.3,6.4,55,8.48,59c5.45,10.62,22.42,6.14,31.64,6.57,3.21.15,3.21-4.85,0-5-3.82-.18-7.62-.13-11.45,0-3.56.15-7.3.75-10.77-.35-4-1.26-7.26-4.57-4.06-8.66,3-3.85,8.88-3.37,13.22-3.18,2.05.09,2.89-2.15,2.15-3.76-4-8.83,0-19.72,9.92-21.95,9.41-2.12,17.33,5.73,16.32,15.08-.28,2.56,3.49,3.26,4.66,1.26,1.8-3.11,4.36-6.19,8.09-6.89,5-.95,10.71,4.39,6,8.71-2,1.78.13,4.66,2.43,4.18a6.29,6.29,0,0,1,7.53,6.48l1.23-2.16-3,1.84a2.53,2.53,0,0,0-.51,3.93c4.34,3.72,0,3.38-3,3.52-3.43.16-6.87.22-10.31.27-5.37.08-10.74.1-16.12.09-3.21,0-3.22,5,0,5Z"/><rect class="cls-4" x="33" y="47.7" width="33.32" height="20.4" rx="10.2" ry="10.2"/></g></g></svg>