<svg xmlns="http://www.w3.org/2000/svg" viewBox="0 0 96.72 96.72"><defs><style>.cls-1{fill:#d32027;}.cls-2{fill:#be202b;}.cls-3{fill:#fff;}.cls-4{fill:none;stroke:#fff;stroke-miterlimit:10;stroke-width:4px;}</style></defs><title>skupno_urejanje</title><g id="Layer_2" data-name="Layer 2"><g id="Layer_2-2" data-name="Layer 2"><circle class="cls-1" cx="48.36" cy="48.36" r="48.36"/><path class="cls-2" d="M21.87,7.58A48.51,48.51,0,0,0,58.35,85c.84,0,1.68.06,2.53.06a48.33,48.33,0,0,0,26.71-8,48.45,48.45,0,0,1-39,19.71c-.85,0-1.69,0-2.53-.06A48.57,48.57,0,0,1,21.87,7.58Z"/><circle class="cls-3" cx="28.08" cy="35.11" r="6.93"/><path class="cls-3" d="M41.21,71c0-.25,0-.49,0-.74,0-15.31-5.88-27.73-13.14-27.73S15,55,15,70.27V71Z"/><circle class="cls-3" cx="70.88" cy="35.11" r="6.93"/><path class="cls-3" d="M84,71v-.74C84,55,78.13,42.54,70.88,42.54S57.74,55,57.74,70.27c0,.25,0,.49,0,.74Z"/><path class="cls-4" d="M27,19.54C36.65,9.41,52.58,8.45,65.16,16.37"/><path class="cls-3" d="M70.88,20.83a36.24,36.24,0,0,0-11.62-1.66l5.09-3.29,1.8-5.8A36.38,36.38,0,0,0,70.88,20.83Z"/><path class="cls-4" d="M70.88,79.64c-9.66,10.13-25.6,11.1-38.18,3.17"/><path class="cls-3" d="M27,78.36A36.22,36.22,0,0,0,38.61,80l-5.09,3.3L31.71,89.1A36.3,36.3,0,0,0,27,78.36Z"/></g></g></svg>