<?xml version="1.0" encoding="utf-8"?>
<!-- Generator: Adobe Illustrator 22.1.0, SVG Export Plug-In . SVG Version: 6.00 Build 0)  -->
<svg version="1.1" id="Layer_1" xmlns="http://www.w3.org/2000/svg" xmlns:xlink="http://www.w3.org/1999/xlink" x="0px" y="0px"
	 viewBox="0 0 1280.2 150.6" style="enable-background:new 0 0 1280.2 150.6;" xml:space="preserve">
<style type="text/css">
	.st0{fill:#3C3C3B;}
	.st1{fill:#9090A2;}
	.st2{fill:#FFFFFF;}
</style>
<title>SPACE_F1</title>
<g id="Layer_2_1_">
	<g id="Layer_2-2">
		<path class="st0" d="M1172.6,53.3c-57.3-3-125.6-42.4-162.8-19c-15.6,9.8-13.9,26.2-20.2,39.7c-14,30-69.8,44.5-123.3,41.7
			S761.2,96.6,711.9,80c-35.9-12.1-73.1-24.9-112-26.9c-103.7-5.5-164.3,64.3-264.9,71.5c-68,4.8-145.9-19.3-215.4-29.5v0.3l0.1,0.1
			l1.1,1.1c0.1,0.1,0.1,0.3,0,0.4c0,0-0.1,0.1-0.1,0.1l-1.5,0.3l-0.1,0.1l-1.2,1.1c-0.1,0.1-0.2,0.1-0.3,0c0,0-0.1-0.1-0.1-0.1
			l-0.3-1.5l-0.1-0.1l-1.1-1.1c-0.1-0.1-0.1-0.3,0-0.4c0,0,0.1,0,0.1-0.1l1.5-0.3C74.3,88.5,34.2,87.8,2,103.1c-0.7,0.3-1.3,0.7-2,1
			v46.5h1280.2V5.9C1251.4,31.2,1222.6,55.9,1172.6,53.3z M10.9,129.9c-0.3,1-1.4,1.5-2.4,1.2c-1-0.3-1.5-1.4-1.2-2.4
			c0.3-1,1.4-1.5,2.4-1.2c0,0,0,0,0,0C10.7,127.9,11.2,128.9,10.9,129.9z M143.4,104.4l-1.5,0.3l-0.1,0.1l-1.1,1.1
			c-0.1,0.1-0.3,0.1-0.4,0c0,0,0-0.1-0.1-0.1l-0.3-1.5l-0.1-0.1l-1.1-1.1c-0.1-0.1-0.1-0.3,0-0.4c0,0,0.1-0.1,0.1-0.1l1.5-0.3
			l0.1-0.1l1.1-1.1c0.1-0.1,0.2-0.1,0.3,0c0,0,0.1,0.1,0.1,0.1l0.3,1.5l0.1,0.1l1.1,1.1c0.1,0.1,0.1,0.3,0,0.4
			C143.5,104.3,143.5,104.3,143.4,104.4L143.4,104.4z M487.4,149.1l-1.5,0.3l-0.1,0.1l-1.1,1.1c-0.1,0.1-0.3,0.1-0.4,0
			c0,0-0.1-0.1-0.1-0.1l-0.3-1.5l-0.1-0.1l-1.1-1.1c-0.1-0.1-0.1-0.3,0-0.4c0,0,0.1-0.1,0.1-0.1l1.5-0.3l0.1-0.1l1.1-1.1
			c0.1-0.1,0.2-0.1,0.3,0c0,0,0.1,0.1,0.1,0.1l0.3,1.5l0.1,0.1l1.1,1.1c0.1,0.1,0.1,0.2,0,0.4C487.6,149.1,487.5,149.1,487.4,149.1
			L487.4,149.1z M651.3,70.3l-1.5,0.3l-0.1,0.1l-1.1,1.1c-0.1,0.1-0.3,0.1-0.4,0c0,0,0-0.1-0.1-0.1l-0.3-1.5l-0.1-0.1l-1.1-1.1
			c-0.1-0.1-0.1-0.2,0-0.3c0,0,0.1-0.1,0.1-0.1l1.5-0.3l0.1-0.1l1.1-1.1c0.1-0.1,0.2-0.1,0.3,0c0,0,0.1,0.1,0.1,0.1l0.3,1.5l0.1,0.1
			l1.1,1.1c0.1,0.1,0.1,0.3,0,0.4C651.5,70.2,651.4,70.3,651.3,70.3L651.3,70.3z M689.6,135.8l-1.5,0.3l-0.1,0.1l-1.1,1.1
			c-0.1,0.1-0.3,0.1-0.4,0c0,0-0.1-0.1-0.1-0.1l-0.3-1.5l-0.1-0.1l-1.1-1.1c-0.1-0.1-0.1-0.3,0-0.4c0,0,0.1,0,0.1-0.1l1.5-0.3
			l0.1-0.1l1.1-1.1c0.1-0.1,0.2-0.1,0.3,0c0,0,0.1,0.1,0.1,0.1l0.3,1.5l0.1,0.1l1.1,1.1c0.1,0.1,0.1,0.2,0,0.3
			C689.8,135.8,689.7,135.8,689.6,135.8L689.6,135.8z M998.4,115.2l-1.5,0.3l-0.1,0.1l-1.1,1.1c-0.1,0.1-0.3,0.1-0.4,0
			c0,0,0-0.1-0.1-0.1l-0.3-1.5l-0.1-0.1l-1.1-1.1c-0.1-0.1-0.1-0.3,0-0.4c0,0,0.1-0.1,0.1-0.1l1.5-0.3l0.1-0.1l1.1-1.1
			c0.1-0.1,0.2-0.1,0.3,0c0,0,0.1,0.1,0.1,0.1l0.3,1.5l0.1,0.1l1.1,1.1c0.1,0.1,0.1,0.3,0,0.4C998.5,115.2,998.5,115.2,998.4,115.2
			L998.4,115.2z"/>
		<path class="st1" d="M9.7,127.6c-1-0.3-2,0.2-2.4,1.2c-0.3,1,0.2,2,1.2,2.4c1,0.3,2-0.2,2.4-1.2c0,0,0,0,0,0
			C11.2,128.9,10.7,127.9,9.7,127.6z"/>
		<path class="st2" d="M142.5,102.8l-0.1-0.1l-0.3-1.5c0-0.1-0.1-0.2-0.3-0.2c-0.1,0-0.1,0-0.1,0.1l-1.1,1.1l-0.1,0.1l-1.5,0.3
			c-0.1,0-0.2,0.2-0.2,0.3c0,0,0,0.1,0.1,0.1l1.1,1.1l0.1,0.1l0.3,1.5c0,0.1,0.2,0.2,0.3,0.2c0,0,0.1,0,0.1-0.1l1.1-1.1l0.1-0.1
			l1.5-0.3c0.1,0,0.2-0.2,0.2-0.3c0,0,0-0.1-0.1-0.1L142.5,102.8z"/>
		<path class="st2" d="M119.3,93.8c0-0.1-0.2-0.2-0.3-0.2c0,0-0.1,0-0.1,0.1l-1.1,1.1l-0.1,0.1l0,0l2,0.3L119.3,93.8z"/>
		<path class="st2" d="M115.9,95.5l1.1,1.1l0.1,0.1l0.3,1.5c0,0.1,0.1,0.2,0.3,0.2c0.1,0,0.1,0,0.1-0.1l1.2-1.1l0.1-0.1l1.5-0.3
			c0.1,0,0.2-0.2,0.2-0.3c0,0,0-0.1-0.1-0.1l-1.1-1.1l-0.1-0.1v-0.3l-2-0.3l-1.5,0.3c-0.1,0-0.2,0.2-0.2,0.3
			C115.9,95.4,115.9,95.4,115.9,95.5z"/>
		<path class="st2" d="M272-84.9l-0.1-0.1l-0.3-1.5c0-0.1-0.1-0.2-0.3-0.2c-0.1,0-0.1,0-0.1,0.1l-1.1,1.1l-0.1,0.1l-1.5,0.3
			c-0.1,0-0.2,0.2-0.2,0.3c0,0,0,0.1,0.1,0.1l1.1,1.1l0.1,0.1l0.3,1.5c0,0.1,0.1,0.2,0.3,0.2c0.1,0,0.1,0,0.1-0.1l1.1-1.1l0.1-0.1
			l1.5-0.3c0.1,0,0.2-0.1,0.2-0.3c0-0.1,0-0.1-0.1-0.1L272-84.9z"/>
		<path class="st2" d="M350.1,60.8l-0.1-0.1l-0.3-1.5c0-0.1-0.2-0.2-0.3-0.2c0,0-0.1,0-0.1,0.1l-1.1,1.1l-0.1,0.1l-1.5,0.3
			c-0.1,0-0.2,0.2-0.2,0.3c0,0,0,0.1,0.1,0.1l1.1,1.1l0.1,0.1l0.3,1.5c0,0.1,0.1,0.2,0.3,0.2c0.1,0,0.1,0,0.1-0.1l1.1-1.1l0.1-0.1
			l1.5-0.3c0.1,0,0.2-0.1,0.2-0.3c0-0.1,0-0.1-0.1-0.1L350.1,60.8z"/>
		<path class="st2" d="M514-18l-0.1-0.1l-0.3-1.5c0-0.1-0.2-0.2-0.3-0.2c0,0-0.1,0-0.1,0.1l-1.1,1.1l-0.1,0.1l-1.5,0.3
			c-0.1,0-0.2,0.2-0.2,0.3c0,0.1,0,0.1,0.1,0.1l1.1,1.1l0.1,0.1l0.3,1.5c0,0.1,0.2,0.2,0.3,0.2c0,0,0.1,0,0.1-0.1l1.1-1.1l0.1-0.1
			l1.5-0.3c0.1,0,0.2-0.1,0.2-0.3c0-0.1,0-0.1-0.1-0.1L514-18z"/>
		<path class="st2" d="M552.3,47.6l-0.1-0.1l-0.3-1.5c0-0.1-0.1-0.2-0.3-0.2c-0.1,0-0.1,0-0.1,0.1l-1.1,1.1l-0.1,0.1l-1.5,0.3
			c-0.1,0-0.2,0.2-0.2,0.3c0,0,0,0.1,0.1,0.1l1.1,1.1l0.1,0.1l0.3,1.5c0,0.1,0.2,0.2,0.3,0.2c0,0,0.1,0,0.1-0.1l1.1-1.1l0.1-0.1
			l1.5-0.3c0.1,0,0.2-0.2,0.2-0.3c0,0,0-0.1-0.1-0.1L552.3,47.6z"/>
		<path class="st2" d="M440.8-176.6l-0.1-0.1l-0.3-1.5c0-0.1-0.2-0.2-0.3-0.2c0,0-0.1,0-0.1,0.1l-1.1,1.1l-0.1,0.1l-1.5,0.3
			c-0.1,0-0.2,0.1-0.2,0.3c0,0.1,0,0.1,0.1,0.1l1.1,1.1l0.1,0.1l0.3,1.5c0,0.1,0.1,0.2,0.3,0.2c0.1,0,0.1,0,0.1-0.1l1.1-1.1l0.1-0.1
			l1.5-0.3c0.1,0,0.2-0.2,0.2-0.3c0,0,0-0.1-0.1-0.1L440.8-176.6z"/>
		<path class="st2" d="M577.8-131.3l-0.1-0.1l-0.3-1.5c0-0.1-0.2-0.2-0.3-0.2c0,0-0.1,0-0.1,0.1l-1.1,1.1l-0.1,0.1l-1.5,0.3
			c-0.1,0-0.2,0.1-0.2,0.3c0,0.1,0,0.1,0.1,0.1l1.1,1.1l0.1,0.1l0.3,1.5c0,0.1,0.2,0.2,0.3,0.2c0,0,0.1,0,0.1-0.1l1.1-1.1l0.1-0.1
			l1.5-0.3c0.1,0,0.2-0.2,0.2-0.3c0,0,0-0.1-0.1-0.1L577.8-131.3z"/>
		<path class="st2" d="M213.9,85.2l-0.1-0.1l-0.3-1.5c0-0.1-0.1-0.2-0.3-0.2c-0.1,0-0.1,0-0.1,0.1l-1.1,1.1l-0.1,0.1l-1.5,0.3
			c-0.1,0-0.2,0.1-0.2,0.3c0,0.1,0,0.1,0.1,0.1l1.1,1.1l0.1,0.1l0.3,1.5c0,0.1,0.2,0.2,0.3,0.2c0.1,0,0.1,0,0.1-0.1l1.1-1.1l0.1-0.1
			l1.5-0.3c0.1,0,0.2-0.2,0.2-0.3c0,0,0-0.1-0.1-0.1L213.9,85.2z"/>
		<path class="st2" d="M408.5,1.9l-0.1-0.1l-0.3-1.5c0-0.1-0.2-0.2-0.3-0.2c0,0-0.1,0-0.1,0.1l-1.1,1l-0.1,0.1l-1.5,0.3
			c-0.1,0-0.2,0.1-0.2,0.3c0,0.1,0,0.1,0.1,0.1l1.1,1.1l0.1,0.1l0.3,1.5c0,0.1,0.2,0.2,0.3,0.2c0,0,0.1,0,0.1-0.1l1.1-1.1l0.1-0.1
			l1.5-0.3c0.1,0,0.2-0.2,0.2-0.3c0-0.1,0-0.1-0.1-0.1L408.5,1.9z"/>
		<path class="st2" d="M486.5,147.5l-0.1-0.1l-0.3-1.5c0-0.1-0.1-0.2-0.3-0.2c-0.1,0-0.1,0-0.1,0.1l-1.1,1.1l-0.1,0.1l-1.5,0.3
			c-0.1,0-0.2,0.2-0.2,0.3c0,0,0,0.1,0.1,0.1l1.1,1.1l0.1,0.1l0.3,1.5c0,0.1,0.2,0.2,0.3,0.2c0.1,0,0.1,0,0.1-0.1l1.1-1.1l0.1-0.1
			l1.5-0.3c0.1,0,0.2-0.2,0.2-0.3c0,0,0-0.1-0.1-0.1L486.5,147.5z"/>
		<path class="st2" d="M650.5,68.7l-0.1-0.1l-0.3-1.5c0-0.1-0.1-0.2-0.3-0.2c-0.1,0-0.1,0-0.1,0.1l-1.1,1.1l-0.1,0.1l-1.5,0.3
			c-0.1,0-0.2,0.1-0.2,0.3c0,0.1,0,0.1,0.1,0.1l1.1,1.1l0.1,0.1l0.3,1.5c0,0.1,0.2,0.2,0.3,0.2c0,0,0.1,0,0.1-0.1l1.1-1.1l0.1-0.1
			l1.5-0.3c0.1,0,0.2-0.2,0.2-0.3c0,0,0-0.1-0.1-0.1L650.5,68.7z"/>
		<path class="st2" d="M688.8,134.3l-0.1-0.1l-0.3-1.5c0-0.1-0.1-0.2-0.3-0.2c-0.1,0-0.1,0-0.1,0.1l-1.1,1.1l-0.1,0.1l-1.5,0.3
			c-0.1,0-0.2,0.2-0.2,0.3c0,0,0,0.1,0.1,0.1l1.1,1.1l0.1,0.1l0.3,1.5c0,0.1,0.2,0.2,0.3,0.2c0.1,0,0.1,0,0.1-0.1l1.1-1.1l0.1-0.1
			l1.5-0.3c0.1,0,0.2-0.1,0.2-0.3c0-0.1,0-0.1-0.1-0.1L688.8,134.3z"/>
		<path class="st2" d="M577.2-89.9l-0.1-0.1l-0.3-1.5c0-0.1-0.1-0.2-0.3-0.2c-0.1,0-0.1,0-0.1,0.1l-1.2,1.1l-0.1,0.1l-1.5,0.3
			c-0.1,0-0.2,0.2-0.2,0.3c0,0,0,0.1,0.1,0.1l1.1,1.1l0.1,0.1l0.3,1.5c0,0.1,0.2,0.2,0.3,0.2c0.1,0,0.1,0,0.1-0.1l1.1-1.1l0.1-0.1
			l1.5-0.3c0.1,0,0.2-0.2,0.2-0.3c0,0,0-0.1-0.1-0.1L577.2-89.9z"/>
		<path class="st2" d="M714.2-44.6l-0.1-0.1l-0.3-1.5c0-0.1-0.1-0.2-0.3-0.2c-0.1,0-0.1,0-0.1,0.1l-1.1,1.1l-0.1,0.1l-1.5,0.3
			c-0.1,0-0.2,0.2-0.2,0.3c0,0,0,0.1,0.1,0.1l1.1,1.1l0.1,0.1l0.3,1.5c0,0.1,0.2,0.2,0.3,0.2c0,0,0.1,0,0.1-0.1l1.1-1.1l0.1-0.1
			l1.5-0.3c0.1,0,0.2-0.2,0.2-0.3c0,0,0-0.1-0.1-0.1L714.2-44.6z"/>
		
			<rect x="212.3" y="54.9" transform="matrix(0.9401 -0.3409 0.3409 0.9401 -7.2772 77.4818)" class="st2" width="9.2" height="9.2"/>
		<path class="st2" d="M717.3-198.6l-0.1-0.1l-0.3-1.5c0-0.1-0.2-0.2-0.3-0.2c-0.1,0-0.1,0-0.1,0.1l-1.1,1.1l-0.1,0.1l-1.5,0.3
			c-0.1,0-0.2,0.2-0.2,0.3c0,0,0,0.1,0.1,0.1l1.1,1.1l0.1,0.1l0.3,1.5c0,0.1,0.1,0.2,0.3,0.2c0.1,0,0.1,0,0.1-0.1l1.1-1.1l0.1-0.1
			l1.5-0.3c0.1,0,0.2-0.2,0.2-0.3c0,0,0-0.1-0.1-0.1L717.3-198.6z"/>
		<path class="st2" d="M694.4-206l-0.1-0.1l-0.3-1.5c0-0.1-0.1-0.2-0.3-0.2c-0.1,0-0.1,0-0.1,0.1l-1.1,1.1l-0.1,0.1l-1.5,0.3
			c-0.1,0-0.2,0.2-0.2,0.3c0,0,0,0.1,0.1,0.1l1.1,1.1l0.1,0.1l0.3,1.5c0,0.1,0.2,0.2,0.3,0.2c0,0,0.1,0,0.1-0.1l1.1-1.1l0.1-0.1
			l1.5-0.3c0.1,0,0.2-0.1,0.2-0.3c0-0.1,0-0.1-0.1-0.1L694.4-206z"/>
		<path class="st2" d="M1017.2-104.1l-0.1-0.1l-0.3-1.5c0-0.1-0.1-0.2-0.3-0.2c-0.1,0-0.1,0-0.1,0.1l-1.1,1.1l-0.1,0.1l-1.5,0.3
			c-0.1,0-0.2,0.2-0.2,0.3c0,0,0,0.1,0.1,0.1l1.1,1.1l0.1,0.1l0.3,1.5c0,0.1,0.2,0.2,0.3,0.2c0,0,0.1,0,0.1-0.1l1.1-1.1l0.1-0.1
			l1.5-0.3c0.1,0,0.2-0.2,0.2-0.3c0,0,0-0.1-0.1-0.1L1017.2-104.1z"/>
		<path class="st2" d="M846.8-386.2l-0.1-0.1l-0.3-1.5c0-0.1-0.2-0.2-0.3-0.2c0,0-0.1,0-0.1,0.1l-1.1,1.1l-0.1,0.1l-1.5,0.3
			c-0.1,0-0.2,0.1-0.2,0.3c0,0.1,0,0.1,0.1,0.1l1.1,1.1l0.1,0.1l0.3,1.5c0,0.1,0.2,0.2,0.3,0.2c0,0,0.1,0,0.1-0.1l1.1-1.1l0.1-0.1
			l1.5-0.3c0.1,0,0.2-0.2,0.2-0.3c0-0.1,0-0.1-0.1-0.1L846.8-386.2z"/>
		<path class="st2" d="M826.6-88.4l-0.1-0.1l-0.3-1.5c0-0.1-0.2-0.2-0.3-0.2c0,0-0.1,0-0.1,0.1l-1.1,1.1l-0.1,0.1l-1.5,0.3
			c-0.1,0-0.2,0.2-0.2,0.3c0,0.1,0,0.1,0.1,0.1l1.1,1.1l0.1,0.1l0.3,1.5c0,0.1,0.2,0.2,0.3,0.2c0,0,0.1,0,0.1-0.1l1.1-1.1l0.1-0.1
			l1.5-0.3c0.1,0,0.2-0.1,0.2-0.3c0-0.1,0-0.1-0.1-0.1L826.6-88.4z"/>
		<path class="st2" d="M924.9-240.6l-0.1-0.1l-0.3-1.5c0-0.1-0.1-0.2-0.3-0.2c-0.1,0-0.1,0-0.1,0.1l-1.1,1.1l-0.1,0.1l-1.5,0.3
			c-0.1,0-0.2,0.2-0.2,0.3c0,0,0,0.1,0.1,0.1l1.1,1.1l0.1,0.1l0.3,1.5c0,0.1,0.2,0.2,0.3,0.2c0,0,0.1,0,0.1-0.1l1.1-1.1l0.1-0.1
			l1.5-0.3c0.1,0,0.2-0.2,0.2-0.3c0,0,0-0.1-0.1-0.1L924.9-240.6z"/>
		<path class="st2" d="M1088.8-319.4l-0.1-0.1l-0.3-1.5c0-0.1-0.1-0.2-0.3-0.2c-0.1,0-0.1,0-0.1,0.1l-1.1,1.1l-0.1,0.1l-1.5,0.3
			c-0.1,0-0.2,0.1-0.2,0.3c0,0.1,0,0.1,0.1,0.1l1.1,1.1l0.1,0.1l0.3,1.5c0,0.1,0.2,0.2,0.3,0.2c0,0,0.1,0,0.1-0.1l1.1-1.1l0.1-0.1
			l1.5-0.3c0.1,0,0.2-0.2,0.2-0.3c0,0,0-0.1-0.1-0.1L1088.8-319.4z"/>
		<path class="st2" d="M1127.1-253.8l-0.1-0.1l-0.3-1.5c0-0.1-0.1-0.2-0.3-0.2c-0.1,0-0.1,0-0.1,0.1l-1.1,1.1l-0.1,0.1l-1.5,0.3
			c-0.1,0-0.2,0.2-0.2,0.3c0,0,0,0.1,0.1,0.1l1.1,1.1l0.1,0.1l0.3,1.5c0,0.1,0.2,0.2,0.3,0.2c0.1,0,0.1,0,0.1-0.1l1.1-1.1l0.1-0.1
			l1.5-0.3c0.1,0,0.2-0.2,0.2-0.3c0,0,0-0.1-0.1-0.1L1127.1-253.8z"/>
		<path class="st2" d="M1013.7-475l1.1-1.1l0.1-0.1l1.5-0.3c0.1,0,0.2-0.2,0.2-0.3c0,0,0-0.1-0.1-0.1l-1.1-1.1l-0.1-0.1l-0.3-1.6
			c0-0.1-0.1-0.2-0.3-0.2c-0.1,0-0.1,0-0.1,0.1l-1.2,1.1l-0.1,0.1l-1.5,0.3c-0.1,0-0.2,0.2-0.2,0.3c0,0,0,0.1,0.1,0.1l1.1,1.1
			l0.1,0.1l0.3,1.5c0,0.1,0.2,0.2,0.3,0.2C1013.6-475,1013.7-475,1013.7-475z"/>
		<path class="st2" d="M1152.6-432.7l-0.1-0.1l-0.3-1.5c0-0.1-0.2-0.2-0.3-0.2c0,0-0.1,0-0.1,0.1l-1.1,1.1l-0.1,0.1l-1.6,0.3
			c-0.1,0-0.2,0.2-0.2,0.3c0,0,0,0.1,0.1,0.1l1.1,1.1l0.1,0.1l0.3,1.5c0,0.1,0.2,0.2,0.3,0.2c0,0,0.1,0,0.1-0.1l1.1-1.1l0.1-0.1
			l1.5-0.3c0.1,0,0.2-0.2,0.2-0.3c0,0,0-0.1-0.1-0.1L1152.6-432.7z"/>
		<path class="st2" d="M997.5,113.6l-0.1-0.1l-0.3-1.5c0-0.1-0.1-0.2-0.3-0.2c-0.1,0-0.1,0-0.1,0.1l-1.1,1.1l-0.1,0.1l-1.5,0.3
			c-0.1,0-0.2,0.2-0.2,0.3c0,0,0,0.1,0.1,0.1l1.1,1.1l0.1,0.1l0.3,1.5c0,0.1,0.2,0.2,0.3,0.2c0,0,0.1,0,0.1-0.1l1.1-1.1l0.1-0.1
			l1.5-0.3c0.1,0,0.2-0.2,0.2-0.3c0,0,0-0.1-0.1-0.1L997.5,113.6z"/>
		<path class="st2" d="M788.7-216.2l-0.1-0.1l-0.3-1.5c0-0.1-0.2-0.2-0.3-0.2c0,0-0.1,0-0.1,0.1l-1.1,1.1l-0.1,0.1l-1.5,0.3
			c-0.1,0-0.2,0.2-0.2,0.3c0,0.1,0,0.1,0.1,0.1l1.1,1.1l0.1,0.1l0.3,1.5c0,0.1,0.2,0.2,0.3,0.2c0,0,0.1,0,0.1-0.1l1.1-1.1l0.1-0.1
			l1.5-0.3c0.1,0,0.2-0.1,0.2-0.3c0-0.1,0-0.1-0.1-0.1L788.7-216.2z"/>
		
			<rect x="650.5" y="-332.6" transform="matrix(0.9404 -0.3401 0.3401 0.9404 150.6375 203.2567)" class="st2" width="9.2" height="9.2"/>
	</g>
</g>
</svg>
